<?xml version="1.0" standalone="no"?>
<!DOCTYPE svg PUBLIC "-//W3C//DTD SVG 1.1//EN" "http://www.w3.org/Graphics/SVG/1.1/DTD/svg11.dtd" >
<svg xmlns="http://www.w3.org/2000/svg">
<metadata>
Created by FontPrep 20130207 at Tue Jul 19 17:55:49 2016
 By Guille Cura
(c) 2012, 2013, 2014, 2015 by Stawix Ruecha &#38; Foundry. All rights reserved.
</metadata>
<defs>
<font id="634cae7f9198c26a1457bb5c17c29c9c" horiz-adv-x='1024' >
  <font-face 
    font-family="AmsiPro-XLightItalic"
    font-weight="400"
    font-style="italic"
    font-stretch="normal"
    units-per-em="2048"
    panose-1="2 11 10 6 2 2 1 1 1 4"
    ascent="1747"
    descent="-301"
    x-height="1040"
    cap-height="1436"
    bbox="-499.535 -582 2503 2150.04"
    underline-thickness="51"
    underline-position="-156"
    slope="-10"
    unicode-range="U+0020-FB4E"
  />
<missing-glyph horiz-adv-x="1007" 
d="M504 616l-342 -516h684zM504 797l344 516h-686zM100 1223v-1030l344 514zM907 193v1030l-344 -516zM0 1413h1008v-1413h-1008v1413z" />
    <glyph glyph-name="f_f" unicode="ff" horiz-adv-x="1234" 
d="M1260 1040q18 0 16 -18l-6 -37q-4 -18 -23 -18h-274l-166 -949q-4 -18 -21 -18h-45q-16 0 -14 18l166 949h-485l-168 -949q-2 -18 -21 -18h-43q-20 0 -16 18l168 949h-170q-18 0 -15 18l7 37q2 18 20 18h170l20 117q51 291 291 291q88 0 135 -21q14 -4 11 -18l-11 -35
q-8 -18 -22 -14q-41 16 -109 16q-178 0 -215 -225l-20 -111h485l23 117q51 291 291 291q88 0 135 -21q12 -6 8 -18l-10 -35q-4 -20 -23 -14q-41 16 -106 16q-178 0 -215 -225l-23 -111h275z" />
    <glyph glyph-name="fi" unicode="fi" horiz-adv-x="1067" 
d="M1001 1225h-43q-16 0 -14 18l31 174q4 18 20 19h41q21 -1 17 -19l-31 -174q-2 -18 -21 -18zM786 0h-45q-16 0 -14 18l166 949h-485l-168 -949q-2 -18 -21 -18h-43q-20 0 -16 18l168 949h-170q-18 0 -15 18l7 37q2 18 20 18h170l20 113q51 295 289 295q92 0 137 -21
q14 -4 11 -18l-11 -35q-8 -20 -24 -14q-45 16 -109 16q-174 0 -215 -227l-20 -109h551q18 0 14 -18l-176 -1004q-4 -18 -21 -18z" />
    <glyph glyph-name="fl" unicode="fl" horiz-adv-x="1067" 
d="M786 0h-45q-16 0 -14 18l236 1342q-85 16 -225 16t-211 -59t-93 -187l-16 -90h233q20 0 15 -18l-7 -37q-4 -18 -20 -18h-231l-168 -949q-2 -18 -21 -18h-43q-20 0 -16 18l168 949h-170q-18 0 -15 18l7 37q2 18 20 18h170l16 90q29 162 117 241q89 79 273 79t286 -31
q19 -2 17 -22l-242 -1379q-4 -18 -21 -18z" />
    <glyph glyph-name="f_f_i" unicode="ffi" horiz-adv-x="1634" 
d="M1567 1225h-41q-18 0 -17 18l31 174q6 18 21 19h43q20 -1 14 -19l-31 -174q-2 -18 -20 -18zM1352 0h-43q-20 0 -15 18l166 949h-487l-166 -949q-4 -18 -21 -18h-45q-16 0 -14 18l166 949h-485l-168 -949q-2 -18 -21 -18h-43q-20 0 -16 18l168 949h-170q-18 0 -15 18l7 37
q2 18 20 18h170l20 117q51 291 291 291q78 0 135 -21q14 -4 11 -18l-11 -35q-8 -18 -22 -14q-41 16 -109 16q-178 0 -215 -225l-20 -111h485l23 117q51 291 291 291q88 0 135 -21q12 -4 8 -18l-10 -35q-4 -20 -23 -14q-41 16 -106 16q-178 0 -215 -225l-23 -111h549
q18 0 16 -18l-176 -1004q-6 -18 -22 -18z" />
    <glyph glyph-name="f_f_l" unicode="ffl" horiz-adv-x="1632" 
d="M786 0h-45q-16 0 -14 18l166 949h-485l-168 -949q-2 -18 -21 -18h-43q-20 0 -16 18l168 949h-170q-18 0 -15 18l7 37q2 18 20 18h170l20 117q51 291 291 291q88 0 135 -21q14 -4 11 -18l-11 -35q-8 -18 -22 -14q-41 16 -109 16q-178 0 -215 -225l-20 -111h485l19 90
q29 162 116 241q88 79 272 79t287 -31q20 -2 15 -24l-242 -1377q-4 -18 -20 -18h-43q-18 0 -17 18l238 1342q-88 16 -226 16t-210 -59q-70 -59 -90 -187l-19 -90h234q18 0 14 -18l-6 -37q-2 -18 -21 -18h-233l-166 -949q-4 -18 -21 -18z" />
    <glyph glyph-name="f_b" unicode="fb" horiz-adv-x="1849" 
d="M1378 1065q182 0 282 -102t101 -291q0 -76 -14 -150q-45 -262 -184 -402t-353 -140q-147 0 -244 64t-124 187l-35 -213q-6 -18 -23 -18h-43q-16 0 -14 18l236 1342q-85 16 -225 16t-209 -58t-93 -188l-16 -90h231q20 0 15 -18l-7 -37q0 -18 -20 -18h-231l-168 -949
q-2 -18 -21 -18h-43q-20 0 -16 18l168 949h-170q-14 0 -15 18l7 37q2 18 20 18h170l16 93q29 161 117 239q89 78 273 78t286 -31q19 -2 17 -22l-103 -588q141 256 432 256zM881 383q-1 -330 335 -330q172 0 290 119t157 350q14 74 14 148q0 322 -309 321q-188 0 -311 -121
t-162 -348q-14 -70 -14 -139z" />
    <glyph glyph-name="f_f_b" unicode="ffb" horiz-adv-x="2416" 
d="M1944 1065q182 0 282 -102t101 -291q0 -76 -15 -150q-47 -262 -184 -402t-350 -140q-147 0 -245 64q-97 65 -124 187l-37 -213q-4 -18 -20 -18h-43q-18 0 -17 18l238 1342q-88 16 -226 16t-210 -59q-70 -59 -90 -187l-19 -90h234q20 0 14 -18l-6 -37q0 -18 -21 -18h-233
l-166 -949q-4 -18 -21 -18h-45q-16 0 -14 18l166 949h-485l-168 -949q-2 -18 -21 -18h-43q-20 0 -16 18l168 949h-170q-14 0 -15 18l7 37q2 18 20 18h170l20 117q51 291 291 291q88 0 135 -21q14 -6 11 -18l-11 -35q-4 -20 -22 -14q-41 16 -109 16q-174 0 -215 -225
l-20 -111h485l19 90q31 164 117 242q87 78 271 78t287 -31q19 -6 15 -24l-103 -586q143 256 433 256zM1448 383q0 -162 82 -246t237 -84q379 0 463 469q14 94 15 148q0 322 -312 321q-186 0 -310 -122t-163 -347q-12 -74 -12 -139z" />
    <glyph glyph-name="f_h" unicode="fh" horiz-adv-x="1810" 
d="M1369 1065q159 0 242 -74t83 -207q0 -45 -8 -86l-121 -680q-4 -18 -21 -18h-43q-18 0 -16 18l117 672q8 41 8 84q0 215 -256 215q-164 0 -287 -97t-149 -245l-111 -629q-4 -18 -21 -18h-45q-16 0 -14 18l236 1342q-85 16 -225 16t-211 -59t-91 -187l-16 -90h231
q20 0 15 -18l-7 -37q-4 -18 -20 -18h-231l-168 -949q-2 -18 -21 -18h-43q-20 0 -16 18l168 949h-170q-18 0 -15 18l7 37q2 18 20 18h170l16 90q29 162 117 241q89 79 273 79t286 -31q19 -2 17 -22l-97 -559q50 92 154 160t263 67z" />
    <glyph glyph-name="f_f_h" unicode="ffh" horiz-adv-x="2377" 
d="M1935 1065q158 0 241 -75t83 -210q0 -39 -6 -82l-121 -680q-2 -18 -21 -18h-45q-20 0 -14 18l117 672q8 39 8 82q0 217 -256 217q-164 0 -288 -97t-150 -245l-111 -629q-4 -18 -20 -18h-43q-18 0 -17 18l238 1342q-88 16 -226 16t-210 -59q-70 -59 -90 -187l-19 -90h234
q20 0 14 -18l-6 -37q-2 -18 -21 -18h-233l-166 -949q-4 -18 -21 -18h-45q-16 0 -14 18l166 949h-485l-168 -949q-2 -18 -21 -18h-43q-20 0 -16 18l168 949h-170q-18 0 -15 18l7 37q2 18 20 18h170l20 117q51 291 289 291q90 0 137 -21q14 -4 11 -18l-11 -35q-8 -18 -22 -14
q-49 16 -109 16q-178 0 -215 -225l-20 -111h485l19 90q29 162 116 241q88 79 272 79t287 -31q21 -2 15 -22l-96 -559q133 227 417 227z" />
    <glyph glyph-name="f_j" unicode="fj" horiz-adv-x="1069" 
d="M1004 1225h-43q-20 0 -15 18l31 174q2 18 20 19h41q19 -1 17 -19l-31 -174q-4 -18 -20 -18zM584 -233q-61 0 -115 14q-16 4 -10 20l10 37q6 16 36 9t83 -7q105 0 141 178l166 949h-487l-168 -949q-2 -18 -21 -18h-43q-20 0 -16 18l168 949h-170q-18 0 -15 18l7 37
q2 18 20 18h170l20 117q51 291 291 291q88 0 135 -21q14 -4 11 -18l-11 -35q-8 -18 -22 -14q-49 16 -109 16q-178 0 -215 -225l-20 -111h551q16 0 14 -18l-178 -1012q-21 -123 -73 -183t-150 -60z" />
    <glyph glyph-name="f_f_j" unicode="ffj" horiz-adv-x="1634" 
d="M1569 1225h-41q-20 0 -17 18l31 174q2 18 21 19h43q20 -1 14 -19l-31 -174q-4 -18 -20 -18zM1149 -233q-63 0 -115 14q-14 4 -8 20l10 37q2 14 23 12q45 -10 97 -10q105 0 140 178l166 949h-489l-166 -949q-4 -18 -21 -18h-45q-16 0 -14 18l166 949h-485l-168 -949
q-2 -18 -21 -18h-43q-20 0 -16 18l168 949h-170q-18 0 -15 18l7 37q2 18 20 18h170l20 117q51 291 291 291q88 0 135 -21q14 -4 11 -18l-11 -35q-8 -18 -22 -14q-41 16 -109 16q-178 0 -215 -225l-20 -111h485l23 117q51 291 291 291q88 0 135 -21q16 -4 8 -18l-10 -35
q-4 -20 -23 -14q-41 16 -106 16q-178 0 -215 -225l-23 -111h551q20 0 14 -18l-178 -1012q-20 -123 -72 -183t-151 -60z" />
    <glyph glyph-name="f_k" unicode="fk" horiz-adv-x="1572" 
d="M1518 1040h79q11 0 13 -7t-11 -15l-643 -432l492 -563q8 -7 4 -15t-14 -8h-60q-14 0 -26 12l-453 525l-92 -519q-4 -18 -21 -18h-45q-16 0 -14 18l236 1342q-85 16 -225 16t-210 -59t-92 -187l-16 -90h231q16 0 15 -18l-7 -37q0 -18 -20 -18h-231l-168 -949
q-2 -18 -21 -18h-43q-20 0 -16 18l168 949h-170q-14 0 -15 18l7 37q2 18 20 18h170l16 90q29 162 117 241q89 79 273 79t286 -31q23 -2 17 -22l-131 -752l573 385q10 10 27 10z" />
    <glyph glyph-name="f_f_k" unicode="ffk" horiz-adv-x="2138" 
d="M2083 1040h80q10 0 12 -7t-10 -15l-643 -432l491 -563q8 -7 4 -15t-14 -8h-57q-16 0 -27 12l-455 525l-90 -519q-6 -18 -22 -18h-43q-18 0 -17 18l238 1342q-88 16 -226 16t-210 -59q-70 -59 -90 -187l-19 -90h234q16 0 14 -18l-6 -37q0 -18 -21 -18h-233l-166 -949
q-4 -18 -21 -18h-45q-16 0 -14 18l166 949h-485l-168 -949q-2 -18 -21 -18h-43q-18 0 -16 18l168 949h-170q-16 0 -15 18l7 37q2 18 20 18h170l20 117q51 291 291 291q88 0 135 -21q14 -6 11 -18l-11 -35q-8 -18 -22 -14q-49 16 -109 16q-174 0 -215 -225l-20 -111h485
l19 90q31 164 117 242q87 78 271 78t287 -31q19 -4 17 -22l-133 -752l573 385q14 10 27 10z" />
    <glyph glyph-name="f_t" unicode="ft" horiz-adv-x="1277" 
d="M1022 1346q20 0 14 -19l-51 -287h303q18 0 17 -18l-7 -37q-4 -18 -22 -18h-303l-117 -670q-12 -61 -12 -119q0 -118 162 -117q61 0 114 15q20 2 21 -15v-34q0 -14 -19 -19q-61 -20 -127 -20q-119 0 -175 46t-56 152q0 39 10 107l119 674h-485l-168 -949q-2 -18 -21 -18
h-43q-20 0 -16 18l168 949h-170q-18 0 -15 18l7 37q2 18 20 18h170l20 117q51 291 291 291q88 0 135 -21q14 -4 11 -18l-11 -35q-8 -18 -22 -14q-41 16 -109 16q-178 0 -215 -225l-20 -111h487l51 287q4 18 21 19h43z" />
    <glyph glyph-name="f_f_t" unicode="fft" horiz-adv-x="1843" 
d="M1411 184q1 -122 137 -123q62 0 138 15q14 2 18 -15l4 -34q2 -14 -16 -19q-61 -20 -129 -20q-121 0 -178 47q-56 47 -56 153q0 39 10 105l121 674h-487l-166 -949q-4 -18 -21 -18h-45q-16 0 -14 18l166 949h-485l-168 -949q-2 -18 -21 -18h-43q-20 0 -16 18l168 949h-170
q-18 0 -15 18l7 37q2 18 20 18h170l20 117q51 291 291 291q88 0 135 -21q14 -4 11 -18l-11 -35q-8 -18 -22 -14q-41 16 -109 16q-178 0 -215 -225l-20 -111h485l23 117q51 291 291 291q88 0 135 -21q12 -4 8 -18l-10 -35q-4 -20 -23 -14q-41 16 -106 16q-178 0 -215 -223
l-23 -113h488l51 287q6 18 20 19h43q20 0 15 -19l-50 -287h303q16 0 15 -18l-6 -37q-4 -18 -21 -18h-303l-119 -670q-10 -51 -10 -113z" />
    <glyph glyph-name="t_t" unicode="tt" horiz-adv-x="1263" 
d="M262 184q0 -122 146 -123q72 0 129 15q18 2 18 -15l4 -34q2 -14 -16 -19q-61 -20 -155 -20q-205 0 -206 198q0 39 11 107l118 674h-170q-20 0 -14 18l4 37q6 18 23 18h172l49 287q6 18 22 19h41q20 0 15 -19l-50 -287h490l51 287q2 18 21 19h43q16 0 14 -19l-51 -287h305
q18 0 14 -18l-6 -37q-2 -18 -20 -18h-306l-116 -670q-31 -160 26 -206q36 -30 100 -30t136 15q16 2 20 -15l2 -34q2 -14 -14 -19q-62 -20 -156 -20q-206 0 -206 200q0 39 10 105l121 674h-490l-119 -670q-10 -51 -10 -113z" />
    <glyph glyph-name="t_t_f" unicode="ttf" horiz-adv-x="1794" 
d="M262 184q0 -122 136 -123q62 0 139 15q18 2 18 -15l4 -34q2 -14 -16 -19q-61 -20 -155 -20q-205 0 -206 198q0 57 11 109l118 672h-170q-20 0 -14 18l4 37q6 18 23 18h172l49 287q6 18 22 19h41q20 0 15 -19l-50 -287h490l51 287q2 18 21 19h43q16 0 14 -19l-51 -287h493
l21 115q51 293 291 293q90 0 135 -21q14 -4 10 -18l-10 -35q-8 -18 -23 -14q-49 16 -108 16q-174 0 -215 -225l-21 -111h275q16 0 14 -18l-6 -37q-4 -18 -21 -18h-274l-168 -949q-4 -18 -21 -18h-43q-18 0 -16 18l168 949h-494l-116 -670q-31 -160 26 -206q36 -30 110 -30
t128 15q20 2 20 -15v-34q0 -14 -18 -19q-58 -20 -152 -20q-206 0 -206 200q0 39 10 105l121 674h-490l-119 -670q-10 -51 -10 -113z" />
    <glyph glyph-name=".notdef" horiz-adv-x="1007" 
d="M504 616l-342 -516h684zM504 797l344 516h-686zM100 1223v-1030l344 514zM907 193v1030l-344 -516zM0 1413h1008v-1413h-1008v1413z" />
    <glyph glyph-name=".null" horiz-adv-x="0" 
 />
    <glyph glyph-name="nonmarkingreturn" horiz-adv-x="681" 
 />
    <glyph glyph-name="space" unicode=" " horiz-adv-x="628" 
 />
    <glyph glyph-name="exclam" unicode="!" horiz-adv-x="542" 
d="M272 377h-34q-20 0 -17 18l166 1022q2 18 23 19h63q18 0 16 -19l-196 -1022q-3 -18 -21 -18zM264 164q18 0 15 -17l-23 -129q-2 -18 -20 -18h-93q-20 0 -16 18l23 129q4 16 20 17h94z" />
    <glyph glyph-name="quotedbl" unicode="&#x22;" horiz-adv-x="595" 
d="M600 1460q46 0 34 -61t-28 -127l-63 -268h-47l30 268q6 70 18 129t56 59zM346 1460q46 0 34 -61t-28 -127l-65 -268h-45l30 268q6 70 18 129t56 59z" />
    <glyph glyph-name="numbersign" unicode="#" horiz-adv-x="1282" 
d="M580 946l-207 -463h415l205 463h-413zM1319 1018q20 0 14 -19l-4 -34q-2 -18 -22 -19h-236l-207 -463h209q20 0 17 -18l-9 -35q0 -16 -20 -16h-230l-184 -418q-6 -20 -22 -14l-37 10q-18 6 -8 22l176 400h-416l-184 -418q-6 -20 -23 -14l-37 10q-18 4 -8 22l176 400h-217
q-14 0 -14 16l6 35q6 18 22 18h236l207 463h-209q-16 0 -14 19l4 34q6 18 22 19h228l188 422q6 16 22 12l37 -8q18 -2 11 -23l-183 -403h416l188 422q6 20 23 12l37 -8q16 -3 10 -23l-182 -403h217z" />
    <glyph glyph-name="dollar" unicode="$" horiz-adv-x="1112" 
d="M750 1376q-237 0 -362 -132q-71 -76 -71 -166q-1 -90 27 -124t42 -49q42 -46 239 -125q195 -86 255 -141q83 -80 99 -134t16 -106q0 -182 -134 -286t-337 -127l-30 -172q-2 -18 -21 -19h-35q-16 0 -14 19l31 168q-258 0 -408 67q-18 8 -10 21l22 41q10 16 27 10
q145 -61 373 -62q174 0 312 85t138 251q0 122 -99 192q-70 49 -222 114t-229 122q-76 56 -102 110t-26 126q1 180 137 279t343 116l30 168q4 18 21 18h35q18 0 14 -18l-29 -166q174 -2 310 -63q16 -10 6 -23l-23 -39q-10 -18 -24 -12q-123 57 -301 57z" />
    <glyph glyph-name="percent" unicode="%" horiz-adv-x="1810" 
d="M1632 518q0 230 -200 230q-104 0 -180 -90q-77 -90 -105 -255q-10 -72 -10 -118q0 -225 186 -226q115 0 191 88t108 256q10 72 10 115zM1708 522q0 -68 -10 -119q-35 -201 -133 -309q-97 -108 -233 -106q-136 0 -204 76t-67 217q0 46 10 122q35 201 133 309t232 108
t204 -78q68 -77 68 -220zM764 1147q0 229 -200 229q-104 0 -180 -89t-105 -255q-12 -66 -13 -119q0 -225 187 -225q115 0 191 88t108 256q12 66 12 115zM568 1448q136 0 202 -77q68 -77 68 -220q0 -66 -11 -119q-35 -200 -133 -308t-232 -108t-203 76t-69 217q1 55 13 123
q33 200 131 308t234 108zM393 0h-47q-27 0 -8 20l1135 1399q16 16 30 17h49q8 0 12 -5q3 -6 -5 -16l-1135 -1399q-16 -16 -31 -16z" />
    <glyph glyph-name="ampersand" unicode="&#x26;" horiz-adv-x="1447" 
d="M612 59q295 0 451 152l-438 598q-177 -35 -311 -154t-134 -293q0 -137 116 -220t316 -83zM1249 657h43q21 0 21 -59q0 -215 -146 -389l142 -189q4 -6 0 -13t-13 -7h-53q-25 0 -57 47l-78 105q-186 -168 -498 -168q-236 0 -377 102t-141 282t141 319q141 138 351 179
l-41 56q-94 135 -94 231q-1 151 109 227t282 76t274 -49q20 -10 10 -23l-20 -32q-10 -18 -31 -11q-92 43 -226 43t-226 -54t-93 -173q0 -51 23 -94t76 -117l495 -676q113 137 113 334l-2 31q0 22 16 22z" />
    <glyph glyph-name="quotesingle" unicode="'" horiz-adv-x="342" 
d="M346 1460q46 0 34 -61t-28 -127l-65 -268h-45l30 268q6 70 18 129t56 59z" />
    <glyph glyph-name="parenleft" unicode="(" horiz-adv-x="704" 
d="M211 408q0 278 133 550t356 482q12 12 29 12h43q10 0 11 -6t-5 -10q-215 -199 -348 -472t-133 -556q0 -367 190 -627q8 -18 -12 -19h-43q-20 0 -24 13q-197 275 -197 633z" />
    <glyph glyph-name="parenright" unicode=")" horiz-adv-x="704" 
d="M543 803q0 -277 -133 -549t-357 -479q-12 -12 -28 -13h-43q-25 0 -7 19q215 197 350 470q134 273 134 556q0 180 -52 345t-141 284q-10 16 13 16h43q14 0 24 -12q197 -275 197 -637z" />
    <glyph glyph-name="asterisk" unicode="*" horiz-adv-x="782" 
d="M449 788q-19 0 -25 10q-13 25 55 283q-184 -111 -230 -135t-57 7q-11 30 33 55q8 4 238 110q-37 23 -110 62t-89 49q-35 25 -14 55q25 29 59 4q4 -2 180 -133q29 245 32 259q7 35 40 34q19 0 25 -10q12 -21 -56 -283q184 111 232 135t57 -6q10 -31 -35 -55
q-2 -2 -239 -109q184 -102 198 -112q39 -25 17 -55t-60 -5q-4 2 -180 133q-27 -217 -31 -243q-5 -50 -40 -50z" />
    <glyph glyph-name="plus" unicode="+" horiz-adv-x="1179" 
d="M1069 676h-405l-72 -410q-2 -16 -21 -16h-41q-20 0 -14 16l72 410h-408q-14 0 -14 18l8 37q2 18 21 19h405l72 407q2 16 22 17h41q16 0 15 -17l-74 -407h407q18 0 15 -19l-6 -37q-3 -18 -23 -18z" />
    <glyph glyph-name="comma" unicode="," horiz-adv-x="417" 
d="M72 -221h-21q-16 0 -8 18l74 203h-35q-16 0 -14 18l20 127q6 18 23 19h88q18 0 14 -19l-20 -122q-3 -9 -9 -25l-90 -205q-8 -14 -22 -14z" />
    <glyph glyph-name="hyphen" unicode="-" horiz-adv-x="794" 
d="M684 489h-569q-18 0 -13 17l7 41q4 16 20 16h569q18 0 15 -16l-6 -41q-5 -17 -23 -17z" />
    <glyph glyph-name="period" unicode="." horiz-adv-x="417" 
d="M199 164q18 0 14 -19l-20 -127q-6 -18 -21 -18h-90q-16 0 -14 18l20 127q6 18 23 19h88z" />
    <glyph glyph-name="slash" unicode="/" horiz-adv-x="829" 
d="M961 1436q25 0 10 -23l-942 -1395q-8 -18 -29 -18h-43q-24 0 -10 20l942 1397q10 18 31 19h41z" />
    <glyph glyph-name="zero" unicode="0" horiz-adv-x="1339" 
d="M598 59q227 0 370 169q142 169 199 489q23 135 23 235q0 424 -361 424q-227 0 -370 -169t-199 -488q-25 -133 -24 -236q0 -424 362 -424zM834 1456q218 0 330 -130t112 -374q0 -102 -23 -233q-61 -357 -228 -547t-431 -190q-217 0 -331 130t-113 373q0 115 22 234
q61 354 229 546q169 191 433 191z" />
    <glyph glyph-name="one" unicode="1" horiz-adv-x="847" 
d="M715 1436q18 0 16 -19l-248 -1399q-4 -18 -20 -18h-47q-19 0 -17 18l232 1313l-377 -239q-18 -12 -25 2l-20 32q-8 12 8 23l420 278q20 8 27 9h51z" />
    <glyph glyph-name="two" unicode="2" horiz-adv-x="1253" 
d="M336 997q0 -39 -21 -39h-41q-23 0 -22 39q0 217 146 338t362 121t316 -94q102 -94 102 -236t-78 -296q-58 -109 -203 -258t-417 -326q-93 -61 -134 -88t-127 -80h791q16 0 20 -1t0 -7t-4 -11l-6 -41q-4 -18 -23 -18h-917q-16 0 -17 18l7 35q0 16 18 29q412 251 564 376
q75 60 166 147q272 260 272 507q0 266 -326 266q-196 0 -312 -98t-116 -283z" />
    <glyph glyph-name="three" unicode="3" horiz-adv-x="1134" 
d="M991 1149q0 229 -348 229q-182 0 -348 -69q-20 -10 -25 10l-8 39q-4 8 14 20q188 78 388 78t307 -79q106 -79 106 -225t-87 -254t-228 -142q100 -16 167 -85t66 -194q-1 -239 -163 -367t-408 -128t-397 79q-16 6 -11 19l27 43q10 16 25 10q152 -76 360 -76t344 113
q137 113 137 301q0 242 -325 242h-148q-20 0 -16 18l8 39q7 18 23 18h145q170 0 283 102t112 259z" />
    <glyph glyph-name="four" unicode="4" horiz-adv-x="1292" 
d="M1051 1309l-867 -879h713zM887 0h-47q-20 0 -17 18l60 336h-793q-16 0 -14 19l6 43q2 12 14 26l965 979q18 14 24 15h54q16 0 14 -19l-174 -987h240q18 0 16 -18l-8 -39q0 -18 -21 -19h-239l-60 -336q-2 -18 -20 -18z" />
    <glyph glyph-name="five" unicode="5" horiz-adv-x="1165" 
d="M460 -18q-261 0 -413 79q-18 10 -8 23l24 41q10 16 25 8q162 -76 382 -76t355 129t136 340q0 266 -343 267q-164 0 -300 -48q-48 -16 -59 -16t-23 6l-21 8q-12 6 -8 25q102 352 155 647q6 20 27 21h721q20 0 16 -19l-6 -41q-6 -18 -22 -18h-672q-45 -246 -135 -553
q171 63 359 63t292 -91t105 -249q0 -256 -163 -401t-424 -145z" />
    <glyph glyph-name="six" unicode="6" horiz-adv-x="1259" 
d="M600 57q207 0 338 154t131 354q0 135 -81 218q-82 83 -266 83t-329 -142t-145 -329q0 -135 90 -237t262 -101zM870 1378q-248 0 -416 -204t-216 -590q45 139 177 249q132 109 335 109t306 -104t103 -269q0 -247 -162 -417t-391 -170t-345 130t-116 365q0 100 21 203
q60 356 244 566t464 210q166 0 273 -53q16 -10 10 -21l-24 -39q-11 -16 -25 -12q-104 47 -238 47z" />
    <glyph glyph-name="seven" unicode="7" horiz-adv-x="1116" 
d="M276 1358q-18 0 -14 18l6 41q6 18 23 19h866q18 0 17 -19l-9 -37q0 -4 -20 -32q-253 -279 -487 -661t-300 -669q-2 -18 -20 -18h-51q-21 0 -17 18q74 304 314 694t479 646h-787z" />
    <glyph glyph-name="eight" unicode="8" horiz-adv-x="1218" 
d="M174 296q0 -100 94 -170t276 -71t321 95q140 96 141 262q0 118 -96 192t-259 103q-182 -36 -329 -128q-148 -93 -148 -283zM1102 1157q0 101 -84 163t-252 62t-295 -83t-127 -234q0 -201 322 -281q436 111 436 373zM535 -20q-209 0 -328 90t-119 224t76 231t178 147
t225 73q-137 37 -223 119t-86 208t82 218q148 166 432 166q200 0 308 -82t108 -211q0 -234 -284 -364q-73 -33 -154 -54q152 -31 248 -115t96 -205q0 -120 -52 -207q-90 -152 -312 -213q-95 -25 -195 -25z" />
    <glyph glyph-name="nine" unicode="9" horiz-adv-x="1259" 
d="M748 1376q-209 0 -341 -152t-133 -352q0 -135 81 -219t267 -84q186 -1 331 141q146 142 147 328q0 138 -90 238t-262 100zM479 55q246 0 414 203t215 588q-41 -135 -175 -244q-134 -108 -339 -108t-305 105t-101 271q0 248 162 416t390 168t344 -130q114 -130 114 -366
q0 -94 -18 -204q-60 -356 -240 -566t-461 -208q-172 0 -278 53q-16 6 -11 20l25 39q11 16 27 10q104 -47 237 -47z" />
    <glyph glyph-name="colon" unicode=":" horiz-adv-x="481" 
d="M297 1040h88q20 0 14 -18l-22 -127q0 -18 -21 -18h-88q-16 0 -16 18l24 127q2 18 21 18zM229 164q20 0 17 -19l-23 -127q-2 -18 -20 -18h-88q-21 0 -15 18l21 127q2 18 20 19h88z" />
    <glyph glyph-name="semicolon" unicode=";" horiz-adv-x="481" 
d="M104 -221h-20q-18 0 -10 18l73 203h-32q-20 0 -15 18l21 127q2 18 20 19h88q20 0 17 -19l-21 -122q-2 -13 -10 -25l-88 -205q-8 -14 -23 -14zM297 1040h88q20 0 14 -18l-22 -127q0 -18 -21 -18h-88q-16 0 -16 18l24 127q2 18 21 18z" />
    <glyph glyph-name="less" unicode="&#x3c;" horiz-adv-x="1179" 
d="M193 686q-28 28 8 53l893 578q14 8 24 -4l21 -33q6 -10 -9 -25l-847 -542l655 -545q12 -10 0 -23l-33 -34q-12 -12 -22 -5z" />
    <glyph glyph-name="equal" unicode="=" horiz-adv-x="1179" 
d="M1016 477h-850q-18 0 -14 17l6 38q2 16 22 17h848q16 0 14 -17l-6 -38q-4 -17 -20 -17zM1085 877h-849q-16 0 -15 16l8 37q0 18 21 18h850q14 0 14 -18l-8 -37q-3 -16 -21 -16z" />
    <glyph glyph-name="greater" unicode="&#x3e;" horiz-adv-x="1179" 
d="M1073 739q12 -10 10 -25t-20 -28l-893 -580q-16 -10 -25 5l-18 34q-6 14 8 23l848 545l-655 542q-12 12 0 25l30 33q12 12 25 4z" />
    <glyph glyph-name="question" unicode="?" horiz-adv-x="1036" 
d="M500 377h-41q-20 0 -17 18l17 86q26 143 194 275q70 55 138 114q159 138 159 306q0 203 -307 202q-193 0 -377 -73q-18 -8 -22 10l-11 39q-2 10 17 20q180 82 387 82t304 -77t97 -191t-47 -200t-117 -143t-142 -111q-175 -131 -195 -253l-15 -86q-6 -18 -22 -18zM485 164
q20 0 17 -17l-23 -129q-4 -18 -20 -18h-92q-19 0 -17 18l21 129q6 16 22 17h92z" />
    <glyph glyph-name="at" unicode="@" horiz-adv-x="1851" 
d="M803 -219q-686 0 -686 495q0 195 73 370q151 358 517 506q184 75 395 75q344 0 496 -132t151 -352q0 -263 -130 -458q-65 -95 -173 -153t-248 -58h-100q-27 0 -19 24l58 174q-137 -207 -367 -206q-133 0 -206 72t-72 190q0 242 173 428t431 186q172 0 305 -61
q14 -4 8 -17l-254 -725h51q119 0 212 51q94 52 150 138q118 180 115 415q0 422 -583 422q-387 0 -650 -249t-264 -637q0 -221 148 -329t469 -108q246 0 418 72q14 8 18 -8l8 -31q0 -10 -14 -16q-182 -78 -430 -78zM1092 872q-217 0 -369 -158t-152 -378q1 -94 53 -148
t156 -53q143 -1 252 93t170 270l119 333q-86 41 -229 41z" />
    <glyph glyph-name="A" unicode="A" horiz-adv-x="1318" 
d="M803 1436h53q18 0 23 -21l297 -1397q4 -18 -17 -18h-53q-14 0 -19 16l-88 418h-688l-235 -418q-6 -16 -21 -16h-59q-20 0 -10 18l788 1397q15 21 29 21zM354 512h631l-168 821h-4z" />
    <glyph glyph-name="B" unicode="B" horiz-adv-x="1374" 
d="M610 80q392 0 500 194q45 82 45 202t-94 175t-311 56h-426l-111 -627h397zM612 0h-477q-20 0 -16 18l246 1399q4 18 22 19h463q459 0 459 -291q0 -152 -84 -258t-236 -135q115 -18 183 -86t69 -193q0 -473 -629 -473zM760 784q463 0 463 359q0 113 -89 163t-288 50h-408
l-100 -572h422z" />
    <glyph glyph-name="C" unicode="C" horiz-adv-x="1206" 
d="M686 59q172 0 315 72q18 10 23 -12l12 -39q6 -10 -18 -21q-152 -80 -342 -79q-256 0 -390 136t-134 392q0 98 18 209q62 354 250 547t485 192q209 0 330 -78q16 -8 10 -22l-24 -37q-12 -20 -27 -10q-121 68 -285 67q-264 0 -429 -170t-222 -489q-18 -111 -18 -205
q0 -453 446 -453z" />
    <glyph glyph-name="D" unicode="D" horiz-adv-x="1357" 
d="M696 1356h-258l-225 -1276h260q151 0 261 29q248 65 360 298q61 128 96 318q20 129 20 209q0 236 -129 329t-385 93zM473 0h-338q-20 0 -16 18l246 1399q4 18 22 19h313q293 0 447 -112t153 -380q0 -94 -22 -219q-70 -403 -266 -564t-539 -161z" />
    <glyph glyph-name="E" unicode="E" horiz-adv-x="1093" 
d="M977 696h-655l-109 -616h680q20 0 16 -19l-6 -41q-6 -20 -22 -20h-746q-20 0 -16 18l246 1399q4 18 22 19h741q18 0 17 -19l-8 -43q-6 -18 -23 -18h-676l-102 -582h655q16 0 15 -18l-7 -41q-6 -19 -22 -19z" />
    <glyph glyph-name="F" unicode="F" horiz-adv-x="1062" 
d="M981 690h-659l-117 -672q-6 -18 -23 -18h-47q-20 0 -16 18l246 1399q4 18 22 19h735q20 0 17 -19l-9 -43q-4 -18 -22 -18h-668l-104 -588h657q18 0 17 -18l-9 -41q-2 -19 -20 -19z" />
    <glyph glyph-name="G" unicode="G" horiz-adv-x="1384" 
d="M813 788h440q20 0 19 -18l-117 -655q-4 -27 -37 -47q-172 -88 -426 -88t-398 133q-142 133 -142 393q0 102 20 213q131 737 776 737q225 0 361 -82q16 -10 10 -22l-25 -39q-14 -18 -28 -10q-125 74 -320 73q-291 0 -460 -163t-228 -494q-18 -117 -18 -209
q0 -451 479 -451q207 0 354 72l105 580h-377q-23 0 -19 18l9 41q4 18 22 18z" />
    <glyph glyph-name="H" unicode="H" horiz-adv-x="1411" 
d="M182 0h-47q-20 0 -16 18l246 1399q4 18 22 19h47q20 0 17 -19l-113 -641h844l112 641q4 18 21 19h49q16 0 14 -19l-245 -1399q-2 -18 -21 -18h-49q-20 0 -14 18l118 676h-843l-119 -676q-6 -18 -23 -18z" />
    <glyph glyph-name="I" unicode="I" horiz-adv-x="507" 
d="M446 1436q20 0 17 -19l-246 -1399q-4 -18 -22 -18h-48q-20 0 -16 18l246 1399q6 18 22 19h47z" />
    <glyph glyph-name="J" unicode="J" horiz-adv-x="937" 
d="M901 1436q16 0 14 -19l-180 -1020q-37 -209 -142 -314t-296 -106q-88 0 -170 24t-127 56q-16 14 -8 27l24 39q8 23 27 8q102 -74 254 -74q297 0 354 346l180 1014q4 18 21 19h49z" />
    <glyph glyph-name="K" unicode="K" horiz-adv-x="1183" 
d="M1253 1436q13 0 15 -10t-8 -17l-861 -647l635 -735q10 -7 7 -17t-15 -10h-55q-18 0 -35 16l-608 701l-123 -699q-6 -18 -23 -18h-47q-20 0 -16 18l246 1399q4 18 22 19h47q20 0 17 -19l-109 -604l807 608q25 14 35 15h69z" />
    <glyph glyph-name="L" unicode="L" horiz-adv-x="1060" 
d="M885 80q16 0 14 -19l-6 -43q-4 -18 -23 -18h-735q-20 0 -16 18l246 1399q4 18 22 19h47q21 -1 17 -19l-238 -1337h672z" />
    <glyph glyph-name="M" unicode="M" horiz-adv-x="1599" 
d="M798 444q-20 0 -30 19l-342 827l-223 -1272q-2 -18 -21 -18h-47q-20 0 -16 18l246 1399q4 18 22 19h53q20 0 23 -15l354 -852l651 852q14 14 29 15h55q20 0 17 -19l-246 -1399q-6 -18 -23 -18h-47q-20 0 -16 18l223 1272l-631 -827q-11 -19 -31 -19z" />
    <glyph glyph-name="N" unicode="N" horiz-adv-x="1413" 
d="M1114 0h-49q-20 0 -29 14l-608 1282l-225 -1278q-2 -18 -21 -18h-47q-20 0 -16 18l246 1399q4 18 22 19h49q20 0 27 -15l610 -1284l225 1280q4 18 21 19h47q18 -1 16 -19l-245 -1399q-6 -18 -23 -18z" />
    <glyph glyph-name="O" unicode="O" horiz-adv-x="1429" 
d="M641 57q254 0 409 170t212 490q20 133 20 219q0 440 -408 440q-252 0 -408 -170t-212 -489q-20 -111 -21 -217q0 -443 408 -443zM879 1456q243 0 367 -134t124 -384q0 -96 -22 -221q-64 -353 -242 -545t-467 -192q-242 0 -367 135t-125 385q0 100 19 217q64 355 244 547
t469 192z" />
    <glyph glyph-name="P" unicode="P" horiz-adv-x="1275" 
d="M182 0h-47q-20 0 -16 18l246 1397q4 20 22 21h342q266 0 391 -84t125 -271q0 -57 -12 -131q-45 -260 -196 -372t-455 -111h-299l-78 -449q-7 -18 -23 -18zM584 547q266 0 395 91t168 312q10 76 10 121q0 153 -101 219t-329 66h-289l-141 -809h287z" />
    <glyph glyph-name="Q" unicode="Q" horiz-adv-x="1429" 
d="M641 57q502 0 621 662q20 111 20 217q0 440 -408 440q-252 0 -408 -169t-212 -488q-20 -133 -21 -219q0 -443 408 -443zM1100 -90q12 0 12 -8v-11l-6 -34q-2 -25 -64 -25q-299 0 -460 152q-211 10 -323 144t-112 374q0 102 21 217q62 353 242 545t469 192q241 0 367 -134
t126 -384q0 -96 -22 -219q-58 -329 -226 -519t-432 -208q133 -84 334 -84l59 2h15z" />
    <glyph glyph-name="R" unicode="R" horiz-adv-x="1292" 
d="M387 1436h361q262 0 389 -82t127 -256q0 -47 -11 -113q-39 -213 -168 -317t-368 -121l364 -520q12 -27 -16 -27h-47q-18 0 -29 14l-364 525h-330l-90 -521q-6 -18 -23 -18h-47q-20 0 -16 18l246 1399q4 19 22 19zM612 618q262 0 390 86t163 283q10 57 11 100
q0 141 -104 205t-329 64h-305l-129 -738h303z" />
    <glyph glyph-name="S" unicode="S" horiz-adv-x="1089" 
d="M973 410q0 -205 -157 -317q-156 -111 -400 -111t-371 61q-16 10 -10 23l24 40q6 18 25 11q129 -57 362 -57t366 146q73 81 73 179t-38 144t-65 65l-39 26t-44 25t-44 23t-90 41q-149 67 -227 127q-102 79 -100 215q0 201 141 303t354 102t340 -57q16 -6 10 -23l-22 -41
q-10 -16 -27 -10q-113 51 -291 51t-300 -76t-121 -243q0 -75 26 -106q26 -32 45 -55t150 -83t200 -96q68 -35 85 -50q16 -15 54 -47t51 -60q40 -86 40 -150z" />
    <glyph glyph-name="T" unicode="T" horiz-adv-x="1067" 
d="M1151 1436q20 0 14 -19l-6 -43q-6 -18 -22 -18h-406l-233 -1338q-6 -18 -23 -18h-47q-18 0 -16 18l235 1338h-405q-21 0 -15 18l9 43q2 18 20 19h895z" />
    <glyph glyph-name="U" unicode="U" horiz-adv-x="1388" 
d="M618 -25q-440 0 -440 383q0 63 12 138l162 921q4 18 23 19h47q20 0 16 -19l-162 -917q-12 -70 -12 -133q0 -313 357 -314q424 0 501 447l162 917q2 18 21 19h49q18 0 14 -19l-162 -921q-90 -521 -588 -521z" />
    <glyph glyph-name="V" unicode="V" horiz-adv-x="1294" 
d="M594 0h-57q-23 0 -25 20l-264 1393q-4 23 18 23h49q16 0 21 -19l180 -952l64 -371h2l190 371l518 952q8 18 25 19h53q20 0 12 -23l-755 -1393q-11 -20 -31 -20z" />
    <glyph glyph-name="W" unicode="W" horiz-adv-x="2019" 
d="M1151 1436h57q23 0 23 -19l108 -919l41 -410h4l181 401l434 928q8 18 26 19h50q23 0 12 -25l-655 -1388q-10 -23 -31 -23h-64q-23 0 -24 20l-117 961l-35 340h-4l-151 -340l-459 -961q-6 -20 -29 -20h-63q-20 0 -27 23l-164 1388q-4 25 19 25h51q18 0 18 -19l109 -928
l39 -399h4l184 408l432 919q11 19 31 19z" />
    <glyph glyph-name="X" unicode="X" horiz-adv-x="1232" 
d="M61 0h-57q-10 0 -12 7t4 16l616 702l-356 688q-8 23 14 23h54q18 0 22 -15l324 -628l544 628q14 14 29 15h60q23 0 8 -23l-602 -688l370 -702q8 -23 -14 -23h-51q-18 0 -29 16l-332 643l-561 -643q-14 -16 -31 -16z" />
    <glyph glyph-name="Y" unicode="Y" horiz-adv-x="1253" 
d="M569 0h-49q-20 0 -14 18l92 525l-352 870q-10 21 16 23h49q18 0 23 -17l229 -569l88 -232l168 232l430 569q16 16 29 17h55q23 0 8 -23l-659 -870l-92 -525q-4 -18 -21 -18z" />
    <glyph glyph-name="Z" unicode="Z" horiz-adv-x="1169" 
d="M315 1356q-20 0 -16 18l8 43q6 18 23 19h852q18 0 14 -19l-8 -41q-2 -18 -17 -35l-1011 -1261h790q20 0 17 -19l-9 -43q-4 -18 -20 -18h-877q-20 0 -16 18l6 41q4 14 21 35l1013 1262h-770z" />
    <glyph glyph-name="bracketleft" unicode="[" horiz-adv-x="704" 
d="M444 -225h-290q-20 0 -15 18l287 1624q4 18 20 19h291q16 0 15 -19l-9 -35q0 -18 -20 -18h-227l-269 -1520h230q14 0 14 -16l-6 -35q-6 -18 -21 -18z" />
    <glyph glyph-name="backslash" unicode="\" horiz-adv-x="829" 
d="M707 0h-37q-23 0 -25 18l-450 1395q-8 23 16 23h37q20 -1 24 -19l451 -1397q4 -20 -16 -20z" />
    <glyph glyph-name="bracketright" unicode="]" horiz-adv-x="706" 
d="M31 -156h229l266 1520h-227q-16 0 -16 18l6 35q6 18 22 19h289q20 0 14 -19l-286 -1624q-4 -18 -21 -18h-289q-18 0 -16 18l6 35q2 16 23 16z" />
    <glyph glyph-name="asciicircum" unicode="^" horiz-adv-x="1179" 
d="M741 1436h37q18 0 23 -17l282 -698q10 -23 -16 -23h-41q-18 0 -27 17l-251 635l-478 -635q-16 -16 -32 -17h-45q-27 0 -9 23l529 698q12 17 28 17z" />
    <glyph glyph-name="underscore" unicode="_" horiz-adv-x="946" 
d="M768 -166h-815q-14 0 -12 19l4 28q2 18 20 19h813q20 0 15 -19l-5 -28q-2 -19 -20 -19z" />
    <glyph glyph-name="grave" unicode="`" horiz-adv-x="665" 
d="M580 1194h-23q-14 0 -29 14l-161 187q-6 8 -2 17t14 9h67q23 0 33 -20l115 -184q8 -23 -14 -23z" />
    <glyph glyph-name="a" unicode="a" horiz-adv-x="1093" 
d="M375 53q193 0 315 97t148 247l26 144q-297 -6 -389 -21q-340 -55 -342 -287q1 -82 61 -131t181 -49zM829 0h-41q-20 0 -14 18l33 191q-141 -225 -440 -225q-152 0 -234 68t-82 177q0 287 393 351q109 18 422 26h11l16 99q8 43 8 90q0 102 -61 149t-222 47t-331 -71
q-16 -4 -21 10l-6 39q-4 14 14 20q184 76 371 76q336 0 336 -268q0 -48 -8 -95l-121 -684q-6 -18 -23 -18z" />
    <glyph glyph-name="b" unicode="b" horiz-adv-x="1226" 
d="M164 0h-45q-20 0 -15 18l246 1399q2 18 21 19h45q20 0 14 -19l-106 -606q143 254 432 254q182 0 282 -102t101 -291q0 -76 -15 -150q-45 -262 -184 -402t-352 -140q-147 0 -245 63q-97 63 -122 186l-37 -211q-6 -18 -20 -18zM260 383q0 -330 320 -330q186 0 304 119
t156 350q14 74 15 150q0 319 -310 319q-188 0 -311 -121t-162 -348q-12 -59 -12 -139z" />
    <glyph glyph-name="c" unicode="c" horiz-adv-x="985" 
d="M680 1065q178 0 281 -66q14 -10 6 -22l-21 -37q-12 -16 -28 -8q-90 59 -234 59q-190 0 -314 -120t-165 -347q-12 -59 -12 -139q-1 -162 81 -247t238 -85t272 64q20 10 25 -8l8 -39q0 -12 -16 -21q-131 -69 -304 -69t-281 106t-107 299q0 65 12 139q45 260 191 400
t368 141z" />
    <glyph glyph-name="d" unicode="d" horiz-adv-x="1226" 
d="M659 1065q145 0 243 -67t122 -187l106 606q6 18 21 19h45q20 0 16 -19l-247 -1399q-2 -18 -21 -18h-45q-18 0 -14 18l37 213q-139 -252 -430 -251q-182 0 -284 102q-101 102 -102 293q0 74 15 147q49 264 186 404t352 139zM987 662q1 329 -335 329q-172 0 -290 -119
t-157 -350q-14 -74 -15 -149q0 -319 310 -320q188 0 311 121t162 348q14 72 14 140z" />
    <glyph glyph-name="e" unicode="e" horiz-adv-x="1112" 
d="M952 694q0 141 -70 220q-72 79 -236 79q-164 -1 -279 -113t-158 -327h729q14 63 14 141zM533 47q168 0 307 70q20 10 24 -11l8 -34q2 -10 -16 -21q-156 -76 -342 -76q-186 -1 -296 105t-109 301q0 72 14 143q45 258 184 400t357 141q180 0 274 -101t94 -274
q0 -55 -12 -121l-12 -67q-2 -18 -21 -19h-790q-8 -47 -9 -100q0 -158 88 -247t257 -89z" />
    <glyph glyph-name="f" unicode="f" horiz-adv-x="669" 
d="M694 1040q18 0 15 -18l-7 -37q-2 -18 -20 -18h-274l-168 -949q-2 -18 -21 -18h-43q-20 0 -16 18l168 949h-170q-18 0 -15 18l7 37q2 18 20 18h170l20 117q51 291 291 291q88 0 135 -21q14 -4 11 -18l-11 -35q-8 -18 -22 -14q-41 16 -109 16q-178 0 -215 -225l-20 -111
h274z" />
    <glyph glyph-name="g" unicode="g" horiz-adv-x="1163" 
d="M883 322q-133 -238 -419 -238q-149 0 -247 95t-98 270q0 57 12 124q41 238 172 365t328 127q131 0 225 -61t117 -166l33 184q2 18 20 18h43q20 0 14 -18l-153 -877q-33 -197 -159 -296t-334 -99t-335 70q-16 8 -8 18l21 39q10 14 26 10q129 -63 303 -63q348 0 408 328z
M940 702q0 144 -78 218t-234 74t-268 -107q-111 -106 -147 -314q-10 -55 -10 -124q0 -293 289 -293q170 0 286 114t150 318q12 61 12 114z" />
    <glyph glyph-name="h" unicode="h" horiz-adv-x="1187" 
d="M922 0h-43q-18 0 -17 18l119 672q8 57 8 80q0 219 -258 219q-164 0 -287 -97t-149 -245l-111 -629q-4 -18 -20 -18h-45q-20 0 -15 18l246 1399q2 18 21 19h45q20 0 14 -19l-100 -579q51 92 154 160q104 68 264 67q160 0 242 -75t81 -208q0 -27 -8 -84l-121 -680
q-4 -18 -20 -18z" />
    <glyph glyph-name="i" unicode="i" horiz-adv-x="442" 
d="M328 1202q-16 0 -15 19l31 174q4 18 21 18h45q16 0 14 -18l-31 -174q-4 -18 -20 -19h-45zM162 0h-45q-20 0 -15 18l177 1004q4 18 20 18h45q16 0 14 -18l-176 -1004q-6 -18 -20 -18z" />
    <glyph glyph-name="j" unicode="j" horiz-adv-x="456" 
d="M344 1202q-16 0 -16 19l30 174q6 18 21 18h45q18 0 16 -18l-30 -174q-4 -18 -23 -19h-43zM313 1040h45q20 0 15 -18l-178 -1012q-19 -123 -73 -183t-155 -60q-63 0 -106 12q-16 6 -11 20l11 39q3 16 35 9t84 -7q106 0 137 178l176 1004q6 18 20 18z" />
    <glyph glyph-name="k" unicode="k" horiz-adv-x="950" 
d="M813 0h-57q-14 0 -27 12l-453 525l-92 -519q-4 -18 -20 -18h-45q-20 0 -15 18l246 1399q2 18 21 19h45q20 0 14 -19l-135 -772l571 385q14 10 29 10h78q12 0 13 -7t-11 -15l-643 -432l493 -563q6 -7 2 -15t-14 -8z" />
    <glyph glyph-name="l" unicode="l" horiz-adv-x="442" 
d="M162 0h-45q-20 0 -15 18l246 1399q4 18 21 19h45q16 -1 14 -19l-246 -1399q-6 -18 -20 -18z" />
    <glyph glyph-name="m" unicode="m" horiz-adv-x="1818" 
d="M854 0h-43q-20 0 -16 18l120 684q8 41 9 84q0 203 -228 203q-152 0 -268 -93t-139 -239l-113 -639q-4 -18 -20 -18h-45q-20 0 -15 18l176 1004q2 18 21 18h45q18 0 14 -18l-30 -176q43 86 143 152q101 66 241 67q140 0 214 -59t77 -168q133 227 412 227q145 0 219 -71
t74 -197q0 -49 -8 -90l-121 -689q-4 -18 -21 -18h-43q-18 0 -16 18l121 682q8 41 8 84q0 205 -227 205q-153 0 -267 -89t-139 -230l-115 -652q-2 -18 -20 -18z" />
    <glyph glyph-name="n" unicode="n" horiz-adv-x="1173" 
d="M907 0h-43q-20 0 -16 18l119 674q8 39 8 82q0 215 -254 215q-164 0 -286 -96t-150 -246l-111 -629q-2 -18 -20 -18h-43q-20 0 -17 18l176 1004q6 18 23 18h43q16 0 14 -18l-31 -182q135 225 418 225q158 0 239 -74t81 -205q0 -47 -8 -88l-121 -680q-2 -18 -21 -18z" />
    <glyph glyph-name="o" unicode="o" horiz-adv-x="1167" 
d="M525 53q173 0 295 120t161 349q12 76 12 142q0 328 -317 327q-190 0 -310 -120t-161 -349q-14 -72 -15 -141q0 -328 335 -328zM524 -20q-206 0 -312 104q-105 104 -106 297q0 51 15 141q47 260 190 402t350 141q207 0 311 -104t105 -295q0 -53 -14 -144
q-45 -260 -189 -401t-350 -141z" />
    <glyph glyph-name="p" unicode="p" horiz-adv-x="1218" 
d="M748 1065q182 0 281 -102t99 -293q0 -68 -12 -148q-45 -262 -184 -402t-352 -140q-147 0 -245 63q-97 63 -122 186l-78 -436q-4 -18 -20 -18h-45q-16 0 -15 18l217 1229q2 18 21 18h43q20 0 16 -18l-37 -211q139 254 433 254zM252 383q0 -330 334 -330q170 0 290 119
q118 119 156 350q14 74 15 150q0 319 -310 319q-188 0 -311 -121t-162 -348q-12 -59 -12 -139z" />
    <glyph glyph-name="q" unicode="q" horiz-adv-x="1218" 
d="M1081 1040h45q16 0 15 -18l-217 -1229q-2 -18 -21 -18h-45q-18 0 -14 18l76 436q-133 -250 -428 -249q-182 0 -284 102q-101 102 -102 293q0 74 15 147q47 262 185 402t353 141q145 -1 243 -67t122 -187l37 211q4 18 20 18zM987 662q1 329 -335 329q-172 0 -290 -119
t-157 -350q-14 -74 -15 -149q0 -319 310 -320q188 0 311 121t162 348q14 72 14 140z" />
    <glyph glyph-name="r" unicode="r" horiz-adv-x="704" 
d="M156 0h-45q-20 0 -15 18l176 1004q3 18 21 18h45q18 0 14 -18l-43 -246q47 98 160 186t252 87q16 0 14 -17l-10 -53q0 -16 -18 -16l-31 2q-131 0 -254 -125t-150 -279l-96 -543q-4 -18 -20 -18z" />
    <glyph glyph-name="s" unicode="s" horiz-adv-x="913" 
d="M780 293q0 -156 -118 -235q-118 -78 -306 -78t-325 59q-14 8 -8 20l20 37q6 18 23 10q135 -55 283 -55q147 1 249 57t102 183q0 87 -80 134q-62 38 -158 76t-132 54t-83 49q-93 64 -91 172q0 145 106 217t284 72t298 -57q14 -6 6 -21l-19 -37q-10 -14 -24 -8
q-121 51 -268 51q-79 0 -141 -16q-62 -17 -111 -67t-49 -134t106 -141q29 -15 122 -53t132 -58q126 -65 161 -133q21 -43 21 -98z" />
    <glyph glyph-name="t" unicode="t" horiz-adv-x="694" 
d="M262 184q0 -122 136 -123q62 0 139 15q18 2 18 -15l4 -34q2 -14 -16 -19q-61 -20 -155 -20q-206 0 -208 198q0 39 10 105l121 676h-170q-20 0 -14 18l4 37q6 18 23 18h172l49 287q6 18 22 19h41q20 0 15 -19l-50 -287h304q20 0 14 -18l-4 -37q-7 -18 -23 -18h-303
l-119 -670q-10 -51 -10 -113z" />
    <glyph glyph-name="u" unicode="u" horiz-adv-x="1157" 
d="M279 1040h45q16 0 14 -18l-117 -655q-8 -61 -8 -86q0 -225 254 -226q159 -1 277 95t145 245l110 627q4 18 21 18h45q16 0 14 -18l-176 -1004q-6 -18 -20 -18h-45q-20 0 -15 18l33 187q-129 -225 -401 -225q-160 0 -241 74t-81 208q0 51 8 94l117 666q4 18 21 18z" />
    <glyph glyph-name="v" unicode="v" horiz-adv-x="968" 
d="M430 0h-55q-16 0 -21 16l-192 1004q0 20 16 20h45q14 0 19 -16l112 -580l60 -352h4l184 352l316 580q10 16 22 16h53q23 0 8 -20l-548 -1004q-7 -16 -23 -16z" />
    <glyph glyph-name="w" unicode="w" horiz-adv-x="1579" 
d="M862 1040h51q14 0 19 -16l108 -752l21 -184h4l82 184l362 752q10 16 23 16h49q20 0 10 -20l-489 -1004q-6 -16 -23 -16h-53q-16 0 -20 16l-109 723l-23 201h-6l-92 -201l-364 -723q-4 -16 -23 -16h-53q-16 0 -21 16l-135 1004q0 20 19 20h45q16 0 16 -16l98 -752l17 -184
h4l88 184l371 752q10 16 24 16z" />
    <glyph glyph-name="x" unicode="x" horiz-adv-x="966" 
d="M930 1040h53q25 0 6 -22l-450 -490l286 -505q10 -23 -12 -23h-51q-12 0 -23 12l-252 459l-417 -459q-10 -12 -25 -12h-55q-25 0 -6 23l465 505l-279 490q-10 23 12 22h51q13 0 23 -12l246 -442l401 442q12 12 27 12z" />
    <glyph glyph-name="y" unicode="y" horiz-adv-x="968" 
d="M168 -233q-94 0 -145 18q-16 4 -11 20l19 37q6 14 22 13q43 -14 103 -15q100 0 165 77t48 151l-205 952q-4 20 16 20h47q16 0 17 -16l125 -582l65 -350h4l176 350l304 582q10 16 24 16h51q25 0 11 -20l-523 -985q-76 -147 -147 -208q-72 -60 -166 -60z" />
    <glyph glyph-name="z" unicode="z" horiz-adv-x="968" 
d="M766 74q18 0 16 -17l-6 -39q-6 -18 -22 -18h-709q-20 0 -16 18l6 33q4 14 12 23l784 893h-604q-18 0 -16 16l6 39q4 18 23 18h694q20 0 16 -18l-6 -33q-2 -12 -12 -24l-787 -891h621z" />
    <glyph glyph-name="braceleft" unicode="{" horiz-adv-x="704" 
d="M154 643h32q80 0 132 99q52 98 90 310t97 298q58 86 200 86h67q23 0 19 -19l-9 -37q-4 -18 -22 -18h-55q-105 0 -147 -69t-75 -251q-68 -395 -215 -438q86 -27 86 -203q0 -90 -24 -231q-24 -142 -23 -200q0 -124 131 -124h54q20 0 18 -18l-6 -35q-6 -18 -25 -18h-59
q-102 0 -147 46q-44 46 -44 133t24 217t23 222q0 174 -102 174h-33q-18 1 -14 17l6 41q2 18 21 18z" />
    <glyph glyph-name="bar" unicode="|" horiz-adv-x="514" 
d="M297 1454v-1661q0 -18 -18 -18h-41q-18 0 -19 18v1661q0 18 19 19h41q18 -1 18 -19z" />
    <glyph glyph-name="braceright" unicode="}" horiz-adv-x="704" 
d="M565 567q-152 0 -221 -407q-39 -213 -97 -299t-198 -86h-69q-20 0 -17 18l6 35q2 18 25 18h53q104 0 147 70q42 70 74 252q70 393 217 436q-88 27 -88 205q0 88 24 220q23 132 23 201q0 68 -30 100t-101 32h-53q-23 0 -18 18l8 37q4 18 22 19h62q102 0 146 -46t44 -134
t-24 -216q-24 -130 -23 -223q0 -174 101 -174h32q17 0 15 -18l-7 -41q-4 -16 -20 -17h-33z" />
    <glyph glyph-name="asciitilde" unicode="~" horiz-adv-x="1177" 
d="M426 827q66 0 182 -47l86 -35q109 -43 162 -43t107 62q8 8 30 49q6 18 29 8l25 -14q12 -8 6 -27q-70 -160 -213 -159q-68 0 -181 47l-88 34q-107 43 -161 43t-107 -61q-14 -16 -29 -49q-10 -20 -28 -8l-27 14q-12 8 -4 25q31 76 88 118t123 43z" />
    <glyph glyph-name="uni00A0" unicode="&#xa0;" horiz-adv-x="0" 
 />
    <glyph glyph-name="exclamdown" unicode="&#xa1;" horiz-adv-x="534" 
d="M283 664h36q16 0 15 -19l-135 -852q-2 -18 -23 -18h-63q-18 0 -17 18l166 852q5 19 21 19zM293 874q-16 0 -17 19l23 129q6 18 23 18h92q16 0 14 -18l-22 -129q-4 -18 -21 -19h-92z" />
    <glyph glyph-name="cent" unicode="&#xa2;" horiz-adv-x="1019" 
d="M717 1245h35q18 0 16 -18l-31 -162q158 -8 252 -70q14 -6 8 -20l-22 -35q-12 -18 -27 -10q-94 61 -248 61q-200 0 -328 -122t-167 -349q-14 -70 -15 -135q0 -164 86 -248t253 -84t284 64q20 8 25 -8l8 -37q4 -10 -15 -21q-121 -63 -284 -69l-29 -168q-2 -18 -22 -19h-33
q-20 0 -14 19l28 168q-174 8 -271 112t-97 287q0 65 12 139q43 248 185 390t362 155l28 162q6 18 21 18z" />
    <glyph glyph-name="sterling" unicode="&#xa3;" horiz-adv-x="1341" 
d="M178 694q-18 0 -14 19l6 35q4 16 20 16h187q-55 150 -55 227q0 217 163 341t379 124t318 -84t102 -211t-33 -127h-51q-14 0 -14 15q0 8 8 42t8 64q0 99 -81 161t-260 62t-315 -103t-136 -278q0 -78 57 -233h469q18 0 16 -16l-6 -35q-6 -18 -22 -19h-437q37 -102 37 -188
q0 -150 -89 -258t-216 -162q109 31 204 31t231 -27t243 -27t159 65t77 189q4 20 24 21h35q20 0 18 -23q-28 -163 -98 -245t-233 -82q-99 0 -231 28t-230 27q-193 0 -340 -57q-23 -8 -25 4l-16 41q-6 14 10 20q178 70 286 185t107 266q0 88 -43 192h-219z" />
    <glyph glyph-name="currency" unicode="&#xa4;" horiz-adv-x="1280" 
d="M1004 580q0 170 -96 264t-270 94q-173 0 -269 -94q-97 -94 -97 -264t98 -264t269 -95q173 1 269 95t96 264zM199 580q0 184 98 292l-121 121q-12 14 0 27l25 22q14 14 24 0l123 -120q111 88 292 88t290 -90l125 122q12 14 24 0l25 -22q14 -12 0 -27l-125 -123
q98 -112 98 -292t-98 -289l125 -123q12 -12 0 -27l-25 -22q-10 -14 -24 0l-125 123q-104 -90 -290 -90t-292 90l-123 -123q-12 -14 -24 0l-25 22q-12 13 0 27l121 119q-98 111 -98 295z" />
    <glyph glyph-name="yen" unicode="&#xa5;" horiz-adv-x="1280" 
d="M582 0h-47q-18 0 -17 18l66 379h-432q-14 0 -15 19l6 33q4 18 21 18h432l12 61l-69 166h-334q-16 0 -15 19l7 32q4 18 20 19h295l-274 649q-8 23 16 23h49q16 0 25 -17l336 -811h2l618 811q16 16 31 17h53q23 0 8 -23l-504 -649h295q16 0 15 -19l-4 -32q-6 -18 -23 -19
h-332l-131 -166l-10 -61h432q20 0 14 -18l-4 -33q-2 -18 -22 -19h-432l-66 -379q-6 -18 -22 -18z" />
    <glyph glyph-name="brokenbar" unicode="&#xa6;" horiz-adv-x="514" 
d="M297 430v-637q0 -18 -18 -18h-41q-18 0 -19 18v637q0 18 19 19h41q18 -1 18 -19zM297 1454v-637q0 -18 -18 -18h-41q-18 0 -19 18v637q0 18 19 19h41q18 -1 18 -19z" />
    <glyph glyph-name="section" unicode="&#xa7;" horiz-adv-x="1435" 
d="M348 621q0 -86 133 -156q55 -29 258 -111q180 5 315 100q76 54 76 135t-100 144t-297 139q-197 -5 -314 -105q-71 -60 -71 -146zM1210 590q0 -223 -391 -283q233 -109 234 -260q0 -84 -47 -143q-109 -137 -491 -137q-222 0 -304 30q-16 4 -14 27l4 31q6 18 26 14
q187 -33 287 -33q317 0 412 97q45 46 45 103q1 57 -23 86q-24 28 -38 44t-45 34q-30 18 -46 29q-16 9 -54 27t-52 24q-13 6 -55 24q-321 132 -371 223q-21 38 -21 87q0 133 115 211t270 97q-211 109 -211 243q0 287 467 287q195 0 359 -45q18 -4 16 -23l-6 -32
q-2 -18 -25 -15q-154 43 -342 43q-387 0 -387 -217q0 -70 81 -128t256 -133q175 -76 263 -144t88 -168z" />
    <glyph glyph-name="dieresis" unicode="&#xa8;" horiz-adv-x="665" 
d="M662 1194h-56q-20 0 -14 18l24 144q2 18 21 18h55q17 0 15 -18l-25 -144q-6 -18 -20 -18zM315 1194h-55q-18 0 -14 18l24 144q6 18 23 18h53q20 0 14 -18l-24 -144q-4 -18 -21 -18z" />
    <glyph glyph-name="copyright" unicode="&#xa9;" horiz-adv-x="1705" 
d="M131 744q0 176 77 340t244 268t400 104q348 0 536 -213t187 -526q0 -313 -187 -525t-536 -212q-176 0 -316 59t-228 163q-177 210 -177 542zM195 718q0 -398 289 -581q153 -96 368 -96q319 0 489 195t170 481q0 400 -289 581q-153 96 -369 96t-369 -96
q-289 -181 -289 -580zM559 724q1 -170 89 -266t223 -96t229 50q14 6 18 -9l15 -34q2 -8 -9 -17q-102 -57 -245 -57q-180 0 -289 113q-109 114 -109 316t110 314t290 111q139 0 237 -55q10 -8 8 -17l-14 -37q-8 -14 -18 -8q-86 49 -222 49t-225 -94q-88 -94 -88 -263z" />
    <glyph glyph-name="ordfeminine" unicode="&#xaa;" horiz-adv-x="921" 
d="M467 987q-127 0 -198 56t-70 143q0 256 383 303q78 8 313 14l14 82q6 41 6 72q0 82 -51 120q-50 38 -182 38t-279 -60q-20 -8 -24 8l-6 35q-4 10 14 21q160 63 313 63q291 0 291 -221q0 -35 -6 -74l-100 -565q-4 -23 -27 -23h-29q-22 0 -18 23l23 133
q-111 -168 -367 -168zM821 1440q-547 0 -547 -250q0 -61 52 -100t153 -39q161 -1 263 77t122 199l21 113h-64z" />
    <glyph glyph-name="guillemotleft" unicode="&#xab;" horiz-adv-x="749" 
d="M637 829h41q25 0 6 -22l-221 -272l125 -275q10 -23 -15 -22h-41q-16 0 -22 14l-123 272q-3 9 4 21l217 270q14 14 29 14zM348 829h39q27 0 8 -22l-221 -275l123 -272q14 -23 -14 -22h-39q-14 0 -23 14l-123 272q-2 6 2 21l219 270q14 14 29 14z" />
    <glyph glyph-name="logicalnot" unicode="&#xac;" horiz-adv-x="1181" 
d="M961 332h-43q-20 0 -15 18l55 326h-778q-16 0 -14 18l8 39q2 16 21 17h839q17 -1 15 -17l-68 -383q-2 -18 -20 -18z" />
    <glyph glyph-name="uni00AD" unicode="&#xad;" horiz-adv-x="792" 
d="M684 489h-569q-18 0 -13 17l7 41q4 16 20 16h569q18 0 15 -16l-6 -41q-5 -17 -23 -17z" />
    <glyph glyph-name="registered" unicode="&#xae;" horiz-adv-x="940" 
d="M340 909v379q0 12 12 12h125q170 0 170 -126q0 -117 -115 -123l109 -140q10 -14 -6 -14h-35q-8 0 -16 8l-107 142h-88v-138q0 -12 -10 -12h-27q-12 0 -12 12zM471 774q149 0 225 92t76 228t-76 227q-76 92 -226 92t-226 -92t-76 -227q0 -136 76 -228t227 -92zM470 1456
q171 0 259 -103t88 -259t-88 -259t-259 -103t-259 102q-88 104 -88 260t88 259t259 103zM389 1090h78q73 0 101 18t28 64t-28 66q-28 19 -95 19h-84v-167z" />
    <glyph glyph-name="macron" unicode="&#xaf;" horiz-adv-x="665" 
d="M723 1212h-518q-16 0 -15 19l5 31q4 16 22 16h518q14 0 15 -16l-7 -31q-2 -19 -20 -19z" />
    <glyph glyph-name="degree" unicode="&#xb0;" horiz-adv-x="708" 
d="M456 934q-118 0 -178 59t-60 169t86 201t204 91t178 -58t62 -151q0 -129 -86 -220q-88 -91 -206 -91zM678 1222q0 171 -170 171q-86 0 -154 -70t-67 -172q0 -70 43 -112t129 -42q87 0 153 70t66 155z" />
    <glyph glyph-name="plusminus" unicode="&#xb1;" horiz-adv-x="1179" 
d="M952 0h-889q-18 0 -16 18l6 33q4 18 21 19h889q20 0 16 -19l-6 -33q-3 -18 -21 -18zM1073 688h-407l-72 -409q-4 -16 -19 -17h-43q-18 0 -14 17l72 409h-408q-14 0 -14 17l8 38q4 18 21 19h405l72 405q2 18 22 19h41q14 0 15 -19l-72 -405h405q20 0 15 -19l-6 -38
q-5 -17 -21 -17z" />
    <glyph glyph-name="two.superior" unicode="&#xb2;" 
d="M389 1595q0 -33 -24 -32h-31q-20 0 -21 26q1 137 93 216t232 79t202 -61t63 -153q0 -184 -191 -343q-144 -119 -337 -235q-27 -14 -39 -23h465q18 0 16 -22l-2 -25q-2 -23 -27 -23h-567q-18 0 -16 23l2 25q2 14 18 22q18 12 85 53q67 42 100 62t96 64t99 75
q118 102 169 180t51 164q0 147 -188 148q-109 0 -179 -58t-69 -162z" />
    <glyph glyph-name="three.superior" unicode="&#xb3;" 
d="M543 1419h-92q-23 0 -21 23l6 24q2 23 25 23h94q96 0 164 55t67 144q0 127 -200 127q-109 0 -224 -43q-25 -10 -30 8l-6 28q-6 14 18 25q106 51 242 51t208 -51q70 -51 70 -136t-49 -149t-125 -92q125 -43 125 -180t-106 -213t-258 -76t-258 53q-20 8 -11 25l17 29
q12 20 28 12q109 -49 227 -49t200 60t81 167q1 135 -192 135z" />
    <glyph glyph-name="acute" unicode="&#xb4;" horiz-adv-x="665" 
d="M551 1421h70q16 0 12 -15q-2 -7 -8 -11l-224 -187q-18 -14 -32 -14h-27q-8 0 -10 8t6 15l172 184q20 20 41 20z" />
    <glyph glyph-name="mu" unicode="&#xb5;" horiz-adv-x="1163" 
d="M551 -25q-158 0 -242 69t-102 157l-72 -408q-4 -18 -20 -18h-45q-16 0 -15 18l217 1229q2 18 21 18h45q18 0 14 -18l-110 -631q-6 -35 -6 -65q0 -123 85 -199t222 -76q297 0 354 311l117 660q2 18 20 18h45q19 0 15 -18l-117 -668q-66 -379 -426 -379z" />
    <glyph glyph-name="paragraph" unicode="&#xb6;" horiz-adv-x="985" 
d="M1092 1368h-78q-63 0 -92 -26t-41 -91l-226 -1267q-35 -217 -209 -217q-84 0 -129 16q-16 4 -10 20l10 31q4 12 23 10q72 -10 86 -10q129 0 156 158l106 596h-57q-195 0 -317 96t-121 258q0 217 161 355q162 138 394 139h356q18 0 16 -19l-6 -31q-6 -18 -22 -18z" />
    <glyph glyph-name="periodcentered" unicode="&#xb7;" horiz-adv-x="417" 
d="M186 604h88q16 0 15 -18l-21 -127q-6 -18 -20 -19h-90q-19 1 -15 19l21 127q6 18 22 18z" />
    <glyph glyph-name="cedilla" unicode="&#xb8;" horiz-adv-x="665" 
d="M432 -161q0 -63 -55 -97t-123 -35q-68 0 -82 5q-12 5 -8 18l4 24q4 12 18 13h52q127 -1 127 91t-156 160h61q74 -24 118 -70t44 -109z" />
    <glyph glyph-name="one.superior" unicode="&#xb9;" 
d="M696 1872h29q23 0 18 -23l-145 -827q-4 -23 -27 -23h-30q-20 0 -17 23l131 747l-229 -145q-23 -10 -33 6l-12 25q-8 16 10 28l275 179q20 10 30 10z" />
    <glyph glyph-name="ordmasculine" unicode="&#xba;" horiz-adv-x="962" 
d="M595 987q-175 0 -263 85t-88 245q0 47 10 119q39 214 159 330t295 116t262 -85t87 -245q0 -66 -10 -116q-37 -215 -157 -332t-295 -117zM322 1323q0 -269 276 -269q140 0 239 99q99 98 132 283q10 66 10 112q1 267 -273 267q-140 -1 -240 -99q-99 -98 -132 -280
q-12 -61 -12 -113z" />
    <glyph glyph-name="guillemotright" unicode="&#xbb;" horiz-adv-x="749" 
d="M135 238h-41q-23 0 -8 22l223 272l-125 275q-12 23 15 22h41q16 0 20 -14l123 -270q2 -7 2 -13l-4 -8l-219 -272q-14 -14 -27 -14zM424 238h-41q-25 0 -6 22l221 272l-125 275q-10 23 14 22h41q16 0 21 -14l125 -270q3 -14 -4 -21l-217 -272q-14 -14 -29 -14z" />
    <glyph glyph-name="onequarter" unicode="&#xbc;" horiz-adv-x="1972" 
d="M1853 207h-135l-30 -184q-4 -23 -27 -23h-31q-23 0 -16 23l31 184h-469q-20 0 -17 22l4 27q2 10 15 23l577 579q18 14 27 14h33q23 0 18 -22l-100 -574h133q23 0 20 -22l-6 -25q-2 -22 -27 -22zM1743 762l-483 -486h397zM649 1436q23 0 19 -23l-146 -827q-4 -23 -26 -23
h-31q-20 0 -16 23l131 747l-230 -145q-23 -10 -33 6l-12 25q-8 16 10 28l275 178q20 10 31 11h28zM496 0h-47q-25 0 -7 20l1133 1399q16 16 31 17h47q24 -1 10 -21l-1135 -1399q-16 -16 -32 -16z" />
    <glyph glyph-name="onehalf" unicode="&#xbd;" horiz-adv-x="1972" 
d="M1360 596q0 -33 -25 -33h-30q-20 0 -21 27q0 137 92 216t232 79q140 1 203 -61q62 -62 63 -156q0 -184 -234 -375q-90 -74 -333 -223h465q18 0 16 -23l-2 -24q-2 -23 -27 -23h-567q-18 0 -16 23l2 24q2 15 19 25t157 96t199 136q143 123 193 200t50 164q0 147 -188 147
q-108 1 -178 -57t-70 -162zM649 1436q23 0 19 -23l-146 -827q-4 -23 -26 -23h-31q-20 0 -16 23l131 747l-230 -145q-23 -10 -33 6l-12 25q-8 16 10 28l275 178q20 10 31 11h28zM414 0h-47q-25 0 -7 20l1133 1399q16 16 31 17h47q24 -1 10 -21l-1135 -1399q-16 -16 -32 -16z
" />
    <glyph glyph-name="threequarters" unicode="&#xbe;" horiz-adv-x="1972" 
d="M465 983h-92q-23 0 -21 23l6 24q2 23 25 23h94q96 0 164 55t68 143q0 127 -201 127q-109 0 -223 -43q-25 -10 -31 8l-6 29q-6 14 18 25q106 51 242 51t208 -51q70 -51 70 -137t-49 -148q-49 -63 -125 -92q125 -43 125 -180t-106 -213t-258 -76t-258 53q-20 8 -11 25
l17 28q12 20 29 13q108 -49 226 -49t200 60t81 167q1 135 -192 135zM1853 207h-135l-30 -184q-4 -23 -27 -23h-31q-23 0 -16 23l31 184h-469q-20 0 -17 22l4 27q2 10 15 23l577 579q18 14 27 14h33q23 0 18 -22l-100 -574h133q23 0 20 -22l-6 -25q-2 -22 -27 -22zM1743 762
l-483 -486h397zM535 0h-48q-25 0 -6 20l1133 1399q16 16 31 17h47q24 -1 10 -21l-1135 -1399q-16 -16 -32 -16z" />
    <glyph glyph-name="questiondown" unicode="&#xbf;" horiz-adv-x="937" 
d="M563 664q18 0 15 -19l-15 -82q-17 -99 -168 -211q-61 -45 -123 -95q-144 -117 -143 -261q0 -84 62 -120t214 -36t312 64q18 8 22 -8l9 -41q4 -12 -15 -19q-164 -74 -340 -74q-352 0 -352 228q0 86 43 160t104 126q60 52 124 96q157 113 171 191l13 82q6 18 22 19h45z
M530 874q-18 0 -14 19l23 129q6 18 22 18h92q19 0 15 -18l-23 -129q-2 -18 -20 -19h-95z" />
    <glyph glyph-name="Agrave" unicode="&#xc0;" horiz-adv-x="1318" 
d="M823 1550q-14 0 -28 15l-158 176q-6 8 -2 17t14 9h66q23 0 33 -20l114 -176q4 -6 -1 -13t-15 -8h-23zM803 1436h53q18 0 23 -21l297 -1397q4 -18 -17 -18h-53q-14 0 -19 16l-88 418h-688l-235 -418q-6 -16 -21 -16h-59q-20 0 -10 18l788 1397q15 21 29 21zM354 512h631
l-168 821h-4z" />
    <glyph glyph-name="Aacute" unicode="&#xc1;" horiz-adv-x="1318" 
d="M1057 1767h69q17 0 13 -15q-2 -7 -9 -11l-217 -176q-12 -14 -32 -15h-29q-8 0 -10 8t6 13l168 176q20 20 41 20zM803 1436h53q18 0 23 -21l297 -1397q4 -18 -17 -18h-53q-14 0 -19 16l-88 418h-688l-235 -418q-6 -16 -21 -16h-59q-20 0 -10 18l788 1397q15 21 29 21z
M354 512h631l-168 821h-4z" />
    <glyph glyph-name="Acircumflex" unicode="&#xc2;" horiz-adv-x="1318" 
d="M621 1550q-11 0 -13 8t6 13l220 178q14 14 34 14h41q12 0 31 -14l154 -178q6 -6 3 -13t-16 -8h-37q-14 1 -26 15l-137 135l-187 -135q-20 -14 -32 -15h-41zM803 1436h53q18 0 23 -21l297 -1397q4 -18 -17 -18h-53q-14 0 -19 16l-88 418h-688l-235 -418q-6 -16 -21 -16
h-59q-20 0 -10 18l788 1397q15 21 29 21zM354 512h631l-168 821h-4z" />
    <glyph glyph-name="Atilde" unicode="&#xc3;" horiz-adv-x="1318" 
d="M1021 1538q-60 0 -151 43l-45 21q-163 77 -194 -7l-8 -28q-8 -23 -31 -23h-23q-16 0 -14 25q12 61 51 98q38 37 100 37t152 -43l47 -23q162 -77 193 17l6 22q8 23 33 23h20q18 0 14 -25q-10 -61 -50 -99t-100 -38zM803 1436h53q18 0 23 -21l297 -1397q4 -18 -17 -18h-53
q-14 0 -19 16l-88 418h-688l-235 -418q-6 -16 -21 -16h-59q-20 0 -10 18l788 1397q15 21 29 21zM354 512h631l-168 821h-4z" />
    <glyph glyph-name="Adieresis" unicode="&#xc4;" horiz-adv-x="1318" 
d="M999 1550q-16 0 -14 19l25 135q2 16 20 16h60q20 0 14 -16l-23 -135q-4 -18 -22 -19h-60zM641 1550q-18 0 -14 19l24 135q2 16 21 16h59q20 0 14 -16l-22 -135q-2 -18 -23 -19h-59zM803 1436h53q18 0 23 -21l297 -1397q4 -18 -17 -18h-53q-14 0 -19 16l-88 418h-688
l-235 -418q-6 -16 -21 -16h-59q-20 0 -10 18l788 1397q15 21 29 21zM354 512h631l-168 821h-4z" />
    <glyph glyph-name="Aring" unicode="&#xc5;" horiz-adv-x="1318" 
d="M870 1677q-63 0 -109 -39t-46 -108q0 -94 114 -94h13q59 4 100 42t41 103q0 96 -113 96zM354 512h631l-168 821h-4zM653 1530q0 88 65 145t152 57q88 0 132 -40q44 -41 44 -110t-44 -124t-117 -72l291 -1368q4 -18 -17 -18h-53q-14 0 -19 16l-88 418h-688l-235 -418
q-6 -16 -21 -16h-59q-20 0 -10 18l772 1368q-105 31 -105 144z" />
    <glyph glyph-name="AE" unicode="&#xc6;" horiz-adv-x="1720" 
d="M383 483h504l155 873h-41zM1602 696h-590l-109 -616h617q20 0 14 -19l-6 -43q-4 -18 -23 -18h-682q-20 0 -14 18l65 388h-546l-277 -390q-10 -16 -24 -16h-62q-25 0 -10 18l997 1397q14 20 31 21h770q20 0 16 -19l-8 -43q-6 -18 -22 -18h-611l-102 -582h590q16 0 16 -18
l-8 -41q-2 -19 -22 -19z" />
    <glyph glyph-name="Ccedilla" unicode="&#xc7;" horiz-adv-x="1206" 
d="M686 59q172 0 315 72q18 10 23 -12l12 -39q6 -10 -18 -21q-152 -80 -342 -79q-35 0 -53 2q86 -64 86 -144q1 -80 -61 -116t-130 -36t-82 6q-12 5 -10 19l6 27q0 12 17 12h55q135 0 135 92q0 86 -104 150q-188 35 -286 167q-97 132 -97 349q0 98 18 209q62 354 250 547
t485 192q209 0 330 -78q16 -8 10 -22l-24 -37q-12 -20 -27 -10q-121 68 -285 67q-264 0 -429 -170t-222 -489q-18 -111 -18 -205q0 -453 446 -453z" />
    <glyph glyph-name="Egrave" unicode="&#xc8;" horiz-adv-x="1093" 
d="M850 1550q-14 0 -29 15l-157 176q-6 8 -2 17t14 9h65q23 0 33 -20l115 -176q4 -6 -1 -13t-16 -8h-22zM977 696h-655l-109 -616h680q20 0 16 -19l-6 -41q-6 -20 -22 -20h-746q-20 0 -16 18l246 1399q4 18 22 19h741q18 0 17 -19l-8 -43q-6 -18 -23 -18h-676l-102 -582h655
q16 0 15 -18l-7 -41q-6 -19 -22 -19z" />
    <glyph glyph-name="Eacute" unicode="&#xc9;" horiz-adv-x="1093" 
d="M946 1767h70q16 0 12 -15q-2 -7 -8 -11l-217 -176q-12 -14 -33 -15h-29q-8 0 -10 8t6 13l168 176q20 20 41 20zM977 696h-655l-109 -616h680q20 0 16 -19l-6 -41q-6 -20 -22 -20h-746q-20 0 -16 18l246 1399q4 18 22 19h741q18 0 17 -19l-8 -43q-6 -18 -23 -18h-676
l-102 -582h655q16 0 15 -18l-7 -41q-6 -19 -22 -19z" />
    <glyph glyph-name="Ecircumflex" unicode="&#xca;" horiz-adv-x="1093" 
d="M557 1550q-12 0 -13 8t7 13l219 178q14 14 35 14h41q12 0 31 -14l153 -178q6 -6 3 -13t-15 -8h-37q-15 1 -27 15l-137 135l-186 -135q-20 -14 -33 -15h-41zM977 696h-655l-109 -616h680q20 0 16 -19l-6 -41q-6 -20 -22 -20h-746q-20 0 -16 18l246 1399q4 18 22 19h741
q18 0 17 -19l-8 -43q-6 -18 -23 -18h-676l-102 -582h655q16 0 15 -18l-7 -41q-6 -19 -22 -19z" />
    <glyph glyph-name="Edieresis" unicode="&#xcb;" horiz-adv-x="1093" 
d="M936 1550q-18 0 -14 19l24 135q2 16 21 16h59q20 0 14 -16l-22 -135q-2 -18 -23 -19h-59zM578 1550q-16 0 -15 19l25 135q2 16 20 16h60q20 0 14 -16l-23 -135q-4 -18 -22 -19h-59zM977 696h-655l-109 -616h680q20 0 16 -19l-6 -41q-6 -20 -22 -20h-746q-20 0 -16 18
l246 1399q4 18 22 19h741q18 0 17 -19l-8 -43q-6 -18 -23 -18h-676l-102 -582h655q16 0 15 -18l-7 -41q-6 -19 -22 -19z" />
    <glyph glyph-name="Igrave" unicode="&#xcc;" horiz-adv-x="507" 
d="M434 1550q-14 0 -28 15l-158 176q-6 8 -2 17t14 9h66q22 0 32 -20l115 -176q4 -6 -1 -13t-15 -8h-23zM446 1436q20 0 17 -19l-246 -1399q-4 -18 -22 -18h-48q-20 0 -16 18l246 1399q6 18 22 19h47z" />
    <glyph glyph-name="Iacute" unicode="&#xcd;" horiz-adv-x="507" 
d="M633 1767h69q17 0 13 -15q-2 -7 -8 -11l-218 -176q-12 -14 -32 -15h-29q-8 0 -10 8t6 13l168 176q20 20 41 20zM446 1436q20 0 17 -19l-246 -1399q-4 -18 -22 -18h-48q-20 0 -16 18l246 1399q6 18 22 19h47z" />
    <glyph glyph-name="Icircumflex" unicode="&#xce;" horiz-adv-x="507" 
d="M213 1550q-12 0 -13 8t7 13l219 178q14 14 35 14h41q12 0 30 -14l154 -178q6 -6 3 -13t-15 -8h-37q-15 1 -27 15l-137 135l-186 -135q-20 -14 -33 -15h-41zM446 1436q20 0 17 -19l-246 -1399q-4 -18 -22 -18h-48q-20 0 -16 18l246 1399q6 18 22 19h47z" />
    <glyph glyph-name="Idieresis" unicode="&#xcf;" horiz-adv-x="507" 
d="M592 1550q-18 0 -14 19l24 135q2 16 21 16h59q20 0 14 -16l-22 -135q-2 -18 -23 -19h-59zM233 1550q-16 0 -14 19l25 135q2 16 20 16h60q20 0 14 -16l-23 -135q-4 -18 -22 -19h-60zM446 1436q20 0 17 -19l-246 -1399q-4 -18 -22 -18h-48q-20 0 -16 18l246 1399
q6 18 22 19h47z" />
    <glyph glyph-name="Eth" unicode="&#xd0;" horiz-adv-x="1361" 
d="M700 1356h-258l-106 -602h338q16 0 14 -17l-6 -35q0 -18 -20 -18h-338l-107 -604h260q305 0 476 137t239 500q20 117 20 215q0 238 -128 331t-384 93zM477 0h-338q-20 0 -16 18l117 666h-134q-16 0 -12 18l6 35q0 16 19 17h133l117 663q4 18 22 19h314q293 0 445 -113
t153 -383q0 -84 -21 -223q-47 -272 -159 -433q-113 -160 -267 -222t-379 -62z" />
    <glyph glyph-name="Ntilde" unicode="&#xd1;" horiz-adv-x="1413" 
d="M1066 1538q-60 0 -151 43l-45 21q-163 77 -194 -7l-8 -28q-8 -23 -31 -23h-23q-16 0 -14 25q12 61 51 98t101 37t151 -43l47 -23q162 -77 193 17l6 22q8 23 33 23h20q19 0 15 -25q-11 -61 -51 -99t-100 -38zM1114 0h-49q-20 0 -29 14l-608 1282l-225 -1278
q-2 -18 -21 -18h-47q-20 0 -16 18l246 1399q4 18 22 19h49q20 0 27 -15l610 -1284l225 1280q4 18 21 19h47q18 -1 16 -19l-245 -1399q-6 -18 -23 -18z" />
    <glyph glyph-name="Ograve" unicode="&#xd2;" horiz-adv-x="1429" 
d="M932 1550q-14 0 -29 15l-158 176q-6 8 -2 17t15 9h65q23 0 33 -20l115 -176q4 -6 -1 -13t-16 -8h-22zM641 57q254 0 409 170t212 490q20 133 20 219q0 440 -408 440q-252 0 -408 -170t-212 -489q-20 -111 -21 -217q0 -443 408 -443zM879 1456q243 0 367 -134t124 -384
q0 -96 -22 -221q-64 -353 -242 -545t-467 -192q-242 0 -367 135t-125 385q0 100 19 217q64 355 244 547t469 192z" />
    <glyph glyph-name="Oacute" unicode="&#xd3;" horiz-adv-x="1429" 
d="M1079 1767h70q16 0 12 -15q-2 -7 -8 -11l-217 -176q-12 -14 -33 -15h-29q-8 0 -10 8t6 13l168 176q20 20 41 20zM641 57q254 0 409 170t212 490q20 133 20 219q0 440 -408 440q-252 0 -408 -170t-212 -489q-20 -111 -21 -217q0 -443 408 -443zM879 1456q243 0 367 -134
t124 -384q0 -96 -22 -221q-64 -353 -242 -545t-467 -192q-242 0 -367 135t-125 385q0 100 19 217q64 355 244 547t469 192z" />
    <glyph glyph-name="Ocircumflex" unicode="&#xd4;" horiz-adv-x="1429" 
d="M674 1550q-12 0 -14 8t8 13l219 178q14 14 35 14h41q12 0 30 -14l154 -178q6 -6 3 -13t-15 -8h-37q-15 1 -27 15l-137 135l-186 -135q-20 -14 -33 -15h-41zM641 57q254 0 409 170t212 490q20 133 20 219q0 440 -408 440q-252 0 -408 -170t-212 -489q-20 -111 -21 -217
q0 -443 408 -443zM879 1456q243 0 367 -134t124 -384q0 -96 -22 -221q-64 -353 -242 -545t-467 -192q-242 0 -367 135t-125 385q0 100 19 217q64 355 244 547t469 192z" />
    <glyph glyph-name="Otilde" unicode="&#xd5;" horiz-adv-x="1429" 
d="M1074 1538q-60 0 -150 43l-45 21q-162 77 -195 -7l-8 -28q-8 -23 -31 -23h-22q-16 0 -15 25q12 61 51 98t101 37t151 -43l47 -23q162 -77 193 17l6 22q8 23 33 23h20q19 0 15 -25q-10 -61 -50 -99q-41 -38 -101 -38zM641 57q254 0 409 170t212 490q20 133 20 219
q0 440 -408 440q-252 0 -408 -170t-212 -489q-20 -111 -21 -217q0 -443 408 -443zM879 1456q243 0 367 -134t124 -384q0 -96 -22 -221q-64 -353 -242 -545t-467 -192q-242 0 -367 135t-125 385q0 100 19 217q64 355 244 547t469 192z" />
    <glyph glyph-name="Odieresis" unicode="&#xd6;" horiz-adv-x="1429" 
d="M1053 1550q-16 0 -15 19l25 135q2 16 20 16h60q20 0 14 -16l-22 -135q-4 -18 -23 -19h-59zM694 1550q-18 0 -14 19l25 135q2 16 20 16h59q21 0 15 -16l-23 -135q-2 -18 -22 -19h-60zM641 57q254 0 409 170t212 490q20 133 20 219q0 440 -408 440q-252 0 -408 -170
t-212 -489q-20 -111 -21 -217q0 -443 408 -443zM879 1456q243 0 367 -134t124 -384q0 -96 -22 -221q-64 -353 -242 -545t-467 -192q-242 0 -367 135t-125 385q0 100 19 217q64 355 244 547t469 192z" />
    <glyph glyph-name="multiply" unicode="&#xd7;" horiz-adv-x="1179" 
d="M903 317l-280 340l-402 -340q-12 -14 -26 0l-21 29q-12 12 4 25l402 342l-283 340q-10 12 6 24l31 29q18 12 28 -2l279 -340l401 342q14 12 25 0l25 -29q10 -14 -7 -24l-401 -340l281 -342q12 -12 -4 -25l-33 -29q-13 -12 -25 0z" />
    <glyph glyph-name="Oslash" unicode="&#xd8;" horiz-adv-x="1435" 
d="M639 57q256 0 411 170t212 490q47 256 -7 416l-966 -895q94 -181 350 -181zM233 486q0 -108 29 -187l969 893q-94 184 -354 184q-504 0 -621 -659q-23 -123 -23 -231zM883 1456q293 0 413 -203l154 144q16 12 25 4l22 -23q14 -14 -2 -26l-168 -158q45 -112 45 -232
t-22 -245q-64 -353 -242 -545t-470 -192t-415 198l-155 -143q-16 -12 -25 -2l-23 24q-6 14 3 25l170 156q-79 192 -25 479q62 355 242 547t473 192z" />
    <glyph glyph-name="Ugrave" unicode="&#xd9;" horiz-adv-x="1388" 
d="M932 1550q-14 0 -29 15l-158 176q-6 8 -2 17t15 9h65q23 0 33 -20l115 -176q4 -6 -1 -13t-16 -8h-22zM618 -25q-440 0 -440 383q0 63 12 138l162 921q4 18 23 19h47q20 0 16 -19l-162 -917q-12 -70 -12 -133q0 -313 357 -314q424 0 501 447l162 917q2 18 21 19h49
q18 0 14 -19l-162 -921q-90 -521 -588 -521z" />
    <glyph glyph-name="Uacute" unicode="&#xda;" horiz-adv-x="1388" 
d="M1018 1767h69q17 0 13 -15q-2 -7 -8 -11l-218 -176q-12 -14 -32 -15h-29q-8 0 -10 8t6 13l168 176q20 20 41 20zM618 -25q-440 0 -440 383q0 63 12 138l162 921q4 18 23 19h47q20 0 16 -19l-162 -917q-12 -70 -12 -133q0 -313 357 -314q424 0 501 447l162 917q2 18 21 19
h49q18 0 14 -19l-162 -921q-90 -521 -588 -521z" />
    <glyph glyph-name="Ucircumflex" unicode="&#xdb;" horiz-adv-x="1388" 
d="M653 1550q-12 0 -13 8t7 13l219 178q14 14 35 14h41q12 0 31 -14l153 -178q6 -6 3 -13t-15 -8h-37q-14 1 -26 15l-138 135l-186 -135q-20 -14 -33 -15h-41zM618 -25q-440 0 -440 383q0 63 12 138l162 921q4 18 23 19h47q20 0 16 -19l-162 -917q-12 -70 -12 -133
q0 -313 357 -314q424 0 501 447l162 917q2 18 21 19h49q18 0 14 -19l-162 -921q-90 -521 -588 -521z" />
    <glyph glyph-name="Udieresis" unicode="&#xdc;" horiz-adv-x="1388" 
d="M1032 1550q-16 0 -14 19l24 135q2 16 21 16h59q21 0 15 -16l-23 -135q-4 -18 -22 -19h-60zM674 1550q-18 0 -15 19l25 135q2 16 21 16h59q20 0 14 -16l-22 -135q-2 -18 -23 -19h-59zM618 -25q-440 0 -440 383q0 63 12 138l162 921q4 18 23 19h47q20 0 16 -19l-162 -917
q-12 -70 -12 -133q0 -313 357 -314q424 0 501 447l162 917q2 18 21 19h49q18 0 14 -19l-162 -921q-90 -521 -588 -521z" />
    <glyph glyph-name="Yacute" unicode="&#xdd;" horiz-adv-x="1253" 
d="M989 1767h70q16 0 12 -15q-2 -7 -8 -11l-217 -176q-12 -14 -33 -15h-29q-8 0 -10 8t6 13l168 176q20 20 41 20zM569 0h-49q-20 0 -14 18l92 525l-352 870q-10 21 16 23h49q18 0 23 -17l229 -569l88 -232l168 232l430 569q16 16 29 17h55q23 0 8 -23l-659 -870l-92 -525
q-4 -18 -21 -18z" />
    <glyph glyph-name="Thorn" unicode="&#xde;" horiz-adv-x="1200" 
d="M524 434q242 0 365 87t158 288q10 66 10 104q0 143 -96 207t-304 64h-247l-134 -750h248zM182 0h-47q-20 0 -16 18l246 1399q4 18 22 19h47q20 0 17 -19l-27 -153h238q246 0 364 -82t119 -258q0 -47 -10 -115q-39 -239 -185 -347t-426 -108h-262l-57 -336q-7 -18 -23 -18
z" />
    <glyph glyph-name="germandbls" unicode="&#xdf;" horiz-adv-x="1236" 
d="M765 1384q-144 0 -255 -68t-137 -210l-191 -1088q-2 -18 -20 -18h-43q-20 0 -15 18l193 1098q29 168 160 254t312 86t265 -72t84 -158t-41 -142t-98 -90t-115 -60t-100 -50q-41 -26 -41 -53t41 -55t98 -62q56 -34 114 -77t99 -115t41 -157q0 -193 -128 -285t-326 -92
q-70 0 -142 8t-69 24l6 37q0 20 22 17q139 -28 279 3q172 36 239 144q39 61 39 141t-41 141q-41 62 -98 102t-115 74q-140 82 -141 146q0 84 140 147q57 26 117 52t101 74t41 116t-65 119q-66 51 -210 51z" />
    <glyph glyph-name="agrave" unicode="&#xe0;" horiz-adv-x="1093" 
d="M733 1194h-22q-14 0 -29 14l-162 187q-6 8 -2 17t14 9h68q23 0 33 -20l115 -184q8 -23 -15 -23zM375 53q193 0 315 97t148 247l26 144q-297 -6 -389 -21q-340 -55 -342 -287q1 -82 61 -131t181 -49zM829 0h-41q-20 0 -14 18l33 191q-141 -225 -440 -225q-152 0 -234 68
t-82 177q0 287 393 351q109 18 422 26h11l16 99q8 43 8 90q0 102 -61 149t-222 47t-331 -71q-16 -4 -21 10l-6 39q-4 14 14 20q184 76 371 76q336 0 336 -268q0 -48 -8 -95l-121 -684q-6 -18 -23 -18z" />
    <glyph glyph-name="aacute" unicode="&#xe1;" horiz-adv-x="1093" 
d="M823 1421h70q16 0 12 -15q-2 -7 -8 -11l-223 -187q-18 -14 -33 -14h-27q-8 0 -10 8t6 15l172 184q20 20 41 20zM375 53q193 0 315 97t148 247l26 144q-297 -6 -389 -21q-340 -55 -342 -287q1 -82 61 -131t181 -49zM829 0h-41q-20 0 -14 18l33 191q-141 -225 -440 -225
q-152 0 -234 68t-82 177q0 287 393 351q109 18 422 26h11l16 99q8 43 8 90q0 102 -61 149t-222 47t-331 -71q-16 -4 -21 10l-6 39q-4 14 14 20q184 76 371 76q336 0 336 -268q0 -48 -8 -95l-121 -684q-6 -18 -23 -18z" />
    <glyph glyph-name="acircumflex" unicode="&#xe2;" horiz-adv-x="1093" 
d="M479 1194h-39q-12 0 -13 7t7 13l223 191q14 12 35 12h41q16 0 31 -12l156 -191q6 -6 3 -13t-16 -7h-37q-10 0 -22 14l-143 150l-195 -150q-16 -14 -31 -14zM375 53q193 0 315 97t148 247l26 144q-297 -6 -389 -21q-340 -55 -342 -287q1 -82 61 -131t181 -49zM829 0h-41
q-20 0 -14 18l33 191q-141 -225 -440 -225q-152 0 -234 68t-82 177q0 287 393 351q109 18 422 26h11l16 99q8 43 8 90q0 102 -61 149t-222 47t-331 -71q-16 -4 -21 10l-6 39q-4 14 14 20q184 76 371 76q336 0 336 -268q0 -48 -8 -95l-121 -684q-6 -18 -23 -18z" />
    <glyph glyph-name="atilde" unicode="&#xe3;" horiz-adv-x="1093" 
d="M826 1194q-60 0 -138 39l-41 20q-65 31 -109 31t-61 -37l-12 -28q-12 -20 -31 -21h-22q-16 0 -13 23q10 57 47 91q36 34 94 34t142 -39l41 -21q69 -33 113 -33t61 45l8 23q6 20 31 20h25q14 1 7 -38t-45 -74q-37 -35 -97 -35zM375 53q193 0 315 97t148 247l26 144
q-297 -6 -389 -21q-340 -55 -342 -287q1 -82 61 -131t181 -49zM829 0h-41q-20 0 -14 18l33 191q-141 -225 -440 -225q-152 0 -234 68t-82 177q0 287 393 351q109 18 422 26h11l16 99q8 43 8 90q0 102 -61 149t-222 47t-331 -71q-16 -4 -21 10l-6 39q-4 14 14 20
q184 76 371 76q336 0 336 -268q0 -48 -8 -95l-121 -684q-6 -18 -23 -18z" />
    <glyph glyph-name="adieresis" unicode="&#xe4;" horiz-adv-x="1093" 
d="M872 1194h-55q-20 0 -14 18l24 144q4 18 21 18h55q19 0 15 -18l-25 -144q-6 -18 -21 -18zM526 1194h-55q-16 0 -14 18l24 144q6 18 23 18h53q20 0 14 -18l-24 -144q-2 -18 -21 -18zM375 53q193 0 315 97t148 247l26 144q-297 -6 -389 -21q-340 -55 -342 -287
q1 -82 61 -131t181 -49zM829 0h-41q-20 0 -14 18l33 191q-141 -225 -440 -225q-152 0 -234 68t-82 177q0 287 393 351q109 18 422 26h11l16 99q8 43 8 90q0 102 -61 149t-222 47t-331 -71q-16 -4 -21 10l-6 39q-4 14 14 20q184 76 371 76q336 0 336 -268q0 -48 -8 -95
l-121 -684q-6 -18 -23 -18z" />
    <glyph glyph-name="aring" unicode="&#xe5;" horiz-adv-x="1093" 
d="M502 1336q0 76 64 136q64 58 151 58q88 0 135 -41t47 -118q-1 -77 -65 -135t-151 -58t-134 41t-47 117zM565 1342q0 -108 119 -109q59 0 106 39q46 39 46 106q0 96 -117 97q-63 0 -109 -38q-46 -37 -45 -95zM375 53q193 0 315 97t148 247l26 144q-297 -6 -389 -21
q-340 -55 -342 -287q1 -82 61 -131t181 -49zM829 0h-41q-20 0 -14 18l33 191q-141 -225 -440 -225q-152 0 -234 68t-82 177q0 287 393 351q109 18 422 26h11l16 99q8 43 8 90q0 102 -61 149t-222 47t-331 -71q-16 -4 -21 10l-6 39q-4 14 14 20q184 76 371 76q336 0 336 -268
q0 -48 -8 -95l-121 -684q-6 -18 -23 -18z" />
    <glyph glyph-name="ae" unicode="&#xe6;" horiz-adv-x="1812" 
d="M713 502q-331 0 -454 -64q-52 -27 -89 -79t-37 -126q0 -180 242 -180q191 0 309 97t147 247l19 105h-137zM1362 993q-152 -1 -268 -113t-156 -313h700l4 21q12 59 13 112q0 135 -70 214q-71 79 -223 79zM641 1065q332 0 320 -262q63 123 173 193t264 69q154 0 244 -100
t91 -267q0 -47 -11 -112l-10 -72q-6 -18 -22 -18h-762q-8 -49 -8 -105q0 -162 86 -253t246 -91q161 0 290 68q16 6 23 -11l8 -36q2 -10 -14 -21q-143 -72 -309 -72t-268 81q-101 81 -120 218q-137 -291 -493 -290q-158 0 -237 66t-79 160q0 96 29 156q48 100 203 156
q121 47 469 47h106l27 146q8 41 8 84q0 98 -61 145t-220 47t-329 -71q-16 -4 -21 10l-8 39q-4 14 14 20q205 76 371 76z" />
    <glyph glyph-name="ccedilla" unicode="&#xe7;" horiz-adv-x="985" 
d="M680 1065q178 0 281 -66q14 -10 6 -22l-21 -37q-12 -16 -28 -8q-90 59 -234 59q-190 0 -314 -120t-165 -347q-12 -59 -12 -139q-1 -162 81 -247t238 -85t272 64q20 10 25 -8l8 -39q0 -12 -16 -21q-131 -70 -287 -69q-27 0 -41 2q84 -58 84 -132t-55 -108
q-56 -34 -124 -35q-68 0 -80 5t-9 18l4 24q2 12 18 13h51q127 0 127 90q0 78 -106 139q-131 33 -203 132t-71 257q0 65 12 139q45 260 191 400t368 141z" />
    <glyph glyph-name="egrave" unicode="&#xe8;" horiz-adv-x="1112" 
d="M743 1194h-22q-14 0 -29 14l-162 187q-6 8 -2 17t15 9h67q23 0 33 -20l115 -184q8 -23 -15 -23zM952 694q0 141 -70 220q-72 79 -236 79q-164 -1 -279 -113t-158 -327h729q14 63 14 141zM533 47q168 0 307 70q20 10 24 -11l8 -34q2 -10 -16 -21q-156 -76 -342 -76
q-186 -1 -296 105t-109 301q0 72 14 143q45 258 184 400t357 141q180 0 274 -101t94 -274q0 -55 -12 -121l-12 -67q-2 -18 -21 -19h-790q-8 -47 -9 -100q0 -158 88 -247t257 -89z" />
    <glyph glyph-name="eacute" unicode="&#xe9;" horiz-adv-x="1112" 
d="M840 1421h69q17 0 13 -15q-2 -7 -9 -11l-223 -187q-18 -14 -33 -14h-26q-8 0 -10 8t6 15l172 184q20 20 41 20zM952 694q0 141 -70 220q-72 79 -236 79q-164 -1 -279 -113t-158 -327h729q14 63 14 141zM533 47q168 0 307 70q20 10 24 -11l8 -34q2 -10 -16 -21
q-156 -76 -342 -76q-186 -1 -296 105t-109 301q0 72 14 143q45 258 184 400t357 141q180 0 274 -101t94 -274q0 -55 -12 -121l-12 -67q-2 -18 -21 -19h-790q-8 -47 -9 -100q0 -158 88 -247t257 -89z" />
    <glyph glyph-name="ecircumflex" unicode="&#xea;" horiz-adv-x="1112" 
d="M502 1194h-39q-12 0 -13 7t7 13l223 191q16 12 35 12h41q16 0 30 -12l156 -191q6 -6 3 -13t-15 -7h-37q-11 0 -23 14l-143 150l-195 -150q-16 -14 -30 -14zM952 694q0 141 -70 220q-72 79 -236 79q-164 -1 -279 -113t-158 -327h729q14 63 14 141zM533 47q168 0 307 70
q20 10 24 -11l8 -34q2 -10 -16 -21q-156 -76 -342 -76q-186 -1 -296 105t-109 301q0 72 14 143q45 258 184 400t357 141q180 0 274 -101t94 -274q0 -55 -12 -121l-12 -67q-2 -18 -21 -19h-790q-8 -47 -9 -100q0 -158 88 -247t257 -89z" />
    <glyph glyph-name="edieresis" unicode="&#xeb;" horiz-adv-x="1112" 
d="M897 1194h-55q-20 0 -15 18l25 144q4 18 20 18h56q18 0 14 -18l-24 -144q-6 -18 -21 -18zM551 1194h-55q-16 0 -15 18l25 144q6 18 22 18h54q20 0 14 -18l-25 -144q-2 -18 -20 -18zM952 694q0 141 -70 220q-72 79 -236 79q-164 -1 -279 -113t-158 -327h729q14 63 14 141z
M533 47q168 0 307 70q20 10 24 -11l8 -34q2 -10 -16 -21q-156 -76 -342 -76q-186 -1 -296 105t-109 301q0 72 14 143q45 258 184 400t357 141q180 0 274 -101t94 -274q0 -55 -12 -121l-12 -67q-2 -18 -21 -19h-790q-8 -47 -9 -100q0 -158 88 -247t257 -89z" />
    <glyph glyph-name="igrave" unicode="&#xec;" horiz-adv-x="442" 
d="M369 1194h-23q-14 0 -29 14l-161 187q-6 8 -2 17t14 9h68q22 0 32 -20l115 -184q8 -23 -14 -23zM162 0h-45q-20 0 -15 18l177 1004q4 18 20 18h45q16 0 14 -18l-176 -1004q-6 -18 -20 -18z" />
    <glyph glyph-name="iacute" unicode="&#xed;" horiz-adv-x="442" 
d="M539 1421h69q17 0 13 -15q-2 -7 -9 -11l-223 -187q-18 -14 -33 -14h-26q-8 0 -11 7q-1 8 7 16l172 184q20 20 41 20zM162 0h-45q-20 0 -15 18l177 1004q4 18 20 18h45q16 0 14 -18l-176 -1004q-6 -18 -20 -18z" />
    <glyph glyph-name="icircumflex" unicode="&#xee;" horiz-adv-x="442" 
d="M156 1194h-39q-12 0 -14 7q-1 7 8 13l223 191q14 12 35 12h41q16 0 30 -12l156 -191q6 -6 3 -13t-15 -7h-37q-11 0 -23 14l-143 150l-195 -150q-16 -14 -30 -14zM162 0h-45q-20 0 -15 18l177 1004q4 18 20 18h45q16 0 14 -18l-176 -1004q-6 -18 -20 -18z" />
    <glyph glyph-name="idieresis" unicode="&#xef;" horiz-adv-x="442" 
d="M551 1194h-55q-20 0 -15 18l25 144q2 18 20 18h56q16 0 14 -18l-25 -144q-6 -18 -20 -18zM205 1194h-55q-18 0 -15 18l25 144q6 18 22 18h54q20 0 14 -18l-25 -144q-4 -18 -20 -18zM162 0h-45q-20 0 -15 18l177 1004q4 18 20 18h45q16 0 14 -18l-176 -1004
q-6 -18 -20 -18z" />
    <glyph glyph-name="eth" unicode="&#xf0;" horiz-adv-x="1167" 
d="M510 53q188 0 309 120t162 349q12 76 12 142q0 328 -317 327q-190 0 -310 -120t-161 -349q-14 -72 -15 -141q1 -328 320 -328zM1096 1217h-146q131 -227 131 -498q0 -98 -18 -197q-45 -260 -189 -401t-348 -141q-206 0 -313 104q-106 104 -107 297q0 51 15 141
q47 258 190 400t372 143q229 0 306 -147q-31 162 -123 299h-305q-20 0 -16 18l4 25q6 16 22 16h256q-49 74 -120 131q-18 14 -12 21q7 8 16 8h43q18 0 37 -15q68 -63 124 -145h189q16 0 14 -16l-4 -25q-4 -18 -18 -18z" />
    <glyph glyph-name="ntilde" unicode="&#xf1;" horiz-adv-x="1173" 
d="M868 1194q-60 0 -137 39l-41 20q-66 31 -110 31t-60 -37l-12 -28q-12 -20 -31 -21h-22q-16 0 -13 23q10 57 47 91t95 34t141 -39l41 -21q70 -33 114 -33t60 45l8 23q6 20 31 20h25q14 1 7 -38t-45 -74t-98 -35zM907 0h-43q-20 0 -16 18l119 674q8 39 8 82q0 215 -254 215
q-164 0 -286 -96t-150 -246l-111 -629q-2 -18 -20 -18h-43q-20 0 -17 18l176 1004q6 18 23 18h43q16 0 14 -18l-31 -182q135 225 418 225q158 0 239 -74t81 -205q0 -47 -8 -88l-121 -680q-2 -18 -21 -18z" />
    <glyph glyph-name="ograve" unicode="&#xf2;" horiz-adv-x="1167" 
d="M766 1194h-23q-14 0 -28 14l-162 187q-6 8 -2 17t14 9h68q23 0 33 -20l114 -184q8 -23 -14 -23zM525 53q173 0 295 120t161 349q12 76 12 142q0 328 -317 327q-190 0 -310 -120t-161 -349q-14 -72 -15 -141q0 -328 335 -328zM524 -20q-206 0 -312 104q-105 104 -106 297
q0 51 15 141q47 260 190 402t350 141q207 0 311 -104t105 -295q0 -53 -14 -144q-45 -260 -189 -401t-350 -141z" />
    <glyph glyph-name="oacute" unicode="&#xf3;" horiz-adv-x="1167" 
d="M864 1421h70q16 0 12 -15q-2 -7 -8 -11l-223 -187q-18 -14 -33 -14h-27q-8 0 -10 8t6 15l172 184q20 20 41 20zM525 53q173 0 295 120t161 349q12 76 12 142q0 328 -317 327q-190 0 -310 -120t-161 -349q-14 -72 -15 -141q0 -328 335 -328zM524 -20q-206 0 -312 104
q-105 104 -106 297q0 51 15 141q47 260 190 402t350 141q207 0 311 -104t105 -295q0 -53 -14 -144q-45 -260 -189 -401t-350 -141z" />
    <glyph glyph-name="ocircumflex" unicode="&#xf4;" horiz-adv-x="1167" 
d="M516 1194h-39q-12 0 -13 7t7 13l223 191q14 12 35 12h41q16 0 31 -12l155 -191q6 -6 3 -13t-15 -7h-37q-10 0 -22 14l-144 150l-194 -150q-16 -14 -31 -14zM525 53q173 0 295 120t161 349q12 76 12 142q0 328 -317 327q-190 0 -310 -120t-161 -349q-14 -72 -15 -141
q0 -328 335 -328zM524 -20q-206 0 -312 104q-105 104 -106 297q0 51 15 141q47 260 190 402t350 141q207 0 311 -104t105 -295q0 -53 -14 -144q-45 -260 -189 -401t-350 -141z" />
    <glyph glyph-name="otilde" unicode="&#xf5;" horiz-adv-x="1167" 
d="M864 1194q-60 0 -137 39l-41 20q-66 31 -110 31t-60 -37l-12 -28q-12 -20 -31 -21h-22q-16 0 -13 23q10 57 47 91t95 34t141 -39l41 -21q70 -33 114 -33t60 45l8 23q6 20 31 20h24q15 1 8 -38t-45 -74t-98 -35zM525 53q173 0 295 120t161 349q12 76 12 142
q0 328 -317 327q-190 0 -310 -120t-161 -349q-14 -72 -15 -141q0 -328 335 -328zM524 -20q-206 0 -312 104q-105 104 -106 297q0 51 15 141q47 260 190 402t350 141q207 0 311 -104t105 -295q0 -53 -14 -144q-45 -260 -189 -401t-350 -141z" />
    <glyph glyph-name="odieresis" unicode="&#xf6;" horiz-adv-x="1167" 
d="M911 1194h-55q-20 0 -14 18l24 144q2 18 21 18h55q16 0 14 -18l-24 -144q-6 -18 -21 -18zM565 1194h-55q-18 0 -14 18l24 144q6 18 23 18h53q20 0 14 -18l-24 -144q-4 -18 -21 -18zM525 53q173 0 295 120t161 349q12 76 12 142q0 328 -317 327q-190 0 -310 -120
t-161 -349q-14 -72 -15 -141q0 -328 335 -328zM524 -20q-206 0 -312 104q-105 104 -106 297q0 51 15 141q47 260 190 402t350 141q207 0 311 -104t105 -295q0 -53 -14 -144q-45 -260 -189 -401t-350 -141z" />
    <glyph glyph-name="divide" unicode="&#xf7;" horiz-adv-x="1179" 
d="M750 1133q20 0 16 -19l-23 -127q-6 -18 -22 -18h-86q-21 0 -17 18l23 127q2 18 21 19h88zM631 455q16 0 14 -17l-22 -127q0 -18 -21 -18h-88q-18 0 -14 18l20 127q6 16 23 17h88zM1063 676h-875q-16 0 -14 18l6 37q4 18 21 19h874q20 0 15 -19l-7 -37q0 -18 -20 -18z" />
    <glyph glyph-name="oslash" unicode="&#xf8;" horiz-adv-x="1175" 
d="M518 53q182 0 304 120t161 349q14 72 14 158t-32 154l-709 -676q80 -105 262 -105zM193 366q0 -85 34 -161l709 678q-80 109 -263 109t-305 -121q-122 -120 -161 -349q-14 -71 -14 -156zM516 -20q-217 0 -319 122l-101 -96q-14 -14 -26 -2l-17 16q-12 10 0 23l113 104
q-55 92 -55 234q0 66 12 141q47 260 191 402t360 141q216 0 321 -127l103 98q12 12 22 2l19 -16q14 -12 -2 -25l-111 -104q53 -94 53 -227q0 -53 -14 -144q-45 -260 -189 -401t-360 -141z" />
    <glyph glyph-name="ugrave" unicode="&#xf9;" horiz-adv-x="1157" 
d="M764 1194h-23q-14 0 -28 14l-162 187q-6 8 -2 17t14 9h68q23 0 33 -20l114 -184q8 -23 -14 -23zM279 1040h45q16 0 14 -18l-117 -655q-8 -61 -8 -86q0 -225 254 -226q159 -1 277 95t145 245l110 627q4 18 21 18h45q16 0 14 -18l-176 -1004q-6 -18 -20 -18h-45
q-20 0 -15 18l33 187q-129 -225 -401 -225q-160 0 -241 74t-81 208q0 51 8 94l117 666q4 18 21 18z" />
    <glyph glyph-name="uacute" unicode="&#xfa;" horiz-adv-x="1157" 
d="M856 1421h70q16 0 12 -15q-2 -7 -8 -11l-223 -187q-18 -14 -33 -14h-27q-8 0 -10 8t6 15l172 184q20 20 41 20zM279 1040h45q16 0 14 -18l-117 -655q-8 -61 -8 -86q0 -225 254 -226q159 -1 277 95t145 245l110 627q4 18 21 18h45q16 0 14 -18l-176 -1004q-6 -18 -20 -18
h-45q-20 0 -15 18l33 187q-129 -225 -401 -225q-160 0 -241 74t-81 208q0 51 8 94l117 666q4 18 21 18z" />
    <glyph glyph-name="ucircumflex" unicode="&#xfb;" horiz-adv-x="1157" 
d="M512 1194h-39q-12 0 -13 7t7 13l223 191q14 12 35 12h41q16 0 31 -12l155 -191q6 -6 3 -13t-15 -7h-37q-10 0 -22 14l-144 150l-194 -150q-16 -14 -31 -14zM279 1040h45q16 0 14 -18l-117 -655q-8 -61 -8 -86q0 -225 254 -226q159 -1 277 95t145 245l110 627q4 18 21 18
h45q16 0 14 -18l-176 -1004q-6 -18 -20 -18h-45q-20 0 -15 18l33 187q-129 -225 -401 -225q-160 0 -241 74t-81 208q0 51 8 94l117 666q4 18 21 18z" />
    <glyph glyph-name="udieresis" unicode="&#xfc;" horiz-adv-x="1157" 
d="M907 1194h-55q-20 0 -14 18l24 144q2 18 21 18h55q16 0 14 -18l-24 -144q-6 -18 -21 -18zM561 1194h-55q-18 0 -14 18l24 144q6 18 23 18h53q20 0 14 -18l-24 -144q-4 -18 -21 -18zM279 1040h45q16 0 14 -18l-117 -655q-8 -61 -8 -86q0 -225 254 -226q159 -1 277 95
t145 245l110 627q4 18 21 18h45q16 0 14 -18l-176 -1004q-6 -18 -20 -18h-45q-20 0 -15 18l33 187q-129 -225 -401 -225q-160 0 -241 74t-81 208q0 51 8 94l117 666q4 18 21 18z" />
    <glyph glyph-name="yacute" unicode="&#xfd;" horiz-adv-x="968" 
d="M768 1421h70q16 0 12 -15q-2 -7 -8 -11l-224 -187q-18 -14 -32 -14h-27q-8 0 -10 8t6 15l172 184q20 20 41 20zM168 -233q-94 0 -145 18q-16 4 -11 20l19 37q6 14 22 13q43 -14 103 -15q100 0 165 77t48 151l-205 952q-4 20 16 20h47q16 0 17 -16l125 -582l65 -350h4
l176 350l304 582q10 16 24 16h51q25 0 11 -20l-523 -985q-76 -147 -147 -208q-72 -60 -166 -60z" />
    <glyph glyph-name="thorn" unicode="&#xfe;" horiz-adv-x="1226" 
d="M258 383q0 -330 335 -330q171 0 289 119t156 350q14 74 15 150q0 319 -308 319q-190 0 -314 -121t-161 -348q-12 -74 -12 -139zM371 1436h43q20 0 16 -19l-108 -606q143 254 432 254q182 0 282 -102t101 -291q0 -76 -15 -150q-47 -262 -184 -402t-352 -140
q-145 0 -244 64q-98 65 -123 185l-76 -436q-6 -18 -22 -18h-43q-20 0 -17 18l287 1624q7 19 23 19z" />
    <glyph glyph-name="ydieresis" unicode="&#xff;" horiz-adv-x="968" 
d="M813 1194h-55q-20 0 -15 18l25 144q2 18 20 18h56q16 0 14 -18l-24 -144q-6 -18 -21 -18zM467 1194h-55q-18 0 -15 18l25 144q6 18 22 18h54q20 0 14 -18l-25 -144q-4 -18 -20 -18zM168 -233q-94 0 -145 18q-16 4 -11 20l19 37q6 14 22 13q43 -14 103 -15q100 0 165 77
t48 151l-205 952q-4 20 16 20h47q16 0 17 -16l125 -582l65 -350h4l176 350l304 582q10 16 24 16h51q25 0 11 -20l-523 -985q-76 -147 -147 -208q-72 -60 -166 -60z" />
    <glyph glyph-name="Amacron" unicode="&#x100;" horiz-adv-x="1318" 
d="M1118 1573h-526q-18 0 -14 18l6 33q2 16 22 16h524q14 0 15 -16l-6 -33q-5 -18 -21 -18zM803 1436h53q18 0 23 -21l297 -1397q4 -18 -17 -18h-53q-14 0 -19 16l-88 418h-688l-235 -418q-6 -16 -21 -16h-59q-20 0 -10 18l788 1397q15 21 29 21zM354 512h631l-168 821h-4z
" />
    <glyph glyph-name="amacron" unicode="&#x101;" horiz-adv-x="1093" 
d="M934 1212h-518q-18 0 -15 19l5 31q4 16 22 16h518q14 0 15 -16l-7 -31q-4 -19 -20 -19zM375 53q193 0 315 97t148 247l26 144q-297 -6 -389 -21q-340 -55 -342 -287q1 -82 61 -131t181 -49zM829 0h-41q-20 0 -14 18l33 191q-141 -225 -440 -225q-152 0 -234 68t-82 177
q0 287 393 351q109 18 422 26h11l16 99q8 43 8 90q0 102 -61 149t-222 47t-331 -71q-16 -4 -21 10l-6 39q-4 14 14 20q184 76 371 76q336 0 336 -268q0 -48 -8 -95l-121 -684q-6 -18 -23 -18z" />
    <glyph glyph-name="Abreve" unicode="&#x102;" horiz-adv-x="1318" 
d="M859 1546q-120 0 -178 58t-48 133q6 16 18 16h29q16 0 16 -14q6 -61 41 -95t125 -34q156 0 209 129q4 14 21 14h28q18 0 13 -16q-16 -79 -85 -135t-189 -56zM803 1436h53q18 0 23 -21l297 -1397q4 -18 -17 -18h-53q-14 0 -19 16l-88 418h-688l-235 -418q-6 -16 -21 -16
h-59q-20 0 -10 18l788 1397q15 21 29 21zM354 512h631l-168 821h-4z" />
    <glyph glyph-name="abreve" unicode="&#x103;" horiz-adv-x="1093" 
d="M680 1188q-125 0 -180 62t-43 143q4 16 18 16h29q14 0 16 -14q2 -66 35 -104t127 -38t139 37t74 105q2 14 18 14h29q18 0 14 -16q-18 -85 -84 -145t-192 -60zM375 53q193 0 315 97t148 247l26 144q-297 -6 -389 -21q-340 -55 -342 -287q1 -82 61 -131t181 -49zM829 0h-41
q-20 0 -14 18l33 191q-141 -225 -440 -225q-152 0 -234 68t-82 177q0 287 393 351q109 18 422 26h11l16 99q8 43 8 90q0 102 -61 149t-222 47t-331 -71q-16 -4 -21 10l-6 39q-4 14 14 20q184 76 371 76q336 0 336 -268q0 -48 -8 -95l-121 -684q-6 -18 -23 -18z" />
    <glyph glyph-name="Aogonek" unicode="&#x104;" horiz-adv-x="1318" 
d="M354 512h631l-168 821h-4zM803 1436h53q18 0 23 -21l297 -1397q4 -18 -17 -18h-29q-184 -76 -184 -188q0 -57 103 -58q31 0 59 7t29 -3l2 -30q0 -8 -9 -17q-44 -23 -108 -23t-106 28t-42 92t62 120q62 55 151 88l-88 418h-688l-235 -418q-6 -16 -21 -16h-59q-20 0 -10 18
l788 1397q15 21 29 21z" />
    <glyph glyph-name="aogonek" unicode="&#x105;" horiz-adv-x="1093" 
d="M375 53q193 0 315 97t148 247l26 144q-297 -6 -389 -21q-340 -55 -342 -287q1 -82 61 -131t181 -49zM829 0h-26q-172 -74 -172 -178q0 -53 96 -53q41 0 61 6t21 -4l2 -29q0 -12 -8 -16q-37 -20 -99 -20q-143 -1 -143 113q-1 61 63 117t150 84l33 189q-141 -225 -440 -225
q-152 0 -234 68t-82 177q0 287 393 351q109 18 422 26h11l16 99q8 43 8 90q0 102 -61 149t-222 47t-331 -71q-16 -4 -21 10l-6 39q-4 14 14 20q184 76 371 76q336 0 336 -268q0 -48 -8 -95l-121 -684q-6 -18 -23 -18z" />
    <glyph glyph-name="Cacute" unicode="&#x106;" horiz-adv-x="1206" 
d="M1044 1767h70q16 0 12 -15q-2 -7 -8 -11l-217 -176q-12 -14 -33 -15h-28q-8 0 -11 8q-1 7 7 13l168 176q20 20 40 20zM686 59q172 0 315 72q18 10 23 -12l12 -39q6 -10 -18 -21q-152 -80 -342 -79q-256 0 -390 136t-134 392q0 98 18 209q62 354 250 547t485 192
q209 0 330 -78q16 -8 10 -22l-24 -37q-12 -20 -27 -10q-121 68 -285 67q-264 0 -429 -170t-222 -489q-18 -111 -18 -205q0 -453 446 -453z" />
    <glyph glyph-name="cacute" unicode="&#x107;" horiz-adv-x="985" 
d="M879 1421h69q15 0 13 -15q-2 -7 -9 -11l-223 -187q-18 -14 -33 -14h-26q-8 0 -11 7q-1 8 7 16l172 184q20 20 41 20zM680 1065q178 0 281 -66q14 -10 6 -22l-21 -37q-12 -16 -28 -8q-90 59 -234 59q-190 0 -314 -120t-165 -347q-12 -59 -12 -139q-1 -162 81 -247t238 -85
t272 64q20 10 25 -8l8 -39q0 -12 -16 -21q-131 -69 -304 -69t-281 106t-107 299q0 65 12 139q45 260 191 400t368 141z" />
    <glyph glyph-name="Ccircumflex" unicode="&#x108;" horiz-adv-x="1206" 
d="M682 1550q-12 0 -13 8t7 13l219 178q14 14 35 14h41q12 0 30 -14l154 -178q6 -6 3 -13t-15 -8h-37q-15 1 -27 15l-137 135l-186 -135q-20 -14 -33 -15h-41zM686 59q172 0 315 72q18 10 23 -12l12 -39q6 -10 -18 -21q-152 -80 -342 -79q-256 0 -390 136t-134 392
q0 98 18 209q62 354 250 547t485 192q209 0 330 -78q16 -8 10 -22l-24 -37q-12 -20 -27 -10q-121 68 -285 67q-264 0 -429 -170t-222 -489q-18 -111 -18 -205q0 -453 446 -453z" />
    <glyph glyph-name="ccircumflex" unicode="&#x109;" horiz-adv-x="985" 
d="M500 1194h-39q-12 0 -14 7q-1 7 8 13l223 191q14 12 35 12h41q16 0 30 -12l156 -191q6 -6 3 -13t-15 -7h-37q-11 0 -23 14l-143 150l-195 -150q-16 -14 -30 -14zM680 1065q178 0 281 -66q14 -10 6 -22l-21 -37q-12 -16 -28 -8q-90 59 -234 59q-190 0 -314 -120t-165 -347
q-12 -59 -12 -139q-1 -162 81 -247t238 -85t272 64q20 10 25 -8l8 -39q0 -12 -16 -21q-131 -69 -304 -69t-281 106t-107 299q0 65 12 139q45 260 191 400t368 141z" />
    <glyph glyph-name="Cdotaccent" unicode="&#x10a;" horiz-adv-x="1206" 
d="M883 1550q-18 0 -15 19l25 143q6 18 22 19h58q20 -1 14 -19l-24 -143q-4 -18 -21 -19h-59zM686 59q172 0 315 72q18 10 23 -12l12 -39q6 -10 -18 -21q-152 -80 -342 -79q-256 0 -390 136t-134 392q0 98 18 209q62 354 250 547t485 192q209 0 330 -78q16 -8 10 -22
l-24 -37q-12 -20 -27 -10q-121 68 -285 67q-264 0 -429 -170t-222 -489q-18 -111 -18 -205q0 -453 446 -453z" />
    <glyph glyph-name="cdotaccent" unicode="&#x10b;" horiz-adv-x="985" 
d="M731 1194h-57q-18 0 -17 18l27 146q4 18 21 18h59q18 0 14 -18l-26 -146q-2 -18 -21 -18zM680 1065q178 0 281 -66q14 -10 6 -22l-21 -37q-12 -16 -28 -8q-90 59 -234 59q-190 0 -314 -120t-165 -347q-12 -59 -12 -139q-1 -162 81 -247t238 -85t272 64q20 10 25 -8l8 -39
q0 -12 -16 -21q-131 -69 -304 -69t-281 106t-107 299q0 65 12 139q45 260 191 400t368 141z" />
    <glyph glyph-name="Ccaron" unicode="&#x10c;" horiz-adv-x="1206" 
d="M1137 1763h43q12 0 13 -7t-7 -13l-219 -178q-12 -14 -35 -15h-41q-16 0 -29 15l-153 178q-6 6 -3 13t15 7h37q12 0 24 -14l140 -135l184 135q20 14 31 14zM686 59q172 0 315 72q18 10 23 -12l12 -39q6 -10 -18 -21q-152 -80 -342 -79q-256 0 -390 136t-134 392
q0 98 18 209q62 354 250 547t485 192q209 0 330 -78q16 -8 10 -22l-24 -37q-12 -20 -27 -10q-121 68 -285 67q-264 0 -429 -170t-222 -489q-18 -111 -18 -205q0 -453 446 -453z" />
    <glyph glyph-name="ccaron" unicode="&#x10d;" horiz-adv-x="985" 
d="M930 1417h43q25 0 6 -18l-225 -191q-20 -14 -35 -14h-41q-18 0 -31 14l-155 191q-6 6 -4 12t16 6h35q14 0 26 -12l142 -150l194 150q14 12 29 12zM680 1065q178 0 281 -66q14 -10 6 -22l-21 -37q-12 -16 -28 -8q-90 59 -234 59q-190 0 -314 -120t-165 -347
q-12 -59 -12 -139q-1 -162 81 -247t238 -85t272 64q20 10 25 -8l8 -39q0 -12 -16 -21q-131 -69 -304 -69t-281 106t-107 299q0 65 12 139q45 260 191 400t368 141z" />
    <glyph glyph-name="Dcaron" unicode="&#x10e;" horiz-adv-x="1357" 
d="M1092 1763h43q12 0 13 -7t-7 -13l-219 -178q-12 -14 -35 -15h-41q-16 0 -29 15l-153 178q-6 6 -4 13q3 7 16 7h37q12 0 24 -14l140 -135l184 135q20 14 31 14zM696 1356h-258l-225 -1276h260q151 0 261 29q248 65 360 298q61 128 96 318q20 129 20 209q0 236 -129 329
t-385 93zM473 0h-338q-20 0 -16 18l246 1399q4 18 22 19h313q293 0 447 -112t153 -380q0 -94 -22 -219q-70 -403 -266 -564t-539 -161z" />
    <glyph glyph-name="dcaron" unicode="&#x10f;" horiz-adv-x="1343" 
d="M1343 1077q-16 0 -8 19l76 190h-37q-18 0 -14 19l22 127q2 18 21 18h96q20 0 14 -18l-20 -123q0 -5 -8 -25l-96 -192q-8 -14 -23 -15h-23zM659 1065q145 0 243 -67t122 -187l106 606q6 18 21 19h45q20 0 16 -19l-247 -1399q-2 -18 -21 -18h-45q-18 0 -14 18l37 213
q-139 -252 -430 -251q-182 0 -284 102q-101 102 -102 293q0 74 15 147q49 264 186 404t352 139zM987 662q1 329 -335 329q-172 0 -290 -119t-157 -350q-14 -74 -15 -149q0 -319 310 -320q188 0 311 121t162 348q14 72 14 140z" />
    <glyph glyph-name="Dcroat" unicode="&#x110;" horiz-adv-x="1361" 
d="M700 1356h-258l-106 -602h338q16 0 14 -17l-6 -35q0 -18 -20 -18h-338l-107 -604h260q305 0 476 137t239 500q20 117 20 215q0 238 -128 331t-384 93zM477 0h-338q-20 0 -16 18l117 666h-134q-16 0 -12 18l6 35q0 16 19 17h133l117 663q4 18 22 19h314q293 0 445 -113
t153 -383q0 -84 -21 -223q-47 -272 -159 -433q-113 -160 -267 -222t-379 -62z" />
    <glyph glyph-name="dcroat" unicode="&#x111;" horiz-adv-x="1226" 
d="M987 662q1 329 -335 329q-172 0 -290 -119t-157 -350q-14 -74 -15 -149q0 -319 310 -320q188 0 311 121t162 348q14 72 14 140zM659 1065q145 0 243 -68t122 -188l72 410h-330q-16 0 -14 18l4 25q2 16 20 16h330l24 139q6 18 21 19h45q20 0 16 -19l-26 -139h123
q18 0 16 -16l-4 -25q-6 -18 -21 -18h-124l-211 -1201q-2 -18 -21 -18h-45q-18 0 -14 18l37 213q-139 -252 -435 -251q-182 0 -281 101t-100 292q0 72 15 149q47 262 186 402t352 141z" />
    <glyph glyph-name="Emacron" unicode="&#x112;" horiz-adv-x="1093" 
d="M1057 1573h-527q-18 0 -14 18l6 33q2 16 23 16h524q14 0 14 -16l-6 -33q-4 -18 -20 -18zM977 696h-655l-109 -616h680q20 0 16 -19l-6 -41q-6 -20 -22 -20h-746q-20 0 -16 18l246 1399q4 18 22 19h741q18 0 17 -19l-8 -43q-6 -18 -23 -18h-676l-102 -582h655q16 0 15 -18
l-7 -41q-6 -19 -22 -19z" />
    <glyph glyph-name="emacron" unicode="&#x113;" horiz-adv-x="1112" 
d="M958 1212h-518q-18 0 -14 19l4 31q4 16 23 16h518q14 0 14 -16l-6 -31q-5 -19 -21 -19zM952 694q0 141 -70 220q-72 79 -236 79q-164 -1 -279 -113t-158 -327h729q14 63 14 141zM533 47q168 0 307 70q20 10 24 -11l8 -34q2 -10 -16 -21q-156 -76 -342 -76
q-186 -1 -296 105t-109 301q0 72 14 143q45 258 184 400t357 141q180 0 274 -101t94 -274q0 -55 -12 -121l-12 -67q-2 -18 -21 -19h-790q-8 -47 -9 -100q0 -158 88 -247t257 -89z" />
    <glyph glyph-name="Ebreve" unicode="&#x114;" horiz-adv-x="1093" 
d="M816 1546q-120 0 -178 58t-48 133q6 16 18 16h29q16 0 16 -14q6 -61 41 -95t125 -34q156 0 209 129q4 14 21 14h28q18 0 13 -16q-16 -79 -85 -135t-189 -56zM977 696h-655l-109 -616h680q20 0 16 -19l-6 -41q-6 -20 -22 -20h-746q-20 0 -16 18l246 1399q4 18 22 19h741
q18 0 17 -19l-8 -43q-6 -18 -23 -18h-676l-102 -582h655q16 0 15 -18l-7 -41q-6 -19 -22 -19z" />
    <glyph glyph-name="ebreve" unicode="&#x115;" horiz-adv-x="1112" 
d="M705 1188q-125 0 -181 62q-55 62 -43 143q4 16 19 16h28q14 0 17 -14q2 -66 35 -104t127 -38t139 37t74 105q2 14 18 14h29q18 0 14 -16q-19 -85 -85 -145t-191 -60zM952 694q0 141 -70 220q-72 79 -236 79q-164 -1 -279 -113t-158 -327h729q14 63 14 141zM533 47
q168 0 307 70q20 10 24 -11l8 -34q2 -10 -16 -21q-156 -76 -342 -76q-186 -1 -296 105t-109 301q0 72 14 143q45 258 184 400t357 141q180 0 274 -101t94 -274q0 -55 -12 -121l-12 -67q-2 -18 -21 -19h-790q-8 -47 -9 -100q0 -158 88 -247t257 -89z" />
    <glyph glyph-name="Edotaccent" unicode="&#x116;" horiz-adv-x="1093" 
d="M795 1550q-16 0 -15 19l25 143q6 18 22 19h58q20 -1 14 -19l-25 -143q-2 -18 -20 -19h-59zM977 696h-655l-109 -616h680q20 0 16 -19l-6 -41q-6 -20 -22 -20h-746q-20 0 -16 18l246 1399q4 18 22 19h741q18 0 17 -19l-8 -43q-6 -18 -23 -18h-676l-102 -582h655
q16 0 15 -18l-7 -41q-6 -19 -22 -19z" />
    <glyph glyph-name="edotaccent" unicode="&#x117;" horiz-adv-x="1112" 
d="M725 1194h-57q-20 0 -17 18l27 146q2 18 20 18h60q16 0 14 -18l-27 -146q-4 -18 -20 -18zM952 694q0 141 -70 220q-72 79 -236 79q-164 -1 -279 -113t-158 -327h729q14 63 14 141zM533 47q168 0 307 70q20 10 24 -11l8 -34q2 -10 -16 -21q-156 -76 -342 -76
q-186 -1 -296 105t-109 301q0 72 14 143q45 258 184 400t357 141q180 0 274 -101t94 -274q0 -55 -12 -121l-12 -67q-2 -18 -21 -19h-790q-8 -47 -9 -100q0 -158 88 -247t257 -89z" />
    <glyph glyph-name="Eogonek" unicode="&#x118;" horiz-adv-x="1093" 
d="M977 696h-655l-109 -616h680q20 0 16 -19l-6 -41q-6 -20 -22 -20h-60q-184 -76 -184 -188q0 -57 102 -58q31 0 59 7t29 -3l2 -30q0 -8 -8 -17q-45 -23 -109 -23t-105 28q-42 28 -42 81q0 123 174 203h-604q-20 0 -16 18l246 1399q4 18 22 19h741q18 0 17 -19l-8 -43
q-6 -18 -23 -18h-676l-102 -582h655q16 0 15 -18l-7 -41q-6 -19 -22 -19z" />
    <glyph glyph-name="eogonek" unicode="&#x119;" horiz-adv-x="1112" 
d="M952 694q0 141 -70 220q-72 79 -236 79q-164 -1 -279 -113t-158 -327h729q14 63 14 141zM533 47q168 0 307 70q20 10 24 -11l8 -34q2 -10 -16 -21q-104 -53 -227 -69q-135 -70 -135 -160q0 -53 96 -53q41 0 61 6t21 -4l2 -29q0 -12 -8 -16q-38 -20 -100 -20t-102 25
q-40 26 -40 76q0 98 115 168h-7q-204 -1 -314 105t-109 301q0 72 14 143q45 258 184 400t357 141q180 0 274 -101t94 -274q0 -55 -12 -121l-12 -67q-2 -18 -21 -19h-790q-8 -47 -9 -100q0 -158 88 -247t257 -89z" />
    <glyph glyph-name="Ecaron" unicode="&#x11a;" horiz-adv-x="1093" 
d="M1020 1763h43q12 0 13 -7t-7 -13l-219 -178q-12 -14 -35 -15h-41q-16 0 -29 15l-153 178q-6 6 -3 13t15 7h37q12 0 25 -14l139 -135l184 135q20 14 31 14zM977 696h-655l-109 -616h680q20 0 16 -19l-6 -41q-6 -20 -22 -20h-746q-20 0 -16 18l246 1399q4 18 22 19h741
q18 0 17 -19l-8 -43q-6 -18 -23 -18h-676l-102 -582h655q16 0 15 -18l-7 -41q-6 -19 -22 -19z" />
    <glyph glyph-name="ecaron" unicode="&#x11b;" horiz-adv-x="1112" 
d="M928 1417h43q25 0 6 -18l-225 -191q-23 -14 -35 -14h-41q-18 0 -31 14l-156 191q-6 6 -3 12t16 6h35q14 0 26 -12l142 -150l194 150q14 12 29 12zM952 694q0 141 -70 220q-72 79 -236 79q-164 -1 -279 -113t-158 -327h729q14 63 14 141zM533 47q168 0 307 70
q20 10 24 -11l8 -34q2 -10 -16 -21q-156 -76 -342 -76q-186 -1 -296 105t-109 301q0 72 14 143q45 258 184 400t357 141q180 0 274 -101t94 -274q0 -55 -12 -121l-12 -67q-2 -18 -21 -19h-790q-8 -47 -9 -100q0 -158 88 -247t257 -89z" />
    <glyph glyph-name="Gcircumflex" unicode="&#x11c;" horiz-adv-x="1384" 
d="M717 1550q-11 0 -13 8t7 13l219 178q14 14 35 14h41q12 0 30 -14l154 -178q6 -6 3 -13t-15 -8h-37q-15 1 -27 15l-137 135l-186 -135q-20 -14 -33 -15h-41zM813 788h440q20 0 19 -18l-117 -655q-4 -27 -37 -47q-172 -88 -426 -88t-398 133q-142 133 -142 393
q0 102 20 213q131 737 776 737q225 0 361 -82q16 -10 10 -22l-25 -39q-14 -18 -28 -10q-125 74 -320 73q-291 0 -460 -163t-228 -494q-18 -117 -18 -209q0 -451 479 -451q207 0 354 72l105 580h-377q-23 0 -19 18l9 41q4 18 22 18z" />
    <glyph glyph-name="gcircumflex" unicode="&#x11d;" horiz-adv-x="1163" 
d="M496 1194h-39q-12 0 -14 7q-1 7 8 13l223 191q14 12 35 12h41q16 0 30 -12l156 -191q6 -6 3 -13t-15 -7h-37q-11 0 -23 14l-143 150l-195 -150q-16 -14 -30 -14zM883 322q-133 -238 -419 -238q-149 0 -247 95t-98 270q0 57 12 124q41 238 172 365t328 127q131 0 225 -61
t117 -166l33 184q2 18 20 18h43q20 0 14 -18l-153 -877q-33 -197 -159 -296t-334 -99t-335 70q-16 8 -8 18l21 39q10 14 26 10q129 -63 303 -63q348 0 408 328zM940 702q0 144 -78 218t-234 74t-268 -107q-111 -106 -147 -314q-10 -55 -10 -124q0 -293 289 -293
q170 0 286 114t150 318q12 61 12 114z" />
    <glyph glyph-name="Gbreve" unicode="&#x11e;" horiz-adv-x="1384" 
d="M957 1546q-120 0 -178 58t-48 133q6 16 19 16h28q16 0 17 -14q6 -61 41 -95t125 -34q156 0 208 129q4 14 21 14h29q18 0 12 -16q-16 -79 -85 -135t-189 -56zM813 788h440q20 0 19 -18l-117 -655q-4 -27 -37 -47q-172 -88 -426 -88t-398 133q-142 133 -142 393
q0 102 20 213q131 737 776 737q225 0 361 -82q16 -10 10 -22l-25 -39q-14 -18 -28 -10q-125 74 -320 73q-291 0 -460 -163t-228 -494q-18 -117 -18 -209q0 -451 479 -451q207 0 354 72l105 580h-377q-23 0 -19 18l9 41q4 18 22 18z" />
    <glyph glyph-name="gbreve" unicode="&#x11f;" horiz-adv-x="1163" 
d="M698 1188q-125 0 -180 62t-43 143q4 16 19 16h28q14 0 17 -14q3 -66 35 -104t126 -38t140 37q45 37 73 105q2 14 19 14h29q18 0 14 -16q-18 -85 -85 -145t-192 -60zM883 322q-133 -238 -419 -238q-149 0 -247 95t-98 270q0 57 12 124q41 238 172 365t328 127
q131 0 225 -61t117 -166l33 184q2 18 20 18h43q20 0 14 -18l-153 -877q-33 -197 -159 -296t-334 -99t-335 70q-16 8 -8 18l21 39q10 14 26 10q129 -63 303 -63q348 0 408 328zM940 702q0 144 -78 218t-234 74t-268 -107q-111 -106 -147 -314q-10 -55 -10 -124
q0 -293 289 -293q170 0 286 114t150 318q12 61 12 114z" />
    <glyph glyph-name="Gdotaccent" unicode="&#x120;" horiz-adv-x="1384" 
d="M938 1550q-16 0 -14 19l24 143q6 18 23 19h57q20 -1 14 -19l-24 -143q-2 -18 -21 -19h-59zM813 788h440q20 0 19 -18l-117 -655q-4 -27 -37 -47q-172 -88 -426 -88t-398 133q-142 133 -142 393q0 102 20 213q131 737 776 737q225 0 361 -82q16 -10 10 -22l-25 -39
q-14 -18 -28 -10q-125 74 -320 73q-291 0 -460 -163t-228 -494q-18 -117 -18 -209q0 -451 479 -451q207 0 354 72l105 580h-377q-23 0 -19 18l9 41q4 18 22 18z" />
    <glyph glyph-name="gdotaccent" unicode="&#x121;" horiz-adv-x="1163" 
d="M737 1194h-57q-20 0 -16 18l26 146q2 18 21 18h59q16 0 14 -18l-26 -146q-4 -18 -21 -18zM883 322q-133 -238 -419 -238q-149 0 -247 95t-98 270q0 57 12 124q41 238 172 365t328 127q131 0 225 -61t117 -166l33 184q2 18 20 18h43q20 0 14 -18l-153 -877
q-33 -197 -159 -296t-334 -99t-335 70q-16 8 -8 18l21 39q10 14 26 10q129 -63 303 -63q348 0 408 328zM940 702q0 144 -78 218t-234 74t-268 -107q-111 -106 -147 -314q-10 -55 -10 -124q0 -293 289 -293q170 0 286 114t150 318q12 61 12 114z" />
    <glyph glyph-name="Gcommaaccent" unicode="&#x122;" horiz-adv-x="1384" 
d="M621 -459q-16 0 -11 21l74 174h-41q-16 0 -14 18l20 119q4 16 23 16h90q18 0 14 -16l-20 -115q0 -8 -6 -24l-93 -176q-10 -16 -22 -17h-14zM813 788h440q20 0 19 -18l-117 -655q-4 -27 -37 -47q-172 -88 -426 -88t-398 133q-142 133 -142 393q0 102 20 213
q131 737 776 737q225 0 361 -82q16 -10 10 -22l-25 -39q-14 -18 -28 -10q-125 74 -320 73q-291 0 -460 -163t-228 -494q-18 -117 -18 -209q0 -451 479 -451q207 0 354 72l105 580h-377q-23 0 -19 18l9 41q4 18 22 18z" />
    <glyph glyph-name="gcommaaccent" unicode="&#x123;" horiz-adv-x="1163" 
d="M936 1516q16 0 8 -19l-61 -162h39q16 0 14 -18l-21 -113q0 -16 -20 -16h-88q-16 0 -16 16l18 109q2 10 10 24l80 162q6 16 23 17h14zM883 322q-133 -238 -419 -238q-149 0 -247 95t-98 270q0 57 12 124q41 238 172 365t328 127q131 0 225 -61t117 -166l33 184q2 18 20 18
h43q20 0 14 -18l-153 -877q-33 -197 -159 -296t-334 -99t-335 70q-16 8 -8 18l21 39q10 14 26 10q129 -63 303 -63q348 0 408 328zM940 702q0 144 -78 218t-234 74t-268 -107q-111 -106 -147 -314q-10 -55 -10 -124q0 -293 289 -293q170 0 286 114t150 318q12 61 12 114z
" />
    <glyph glyph-name="Hcircumflex" unicode="&#x124;" horiz-adv-x="1411" 
d="M664 1550q-12 0 -14 8t7 13l220 178q14 14 34 14h41q12 0 31 -14l154 -178q6 -6 3 -13t-16 -8h-37q-14 1 -26 15l-137 135l-187 -135q-20 -14 -32 -15h-41zM182 0h-47q-20 0 -16 18l246 1399q4 18 22 19h47q20 0 17 -19l-113 -641h844l112 641q4 18 21 19h49q16 0 14 -19
l-245 -1399q-2 -18 -21 -18h-49q-20 0 -14 18l118 676h-843l-119 -676q-6 -18 -23 -18z" />
    <glyph glyph-name="hcircumflex" unicode="&#x125;" horiz-adv-x="1187" 
d="M553 1550q-12 0 -13 8t7 13l219 178q14 14 35 14h41q12 0 30 -14l154 -178q6 -6 3 -13t-15 -8h-37q-15 1 -27 15l-137 135l-186 -135q-20 -14 -33 -15h-41zM922 0h-43q-18 0 -17 18l119 672q8 57 8 80q0 219 -258 219q-164 0 -287 -97t-149 -245l-111 -629
q-4 -18 -20 -18h-45q-20 0 -15 18l246 1399q2 18 21 19h45q20 0 14 -19l-100 -579q51 92 154 160q104 68 264 67q160 0 242 -75t81 -208q0 -27 -8 -84l-121 -680q-4 -18 -20 -18z" />
    <glyph glyph-name="Hbar" unicode="&#x126;" horiz-adv-x="1368" 
d="M338 776h844l59 340h-844zM182 0h-47q-20 0 -16 18l192 1098h-123q-20 0 -14 19l4 24q6 16 21 17h125l41 241q4 18 22 19h47q20 0 17 -19l-43 -241h843l43 241q4 18 21 19h49q16 0 14 -21l-41 -239h123q23 0 15 -17l-5 -24q-4 -18 -20 -19h-125l-192 -1098
q-2 -18 -21 -18h-49q-20 0 -14 18l118 676h-843l-119 -676q-6 -18 -23 -18z" />
    <glyph glyph-name="hbar" unicode="&#x127;" horiz-adv-x="1187" 
d="M922 0h-43q-18 0 -17 18l119 672q8 57 8 80q0 219 -258 219q-164 0 -287 -97t-149 -245l-111 -629q-4 -18 -20 -18h-45q-20 0 -15 18l211 1201h-125q-18 0 -12 18l2 25q6 16 21 16h125l24 139q2 18 21 19h45q20 0 14 -19l-24 -139h329q20 0 15 -16l-5 -25q-4 -18 -20 -18
h-330l-65 -381q51 92 154 160q104 68 264 67q160 0 242 -75t81 -208q0 -27 -8 -84l-121 -680q-4 -18 -20 -18z" />
    <glyph glyph-name="Itilde" unicode="&#x128;" horiz-adv-x="507" 
d="M614 1538q-60 0 -151 43l-45 21q-162 77 -195 -7l-8 -28q-8 -23 -31 -23h-22q-16 0 -15 25q11 61 51 98t101 37t152 -43l47 -23q161 -76 192 17l6 22q8 23 33 23h21q18 0 14 -25q-10 -61 -50 -99t-100 -38zM446 1436q20 0 17 -19l-246 -1399q-4 -18 -22 -18h-48
q-20 0 -16 18l246 1399q6 18 22 19h47z" />
    <glyph glyph-name="itilde" unicode="&#x129;" horiz-adv-x="442" 
d="M504 1194q-59 0 -137 39l-41 20q-66 31 -110 31t-60 -37l-13 -28q-12 -20 -30 -21h-23q-16 0 -12 23q10 57 47 91t94 34t141 -39l41 -21q70 -33 114 -33t60 45l9 23q6 20 30 20h25q14 1 7 -38t-45 -74t-97 -35zM162 0h-45q-20 0 -15 18l177 1004q4 18 20 18h45
q16 0 14 -18l-176 -1004q-6 -18 -20 -18z" />
    <glyph glyph-name="Imacron" unicode="&#x12a;" horiz-adv-x="507" 
d="M711 1573h-527q-16 0 -14 18l6 33q2 16 23 16h524q14 0 14 -16l-6 -33q-2 -18 -20 -18zM446 1436q20 0 17 -19l-246 -1399q-4 -18 -22 -18h-48q-20 0 -16 18l246 1399q6 18 22 19h47z" />
    <glyph glyph-name="imacron" unicode="&#x12b;" horiz-adv-x="442" 
d="M612 1212h-518q-16 0 -14 19l4 31q4 16 22 16h519q14 0 14 -16l-6 -31q-3 -19 -21 -19zM162 0h-45q-20 0 -15 18l177 1004q4 18 20 18h45q16 0 14 -18l-176 -1004q-6 -18 -20 -18z" />
    <glyph glyph-name="Ibreve" unicode="&#x12c;" horiz-adv-x="507" 
d="M452 1546q-120 0 -178 58t-49 133q6 16 19 16h28q16 0 17 -14q6 -61 41 -95t125 -34q156 0 209 129q4 14 20 14h29q18 0 12 -16q-17 -79 -85 -135t-188 -56zM446 1436q20 0 17 -19l-246 -1399q-4 -18 -22 -18h-48q-20 0 -16 18l246 1399q6 18 22 19h47z" />
    <glyph glyph-name="ibreve" unicode="&#x12d;" horiz-adv-x="442" 
d="M358 1188q-125 0 -180 62t-43 143q4 16 19 16h28q14 0 17 -14q3 -66 35 -104t126 -38t140 37q45 37 73 105q2 14 19 14h29q18 0 14 -16q-18 -85 -85 -145t-192 -60zM162 0h-45q-20 0 -15 18l177 1004q4 18 20 18h45q16 0 14 -18l-176 -1004q-6 -18 -20 -18z" />
    <glyph glyph-name="Iogonek" unicode="&#x12e;" horiz-adv-x="507" 
d="M446 1436q20 0 17 -19l-246 -1399q-4 -18 -22 -18h-19q-184 -76 -184 -188q0 -57 102 -58q32 0 60 7t28 -3l2 -30q0 -8 -8 -17q-44 -23 -108 -23t-106 28t-42 92t62 118q62 55 149 88v4l246 1399q6 18 22 19h47z" />
    <glyph glyph-name="iogonek" unicode="&#x12f;" horiz-adv-x="442" 
d="M328 1202q-16 0 -15 19l31 174q4 18 21 18h45q16 0 14 -18l-31 -174q-4 -18 -20 -19h-45zM162 0h-29q-172 -74 -172 -178q0 -53 96 -53q41 0 61 6t21 -4l2 -29q0 -12 -8 -16q-37 -20 -99 -20q-143 -1 -143 113q1 61 63 117t148 84l177 1002q4 18 20 18h45q16 0 14 -18
l-176 -1004q-6 -18 -20 -18z" />
    <glyph glyph-name="Idotaccent" unicode="&#x130;" horiz-adv-x="507" 
d="M414 1550q-16 0 -15 19l25 143q6 18 22 19h58q20 -1 14 -19l-24 -143q-2 -18 -21 -19h-59zM446 1436q20 0 17 -19l-246 -1399q-4 -18 -22 -18h-48q-20 0 -16 18l246 1399q6 18 22 19h47z" />
    <glyph glyph-name="dotlessi" unicode="&#x131;" horiz-adv-x="442" 
d="M162 0h-45q-20 0 -15 18l177 1004q4 18 20 18h45q16 0 14 -18l-176 -1004q-6 -18 -20 -18z" />
    <glyph glyph-name="IJ" unicode="&#x132;" horiz-adv-x="1423" 
d="M1380 1436q16 0 15 -19l-181 -1020q-37 -209 -142 -314t-296 -106q-88 0 -170 24t-127 56q-16 14 -8 27l25 39q8 23 26 8q102 -74 254 -74q297 0 354 346l181 1014q4 18 20 19h49zM446 1436q20 0 17 -19l-246 -1399q-4 -18 -22 -18h-48q-20 0 -16 18l246 1399q6 18 22 19
h47z" />
    <glyph glyph-name="ij" unicode="&#x133;" horiz-adv-x="899" 
d="M786 1202q-16 0 -16 19l31 174q2 18 20 18h45q21 0 15 -18l-31 -174q0 -18 -21 -19h-43zM756 1040h45q20 0 14 -18l-139 -791q-20 -125 -72 -185t-151 -60q-63 0 -113 14q-18 4 -12 20l10 39q6 12 24 11q44 -10 96 -10q104 -1 140 180l137 782q2 18 21 18zM328 1202
q-16 0 -15 19l31 174q4 18 21 18h45q16 0 14 -18l-31 -174q-4 -18 -20 -19h-45zM162 0h-45q-20 0 -15 18l177 1004q4 18 20 18h45q16 0 14 -18l-176 -1004q-6 -18 -20 -18z" />
    <glyph glyph-name="Jcircumflex" unicode="&#x134;" horiz-adv-x="937" 
d="M418 1550q-12 0 -14 8t8 13l219 178q14 14 35 14h41q12 0 30 -14l154 -178q6 -6 3 -13t-15 -8h-37q-15 1 -27 15l-137 135l-186 -135q-20 -14 -33 -15h-41zM901 1436q16 0 14 -19l-180 -1020q-37 -209 -142 -314t-296 -106q-88 0 -170 24t-127 56q-16 14 -8 27l24 39
q8 23 27 8q102 -74 254 -74q297 0 354 346l180 1014q4 18 21 19h49z" />
    <glyph glyph-name="jcircumflex" unicode="&#x135;" horiz-adv-x="458" 
d="M166 1194h-39q-12 0 -13 7t7 13l223 191q14 12 35 12h41q14 0 31 -12l155 -191q6 -6 3 -13t-15 -7h-37q-10 0 -22 14l-144 150l-194 -150q-16 -14 -31 -14zM313 1040h45q20 0 15 -18l-178 -1012q-39 -243 -207 -243q-84 0 -127 12q-16 6 -11 22l11 37q6 14 22 12
q45 -10 97 -10q106 0 137 178l176 1004q6 18 20 18z" />
    <glyph glyph-name="Kcommaaccent" unicode="&#x136;" horiz-adv-x="1183" 
d="M453 -459q-16 0 -11 21l74 174h-41q-16 0 -14 18l20 119q4 16 23 16h90q18 0 14 -16l-20 -115q0 -8 -6 -24l-93 -176q-10 -16 -22 -17h-14zM1253 1436q13 0 15 -10t-8 -17l-861 -647l635 -735q10 -7 7 -17t-15 -10h-55q-18 0 -35 16l-608 701l-123 -699q-6 -18 -23 -18
h-47q-20 0 -16 18l246 1399q4 18 22 19h47q20 0 17 -19l-109 -604l807 608q25 14 35 15h69z" />
    <glyph glyph-name="kcommaaccent" unicode="&#x137;" horiz-adv-x="950" 
d="M369 -438h-15q-16 0 -8 18l62 162h-39q-16 0 -15 18l21 113q0 16 20 16h88q16 0 17 -16l-19 -109q-2 -12 -10 -24l-80 -162q-6 -16 -22 -16zM813 0h-57q-14 0 -27 12l-453 525l-92 -519q-4 -18 -20 -18h-45q-20 0 -15 18l246 1399q2 18 21 19h45q20 0 14 -19l-135 -772
l571 385q14 10 29 10h78q12 0 13 -7t-11 -15l-643 -432l493 -563q6 -7 2 -15t-14 -8z" />
    <glyph glyph-name="kgreenlandic" unicode="&#x138;" horiz-adv-x="942" 
d="M805 0h-57q-14 0 -27 12l-453 525l-92 -519q-4 -18 -20 -18h-45q-20 0 -15 18l176 1004q2 18 21 18h43q18 0 16 -18l-65 -377l571 385q14 10 29 10h78q12 0 13 -7t-11 -15l-643 -432l493 -563q6 -7 2 -15t-14 -8z" />
    <glyph glyph-name="Lacute" unicode="&#x139;" horiz-adv-x="1060" 
d="M655 1767h70q16 0 12 -15q-2 -7 -8 -11l-217 -176q-12 -14 -33 -15h-28q-9 0 -11 8t6 13l168 176q20 20 41 20zM909 80q16 0 15 -19l-6 -43q-4 -18 -23 -18h-735q-20 0 -17 18l246 1399q4 18 23 19h47q20 -1 16 -19l-237 -1337h671z" />
    <glyph glyph-name="lacute" unicode="&#x13a;" horiz-adv-x="442" 
d="M594 1767h70q16 0 12 -15q-2 -7 -8 -11l-217 -176q-12 -14 -33 -15h-29q-8 0 -10 8t6 13l168 176q20 20 41 20zM162 0h-45q-20 0 -15 18l246 1399q4 18 21 19h45q16 -1 14 -19l-246 -1399q-6 -18 -20 -18z" />
    <glyph glyph-name="Lcommaaccent" unicode="&#x13b;" horiz-adv-x="1060" 
d="M332 -459q-16 0 -10 21l73 174h-41q-18 0 -14 18l20 119q4 16 23 16h90q18 0 14 -16l-20 -115q0 -8 -6 -24l-92 -176q-10 -16 -23 -17h-14zM885 80q16 0 14 -19l-6 -43q-4 -18 -23 -18h-735q-20 0 -16 18l246 1399q4 18 22 19h47q21 -1 17 -19l-238 -1337h672z" />
    <glyph glyph-name="lcommaaccent" unicode="&#x13c;" horiz-adv-x="442" 
d="M47 -438h-14q-16 0 -8 18l61 162h-39q-18 0 -14 18l20 113q0 16 21 16h88q16 0 16 -16l-18 -109q-2 -12 -10 -24l-80 -162q-6 -16 -23 -16zM166 0h-45q-20 0 -15 18l246 1399q4 18 21 19h45q16 -1 14 -19l-246 -1399q-6 -18 -20 -18z" />
    <glyph glyph-name="Lcaron" unicode="&#x13d;" horiz-adv-x="1060" 
d="M698 1077q-16 0 -8 19l76 190h-37q-16 0 -14 19l22 127q4 18 21 18h96q20 0 14 -18l-20 -123q0 -5 -8 -25l-97 -192q-6 -14 -22 -15h-23zM885 80q16 0 14 -19l-6 -43q-4 -18 -23 -18h-735q-20 0 -16 18l246 1399q4 18 22 19h47q21 -1 17 -19l-238 -1337h672z" />
    <glyph glyph-name="lcaron" unicode="&#x13e;" horiz-adv-x="565" 
d="M563 1077q-16 0 -8 19l76 190h-37q-16 0 -14 19l22 127q4 18 21 18h96q20 0 14 -18l-20 -123q0 -5 -8 -25l-97 -192q-6 -14 -22 -15h-23zM166 0h-45q-20 0 -15 18l246 1399q4 18 21 19h45q16 -1 14 -19l-246 -1399q-6 -18 -20 -18z" />
    <glyph glyph-name="Ldot" unicode="&#x13f;" horiz-adv-x="1067" 
d="M834 733h88q16 0 14 -18l-21 -127q-6 -18 -20 -19h-90q-18 1 -14 19l20 127q6 18 23 18zM885 80q16 0 14 -19l-6 -43q-4 -18 -23 -18h-735q-20 0 -16 18l246 1399q4 18 22 19h47q21 -1 17 -19l-238 -1337h672z" />
    <glyph glyph-name="ldot" unicode="&#x140;" horiz-adv-x="546" 
d="M471 606h88q18 0 14 -18l-20 -127q-6 -18 -21 -19h-90q-16 1 -14 19l21 127q6 18 22 18zM154 0h-45q-20 0 -15 18l246 1399q4 18 20 19h46q16 -1 14 -19l-246 -1399q-6 -18 -20 -18z" />
    <glyph glyph-name="Lslash" unicode="&#x141;" horiz-adv-x="1064" 
d="M889 80q16 0 14 -19l-6 -43q-4 -18 -23 -18h-735q-20 0 -16 18l100 570l-86 -45q-16 -8 -24 8l-9 22q-4 14 11 25l121 64l133 755q4 18 22 19h47q21 -1 17 -19l-125 -706l321 170q16 8 23 -7l12 -24q2 -14 -14 -23l-355 -188l-100 -559h672z" />
    <glyph glyph-name="lslash" unicode="&#x142;" horiz-adv-x="450" 
d="M166 0h-45q-20 0 -15 18l113 639l-65 -32q-18 -8 -25 8l-10 22q-6 16 12 25l100 53l121 684q4 18 21 19h45q16 -1 14 -19l-113 -639l66 35q18 8 25 -8l8 -23q6 -14 -10 -22l-101 -55l-121 -687q-6 -18 -20 -18z" />
    <glyph glyph-name="Nacute" unicode="&#x143;" horiz-adv-x="1413" 
d="M1069 1767h70q16 0 12 -15q-2 -7 -8 -11l-217 -176q-12 -14 -33 -15h-29q-8 0 -10 8t6 13l168 176q20 20 41 20zM1114 0h-49q-20 0 -29 14l-608 1282l-225 -1278q-2 -18 -21 -18h-47q-20 0 -16 18l246 1399q4 18 22 19h49q20 0 27 -15l610 -1284l225 1280q4 18 21 19h47
q18 -1 16 -19l-245 -1399q-6 -18 -23 -18z" />
    <glyph glyph-name="nacute" unicode="&#x144;" horiz-adv-x="1173" 
d="M844 1421h69q17 0 13 -15q-2 -7 -8 -11l-224 -187q-18 -14 -32 -14h-27q-8 0 -10 8t6 15l172 184q20 20 41 20zM907 0h-43q-20 0 -16 18l119 674q8 39 8 82q0 215 -254 215q-164 0 -286 -96t-150 -246l-111 -629q-2 -18 -20 -18h-43q-20 0 -17 18l176 1004q6 18 23 18h43
q16 0 14 -18l-31 -182q135 225 418 225q158 0 239 -74t81 -205q0 -47 -8 -88l-121 -680q-2 -18 -21 -18z" />
    <glyph glyph-name="Ncommaaccent" unicode="&#x145;" horiz-adv-x="1413" 
d="M508 -459q-16 0 -10 21l73 174h-41q-18 0 -14 18l21 119q4 16 22 16h90q18 0 15 -16l-21 -115q0 -8 -6 -24l-92 -176q-10 -16 -23 -17h-14zM1114 0h-49q-20 0 -29 14l-608 1282l-225 -1278q-2 -18 -21 -18h-47q-20 0 -16 18l246 1399q4 18 22 19h49q20 0 27 -15
l610 -1284l225 1280q4 18 21 19h47q18 -1 16 -19l-245 -1399q-6 -18 -23 -18z" />
    <glyph glyph-name="ncommaaccent" unicode="&#x146;" horiz-adv-x="1173" 
d="M430 -438h-14q-16 0 -8 18l61 162h-39q-16 0 -14 18l20 113q0 16 21 16h88q16 0 16 -16l-18 -109q-3 -12 -11 -24l-79 -162q-6 -16 -23 -16zM907 0h-43q-20 0 -16 18l119 674q8 39 8 82q0 215 -254 215q-164 0 -286 -96t-150 -246l-111 -629q-2 -18 -20 -18h-43
q-20 0 -17 18l176 1004q6 18 23 18h43q16 0 14 -18l-31 -182q135 225 418 225q158 0 239 -74t81 -205q0 -47 -8 -88l-121 -680q-2 -18 -21 -18z" />
    <glyph glyph-name="Ncaron" unicode="&#x147;" horiz-adv-x="1413" 
d="M1120 1763h43q11 0 13 -7t-7 -13l-219 -178q-12 -14 -35 -15h-41q-16 0 -28 15l-154 178q-6 6 -3 13t16 7h36q12 0 25 -14l139 -135l185 135q20 14 30 14zM1114 0h-49q-20 0 -29 14l-608 1282l-225 -1278q-2 -18 -21 -18h-47q-20 0 -16 18l246 1399q4 18 22 19h49
q20 0 27 -15l610 -1284l225 1280q4 18 21 19h47q18 -1 16 -19l-245 -1399q-6 -18 -23 -18z" />
    <glyph glyph-name="ncaron" unicode="&#x148;" horiz-adv-x="1173" 
d="M944 1417h43q25 0 6 -18l-225 -191q-23 -14 -35 -14h-41q-18 0 -30 14l-156 191q-6 6 -3 12t15 6h35q14 0 27 -12l141 -150l194 150q14 12 29 12zM907 0h-43q-20 0 -16 18l119 674q8 39 8 82q0 215 -254 215q-164 0 -286 -96t-150 -246l-111 -629q-2 -18 -20 -18h-43
q-20 0 -17 18l176 1004q6 18 23 18h43q16 0 14 -18l-31 -182q135 225 418 225q158 0 239 -74t81 -205q0 -47 -8 -88l-121 -680q-2 -18 -21 -18z" />
    <glyph glyph-name="napostrophe" unicode="&#x149;" horiz-adv-x="1298" 
d="M135 1085q-16 0 -8 19l76 190h-37q-18 0 -14 19l22 127q2 18 21 18h96q20 0 14 -18l-20 -123q-1 -5 -9 -25l-96 -192q-8 -14 -22 -15h-23zM1032 0h-43q-18 0 -16 18l119 674q8 39 8 82q0 215 -254 215q-164 0 -286 -96t-150 -246l-111 -629q-4 -18 -20 -18h-43
q-18 0 -17 18l176 1004q6 18 23 18h43q18 0 14 -18l-31 -182q135 225 418 225q158 0 239 -74t81 -205q0 -47 -8 -88l-121 -680q-4 -18 -21 -18z" />
    <glyph glyph-name="Eng" unicode="&#x14a;" horiz-adv-x="1413" 
d="M879 -233q-155 0 -142 36l21 39q6 20 32 10t84 -12q141 0 173 154l-619 1302l-225 -1278q-2 -18 -21 -18h-47q-20 0 -16 18l246 1399q4 18 22 19h51q20 0 29 -15l606 -1284l225 1280q4 18 21 19h47q18 -1 16 -19l-249 -1419q-41 -231 -254 -231z" />
    <glyph glyph-name="eng" unicode="&#x14b;" horiz-adv-x="1173" 
d="M973 776q0 213 -252 213q-164 0 -286 -96t-150 -246l-111 -629q-2 -18 -20 -18h-43q-20 0 -17 18l176 1004q6 18 23 18h43q20 0 14 -18l-31 -182q53 90 159 158t265 67q158 0 236 -72t78 -202q0 -49 -8 -93l-123 -688q-20 -121 -72 -182t-154 -61q-57 0 -110 14
q-16 4 -10 20l10 37q6 14 24 12q45 -10 82 -10q119 0 152 178l117 672q8 41 8 86z" />
    <glyph glyph-name="Omacron" unicode="&#x14c;" horiz-adv-x="1429" 
d="M1171 1573h-526q-18 0 -14 18l6 33q2 16 22 16h525q14 0 14 -16l-6 -33q-5 -18 -21 -18zM641 57q254 0 409 170t212 490q20 133 20 219q0 440 -408 440q-252 0 -408 -170t-212 -489q-20 -111 -21 -217q0 -443 408 -443zM879 1456q243 0 367 -134t124 -384q0 -96 -22 -221
q-64 -353 -242 -545t-467 -192q-242 0 -367 135t-125 385q0 100 19 217q64 355 244 547t469 192z" />
    <glyph glyph-name="omacron" unicode="&#x14d;" horiz-adv-x="1167" 
d="M973 1212h-518q-16 0 -15 19l4 31q4 16 23 16h518q14 0 14 -16l-6 -31q-2 -19 -20 -19zM525 53q173 0 295 120t161 349q12 76 12 142q0 328 -317 327q-190 0 -310 -120t-161 -349q-14 -72 -15 -141q0 -328 335 -328zM524 -20q-206 0 -312 104q-105 104 -106 297
q0 51 15 141q47 260 190 402t350 141q207 0 311 -104t105 -295q0 -53 -14 -144q-45 -260 -189 -401t-350 -141z" />
    <glyph glyph-name="Obreve" unicode="&#x14e;" horiz-adv-x="1429" 
d="M912 1546q-120 0 -178 58t-48 133q6 16 19 16h28q16 0 17 -14q6 -61 41 -95t124 -34q156 0 209 129q4 14 21 14h29q18 0 12 -16q-16 -79 -85 -135t-189 -56zM641 57q254 0 409 170t212 490q20 133 20 219q0 440 -408 440q-252 0 -408 -170t-212 -489q-20 -111 -21 -217
q0 -443 408 -443zM879 1456q243 0 367 -134t124 -384q0 -96 -22 -221q-64 -353 -242 -545t-467 -192q-242 0 -367 135t-125 385q0 100 19 217q64 355 244 547t469 192z" />
    <glyph glyph-name="obreve" unicode="&#x14f;" horiz-adv-x="1167" 
d="M719 1188q-125 0 -180 62t-43 143q4 16 18 16h29q14 0 16 -14q2 -66 35 -104t127 -38t139 37t74 105q2 14 18 14h29q18 0 14 -16q-19 -85 -85 -145t-191 -60zM525 53q173 0 295 120t161 349q12 76 12 142q0 328 -317 327q-190 0 -310 -120t-161 -349q-14 -72 -15 -141
q0 -328 335 -328zM524 -20q-206 0 -312 104q-105 104 -106 297q0 51 15 141q47 260 190 402t350 141q207 0 311 -104t105 -295q0 -53 -14 -144q-45 -260 -189 -401t-350 -141z" />
    <glyph glyph-name="Ohungarumlaut" unicode="&#x150;" horiz-adv-x="1429" 
d="M1206 1767h60q10 0 11 -9t-7 -15l-183 -178q-14 -14 -34 -15h-29q-20 1 -6 21l149 178q16 18 39 18zM913 1767h62q10 0 11 -9t-7 -15l-184 -178q-12 -14 -33 -15h-29q-20 1 -6 21l150 178q14 18 36 18zM641 57q254 0 409 170t212 490q20 133 20 219q0 440 -408 440
q-252 0 -408 -170t-212 -489q-20 -111 -21 -217q0 -443 408 -443zM879 1456q243 0 367 -134t124 -384q0 -96 -22 -221q-64 -353 -242 -545t-467 -192q-242 0 -367 135t-125 385q0 100 19 217q64 355 244 547t469 192z" />
    <glyph glyph-name="ohungarumlaut" unicode="&#x151;" horiz-adv-x="1167" 
d="M1016 1421h57q12 0 13 -9t-7 -17l-190 -187q-14 -14 -33 -14h-25q-24 0 -6 23l154 184q14 20 37 20zM725 1421h59q10 0 12 -9t-5 -17l-191 -187q-18 -14 -33 -14h-26q-8 0 -10 7q0 8 6 16l151 184q16 20 37 20zM525 53q173 0 295 120t161 349q12 76 12 142
q0 328 -317 327q-190 0 -310 -120t-161 -349q-14 -72 -15 -141q0 -328 335 -328zM524 -20q-206 0 -312 104q-105 104 -106 297q0 51 15 141q47 260 190 402t350 141q207 0 311 -104t105 -295q0 -53 -14 -144q-45 -260 -189 -401t-350 -141z" />
    <glyph glyph-name="OE" unicode="&#x152;" horiz-adv-x="1867" 
d="M1044 1356q-150 0 -260 -29q-244 -65 -356 -295q-61 -127 -96 -315q-20 -137 -21 -217q0 -236 126 -328t380 -92h146l225 1276h-144zM1751 696h-598l-109 -616h623q20 0 14 -19l-6 -43q0 -18 -20 -18h-838q-293 0 -445 112t-151 382q0 94 23 223q70 399 265 559
q196 160 538 160h854q20 0 16 -19l-8 -43q-4 -18 -23 -18h-616l-103 -582h596q18 0 17 -18l-8 -41q-3 -19 -21 -19z" />
    <glyph glyph-name="oe" unicode="&#x153;" horiz-adv-x="1908" 
d="M1749 698q-1 137 -67 216t-218 79q-152 -1 -268 -113q-115 -112 -158 -321h697l4 25q10 47 10 114zM967 666q-1 325 -321 325q-162 0 -282 -122t-159 -347q-14 -72 -15 -141q0 -328 322 -328q162 0 282 122t158 347q14 72 15 144zM1347 47q159 0 289 66q18 10 23 -9
l10 -36q6 -10 -14 -19q-143 -74 -311 -74t-269 82q-100 82 -119 232q-147 -309 -462 -309q-180 0 -284 105q-103 105 -104 296q0 55 15 141q45 258 188 400t355 143q158 0 255 -80t113 -227q141 307 449 307q168 0 258 -100t90 -271q0 -49 -10 -121l-15 -67q-2 -16 -20 -17
h-758q-8 -49 -8 -102q0 -160 85 -250t244 -90z" />
    <glyph glyph-name="Racute" unicode="&#x154;" horiz-adv-x="1292" 
d="M989 1767h70q16 0 12 -15q-2 -7 -8 -11l-217 -176q-12 -14 -33 -15h-29q-8 0 -10 8t6 13l168 176q20 20 41 20zM387 1436h361q262 0 389 -82t127 -256q0 -47 -11 -113q-39 -213 -168 -317t-368 -121l364 -520q12 -27 -16 -27h-47q-18 0 -29 14l-364 525h-330l-90 -521
q-6 -18 -23 -18h-47q-20 0 -16 18l246 1399q4 19 22 19zM612 618q262 0 390 86t163 283q10 57 11 100q0 141 -104 205t-329 64h-305l-129 -738h303z" />
    <glyph glyph-name="racute" unicode="&#x155;" horiz-adv-x="704" 
d="M631 1421h69q17 0 13 -15q-2 -7 -8 -11l-224 -187q-18 -14 -32 -14h-27q-8 0 -10 8t6 15l172 184q20 20 41 20zM156 0h-45q-20 0 -15 18l176 1004q3 18 21 18h45q18 0 14 -18l-43 -246q47 98 160 186t252 87q16 0 14 -17l-10 -53q0 -16 -18 -16l-31 2q-131 0 -254 -125
t-150 -279l-96 -543q-4 -18 -20 -18z" />
    <glyph glyph-name="Rcommaaccent" unicode="&#x156;" horiz-adv-x="1292" 
d="M440 -459q-16 0 -10 21l74 174h-41q-16 0 -14 18l20 119q4 16 23 16h90q18 0 14 -16l-21 -115q0 -8 -6 -24l-92 -176q-10 -16 -22 -17h-15zM387 1436h361q262 0 389 -82t127 -256q0 -47 -11 -113q-39 -213 -168 -317t-368 -121l364 -520q12 -27 -16 -27h-47q-18 0 -29 14
l-364 525h-330l-90 -521q-6 -18 -23 -18h-47q-20 0 -16 18l246 1399q4 19 22 19zM612 618q262 0 390 86t163 283q10 57 11 100q0 141 -104 205t-329 64h-305l-129 -738h303z" />
    <glyph glyph-name="rcommaaccent" unicode="&#x157;" horiz-adv-x="704" 
d="M43 -438h-14q-16 0 -9 18l62 162h-39q-18 0 -14 18l20 113q0 16 21 16h88q16 0 16 -16l-18 -109q-3 -12 -11 -24l-79 -162q-6 -16 -23 -16zM156 0h-45q-20 0 -15 18l176 1004q3 18 21 18h45q18 0 14 -18l-43 -246q47 98 160 186t252 87q16 0 14 -17l-10 -53
q0 -16 -18 -16l-31 2q-131 0 -254 -125t-150 -279l-96 -543q-4 -18 -20 -18z" />
    <glyph glyph-name="Rcaron" unicode="&#x158;" horiz-adv-x="1292" 
d="M1061 1763h43q12 0 13 -7t-7 -13l-219 -178q-12 -14 -35 -15h-41q-16 0 -29 15l-153 178q-6 6 -3 13t15 7h37q12 0 25 -14l139 -135l184 135q20 14 31 14zM387 1436h361q262 0 389 -82t127 -256q0 -47 -11 -113q-39 -213 -168 -317t-368 -121l364 -520q12 -27 -16 -27
h-47q-18 0 -29 14l-364 525h-330l-90 -521q-6 -18 -23 -18h-47q-20 0 -16 18l246 1399q4 19 22 19zM612 618q262 0 390 86t163 283q10 57 11 100q0 141 -104 205t-329 64h-305l-129 -738h303z" />
    <glyph glyph-name="rcaron" unicode="&#x159;" horiz-adv-x="704" 
d="M737 1417h43q25 0 6 -18l-225 -191q-23 -14 -35 -14h-41q-18 0 -30 14l-156 191q-6 6 -3 12t15 6h35q14 0 27 -12l141 -150l195 150q14 12 28 12zM156 0h-45q-20 0 -15 18l176 1004q3 18 21 18h45q18 0 14 -18l-43 -246q47 98 160 186t252 87q16 0 14 -17l-10 -53
q0 -16 -18 -16l-31 2q-131 0 -254 -125t-150 -279l-96 -543q-4 -18 -20 -18z" />
    <glyph glyph-name="Sacute" unicode="&#x15a;" horiz-adv-x="1089" 
d="M893 1767h70q16 0 12 -15q-2 -7 -8 -11l-217 -176q-12 -14 -33 -15h-29q-8 0 -10 8t6 13l168 176q20 20 41 20zM973 410q0 -205 -157 -317q-156 -111 -400 -111t-371 61q-16 10 -10 23l24 40q6 18 25 11q129 -57 362 -57t366 146q73 81 73 179t-38 144t-65 65l-39 26
t-44 25t-44 23t-90 41q-149 67 -227 127q-102 79 -100 215q0 201 141 303t354 102t340 -57q16 -6 10 -23l-22 -41q-10 -16 -27 -10q-113 51 -291 51t-300 -76t-121 -243q0 -75 26 -106q26 -32 45 -55t150 -83t200 -96q68 -35 85 -50q16 -15 54 -47t51 -60q40 -86 40 -150z
" />
    <glyph glyph-name="sacute" unicode="&#x15b;" horiz-adv-x="913" 
d="M715 1421h69q17 0 13 -15q-2 -7 -9 -11l-223 -187q-18 -14 -33 -14h-26q-8 0 -10 8t6 15l172 184q20 20 41 20zM780 293q0 -156 -118 -235q-118 -78 -306 -78t-325 59q-14 8 -8 20l20 37q6 18 23 10q135 -55 283 -55q147 1 249 57t102 183q0 87 -80 134q-62 38 -158 76
t-132 54t-83 49q-93 64 -91 172q0 145 106 217t284 72t298 -57q14 -6 6 -21l-19 -37q-10 -14 -24 -8q-121 51 -268 51q-79 0 -141 -16q-62 -17 -111 -67t-49 -134t106 -141q29 -15 122 -53t132 -58q126 -65 161 -133q21 -43 21 -98z" />
    <glyph glyph-name="Scircumflex" unicode="&#x15c;" horiz-adv-x="1089" 
d="M502 1550q-12 0 -14 8t8 13l219 178q14 14 35 14h41q12 0 30 -14l154 -178q6 -6 3 -13t-15 -8h-37q-15 1 -27 15l-137 135l-187 -135q-20 -14 -32 -15h-41zM973 410q0 -205 -157 -317q-156 -111 -400 -111t-371 61q-16 10 -10 23l24 40q6 18 25 11q129 -57 362 -57
t366 146q73 81 73 179t-38 144t-65 65l-39 26t-44 25t-44 23t-90 41q-149 67 -227 127q-102 79 -100 215q0 201 141 303t354 102t340 -57q16 -6 10 -23l-22 -41q-10 -16 -27 -10q-113 51 -291 51t-300 -76t-121 -243q0 -75 26 -106q26 -32 45 -55t150 -83t200 -96
q68 -35 85 -50q16 -15 54 -47t51 -60q40 -86 40 -150z" />
    <glyph glyph-name="scircumflex" unicode="&#x15d;" horiz-adv-x="913" 
d="M391 1194h-39q-12 0 -13 7t7 13l223 191q14 12 35 12h41q14 0 31 -12l155 -191q5 -6 3 -13t-15 -7h-37q-10 0 -22 14l-144 150l-194 -150q-16 -14 -31 -14zM780 293q0 -156 -118 -235q-118 -78 -306 -78t-325 59q-14 8 -8 20l20 37q6 18 23 10q135 -55 283 -55
q147 1 249 57t102 183q0 87 -80 134q-62 38 -158 76t-132 54t-83 49q-93 64 -91 172q0 145 106 217t284 72t298 -57q14 -6 6 -21l-19 -37q-10 -14 -24 -8q-121 51 -268 51q-79 0 -141 -16q-62 -17 -111 -67t-49 -134t106 -141q29 -15 122 -53t132 -58q126 -65 161 -133
q21 -43 21 -98z" />
    <glyph glyph-name="Scedilla" unicode="&#x15e;" horiz-adv-x="1089" 
d="M973 410q0 -186 -129 -295t-330 -129q94 -64 94 -146t-61 -118t-130 -36t-81 6q-12 5 -10 19l6 27q0 12 16 12h55q135 0 136 92q0 78 -88 140h-21q-258 0 -385 61q-16 10 -10 23l24 40q6 18 25 11q129 -57 362 -57t366 146q73 81 73 179t-38 144t-65 65l-39 26t-44 25
t-44 23t-90 41q-149 67 -227 127q-102 79 -100 215q0 201 141 303t354 102t340 -57q16 -6 10 -23l-22 -41q-10 -16 -27 -10q-113 51 -291 51t-300 -76t-121 -243q0 -75 26 -106q26 -32 45 -55t150 -83t200 -96q68 -35 85 -50q16 -15 54 -47t51 -60q40 -86 40 -150z" />
    <glyph glyph-name="scedilla" unicode="&#x15f;" horiz-adv-x="913" 
d="M780 293q0 -151 -110 -229t-279 -82q82 -58 82 -132t-55 -108q-56 -34 -124 -35q-68 0 -80 5t-9 18l4 24q4 12 18 13h52q127 0 127 90q0 68 -84 125q-176 6 -291 57q-14 8 -8 20l20 37q6 18 23 10q135 -55 283 -55q147 1 249 57t102 183q0 87 -80 134q-62 38 -158 76
t-132 54t-83 49q-93 64 -91 172q0 145 106 217t284 72t298 -57q14 -6 6 -21l-19 -37q-10 -14 -24 -8q-121 51 -268 51q-79 0 -141 -16q-62 -17 -111 -67t-49 -134t106 -141q29 -15 122 -53t132 -58q126 -65 161 -133q21 -43 21 -98z" />
    <glyph glyph-name="Scaron" unicode="&#x160;" horiz-adv-x="1089" 
d="M956 1763h43q11 0 13 -7t-6 -13l-220 -178q-12 -14 -34 -15h-41q-16 0 -29 15l-154 178q-6 6 -3 13t16 7h37q12 0 24 -14l139 -135l185 135q20 14 30 14zM973 410q0 -205 -157 -317q-156 -111 -400 -111t-371 61q-16 10 -10 23l24 40q6 18 25 11q129 -57 362 -57t366 146
q73 81 73 179t-38 144t-65 65l-39 26t-44 25t-44 23t-90 41q-149 67 -227 127q-102 79 -100 215q0 201 141 303t354 102t340 -57q16 -6 10 -23l-22 -41q-10 -16 -27 -10q-113 51 -291 51t-300 -76t-121 -243q0 -75 26 -106q26 -32 45 -55t150 -83t200 -96q68 -35 85 -50
q16 -15 54 -47t51 -60q40 -86 40 -150z" />
    <glyph glyph-name="scaron" unicode="&#x161;" horiz-adv-x="913" 
d="M817 1417h43q25 0 6 -18l-225 -191q-23 -14 -35 -14h-41q-18 0 -30 14l-156 191q-6 6 -3 12t15 6h35q14 0 27 -12l141 -150l194 150q14 12 29 12zM780 293q0 -156 -118 -235q-118 -78 -306 -78t-325 59q-14 8 -8 20l20 37q6 18 23 10q135 -55 283 -55q147 1 249 57
t102 183q0 87 -80 134q-62 38 -158 76t-132 54t-83 49q-93 64 -91 172q0 145 106 217t284 72t298 -57q14 -6 6 -21l-19 -37q-10 -14 -24 -8q-121 51 -268 51q-79 0 -141 -16q-62 -17 -111 -67t-49 -134t106 -141q29 -15 122 -53t132 -58q126 -65 161 -133q21 -43 21 -98z
" />
    <glyph glyph-name="Tcommaaccent" unicode="&#x162;" horiz-adv-x="1067" 
d="M334 -459q-16 0 -10 21l73 174h-41q-16 0 -14 18l20 119q4 16 23 16h90q18 0 14 -16l-20 -115q0 -8 -6 -24l-92 -176q-10 -16 -23 -17h-14zM1151 1436q20 0 14 -19l-6 -43q-6 -18 -22 -18h-406l-233 -1338q-6 -18 -23 -18h-47q-18 0 -16 18l235 1338h-405q-21 0 -15 18
l9 43q2 18 20 19h895z" />
    <glyph glyph-name="tcommaaccent" unicode="&#x163;" horiz-adv-x="694" 
d="M205 -438h-15q-16 0 -8 18l62 162h-39q-16 0 -15 18l21 113q0 16 20 16h88q16 0 17 -16l-19 -109q-2 -12 -10 -24l-80 -162q-6 -16 -22 -16zM262 184q0 -122 136 -123q62 0 139 15q18 2 18 -15l4 -34q2 -14 -16 -19q-61 -20 -155 -20q-206 0 -208 198q0 39 10 105
l121 676h-170q-20 0 -14 18l4 37q6 18 23 18h172l49 287q6 18 22 19h41q20 0 15 -19l-50 -287h304q20 0 14 -18l-4 -37q-7 -18 -23 -18h-303l-119 -670q-10 -51 -10 -113z" />
    <glyph glyph-name="Tcaron" unicode="&#x164;" horiz-adv-x="1067" 
d="M946 1763h43q12 0 13 -7t-7 -13l-219 -178q-12 -14 -35 -15h-41q-16 0 -28 15l-154 178q-6 6 -3 13t15 7h37q12 0 25 -14l139 -135l184 135q20 14 31 14zM1151 1436q20 0 14 -19l-6 -43q-6 -18 -22 -18h-406l-233 -1338q-6 -18 -23 -18h-47q-18 0 -16 18l235 1338h-405
q-21 0 -15 18l9 43q2 18 20 19h895z" />
    <glyph glyph-name="tcaron" unicode="&#x165;" horiz-adv-x="827" 
d="M827 1085q-16 0 -8 19l76 190h-37q-18 0 -14 19l22 127q2 18 21 18h96q20 0 14 -18l-20 -123q0 -5 -8 -25l-97 -192q-8 -14 -22 -15h-23zM260 184q0 -122 136 -123q62 0 139 15q18 2 18 -15l4 -34q2 -14 -16 -19q-61 -20 -155 -20q-208 0 -208 198q0 39 10 105l121 676
h-170q-20 0 -14 18l4 37q6 18 23 18h172l49 287q6 18 22 19h41q20 0 15 -19l-50 -287h304q20 0 14 -18l-4 -37q-7 -18 -23 -18h-303l-119 -670q-10 -51 -10 -113z" />
    <glyph glyph-name="Tbar" unicode="&#x166;" horiz-adv-x="1067" 
d="M1151 1436q20 0 14 -19l-6 -43q-6 -18 -22 -18h-406l-104 -598h247q16 0 17 -17l-6 -24q-4 -18 -21 -19h-248l-118 -680q-6 -18 -23 -18h-47q-18 0 -16 18l118 680h-247q-16 0 -15 19l6 24q2 16 21 17h248l104 598h-405q-21 0 -15 18l9 43q2 18 20 19h895z" />
    <glyph glyph-name="tbar" unicode="&#x167;" horiz-adv-x="694" 
d="M262 184q0 -122 136 -123q62 0 139 15q18 2 18 -15l4 -34q2 -14 -16 -19q-61 -20 -155 -20q-206 0 -208 196q0 41 10 107l46 246h-173q-14 0 -14 18l6 25q0 18 21 18h170l65 369h-170q-20 0 -14 18l4 37q6 18 23 18h172l49 287q6 18 22 19h41q20 0 15 -19l-50 -287h304
q20 0 14 -18l-4 -37q-7 -18 -23 -18h-303l-65 -369h274q16 0 16 -18l-6 -25q-4 -18 -20 -18h-277l-41 -240q-10 -51 -10 -113z" />
    <glyph glyph-name="Utilde" unicode="&#x168;" horiz-adv-x="1388" 
d="M1054 1538q-60 0 -151 43l-45 21q-163 77 -194 -7l-9 -28q-8 -23 -30 -23h-23q-16 0 -14 25q12 61 51 98t100 37t152 -43l47 -23q163 -77 192 17l7 22q8 23 32 23h21q18 0 14 -25q-10 -61 -50 -99t-100 -38zM618 -25q-440 0 -440 383q0 63 12 138l162 921q4 18 23 19h47
q20 0 16 -19l-162 -917q-12 -70 -12 -133q0 -313 357 -314q424 0 501 447l162 917q2 18 21 19h49q18 0 14 -19l-162 -921q-90 -521 -588 -521z" />
    <glyph glyph-name="utilde" unicode="&#x169;" horiz-adv-x="1157" 
d="M860 1194q-59 0 -137 39l-41 20q-66 31 -110 31t-60 -37l-12 -28q-12 -20 -31 -21h-23q-16 0 -12 23q10 57 47 91t95 34t141 -39l41 -21q70 -33 114 -33t60 45l8 23q6 20 31 20h24q15 1 8 -38t-45 -74t-98 -35zM279 1040h45q16 0 14 -18l-117 -655q-8 -61 -8 -86
q0 -225 254 -226q159 -1 277 95t145 245l110 627q4 18 21 18h45q16 0 14 -18l-176 -1004q-6 -18 -20 -18h-45q-20 0 -15 18l33 187q-129 -225 -401 -225q-160 0 -241 74t-81 208q0 51 8 94l117 666q4 18 21 18z" />
    <glyph glyph-name="Umacron" unicode="&#x16a;" horiz-adv-x="1388" 
d="M1151 1573h-526q-18 0 -15 18l6 33q2 16 23 16h524q14 0 15 -16l-7 -33q-4 -18 -20 -18zM618 -25q-440 0 -440 383q0 63 12 138l162 921q4 18 23 19h47q20 0 16 -19l-162 -917q-12 -70 -12 -133q0 -313 357 -314q424 0 501 447l162 917q2 18 21 19h49q18 0 14 -19
l-162 -921q-90 -521 -588 -521z" />
    <glyph glyph-name="umacron" unicode="&#x16b;" horiz-adv-x="1157" 
d="M969 1212h-518q-16 0 -15 19l4 31q4 16 23 16h518q14 0 14 -16l-6 -31q-2 -19 -20 -19zM279 1040h45q16 0 14 -18l-117 -655q-8 -61 -8 -86q0 -225 254 -226q159 -1 277 95t145 245l110 627q4 18 21 18h45q16 0 14 -18l-176 -1004q-6 -18 -20 -18h-45q-20 0 -15 18
l33 187q-129 -225 -401 -225q-160 0 -241 74t-81 208q0 51 8 94l117 666q4 18 21 18z" />
    <glyph glyph-name="Ubreve" unicode="&#x16c;" horiz-adv-x="1388" 
d="M892 1546q-120 0 -178 58t-48 133q6 16 18 16h29q16 0 16 -14q6 -61 41 -95t125 -34q156 0 209 129q4 14 20 14h29q18 0 12 -16q-17 -79 -85 -135t-188 -56zM618 -25q-440 0 -440 383q0 63 12 138l162 921q4 18 23 19h47q20 0 16 -19l-162 -917q-12 -70 -12 -133
q0 -313 357 -314q424 0 501 447l162 917q2 18 21 19h49q18 0 14 -19l-162 -921q-90 -521 -588 -521z" />
    <glyph glyph-name="ubreve" unicode="&#x16d;" horiz-adv-x="1157" 
d="M715 1188q-125 0 -180 62t-43 143q4 16 18 16h29q14 0 16 -14q2 -66 35 -104t127 -38t139 37t74 105q2 14 18 14h29q18 0 14 -16q-19 -85 -85 -145t-191 -60zM279 1040h45q16 0 14 -18l-117 -655q-8 -61 -8 -86q0 -225 254 -226q159 -1 277 95t145 245l110 627
q4 18 21 18h45q16 0 14 -18l-176 -1004q-6 -18 -20 -18h-45q-20 0 -15 18l33 187q-129 -225 -401 -225q-160 0 -241 74t-81 208q0 51 8 94l117 666q4 18 21 18z" />
    <glyph glyph-name="Uring" unicode="&#x16e;" horiz-adv-x="1388" 
d="M717 1703q0 77 64 134q65 57 152 57t132 -41t45 -117t-64 -137q-65 -59 -152 -59t-132 43t-45 120zM934 1839q-64 0 -110 -39t-46 -108q0 -94 115 -95q63 0 108 38t46 108q0 96 -113 96zM618 -25q-440 0 -440 383q0 63 12 138l162 921q4 18 23 19h47q20 0 16 -19
l-162 -917q-12 -70 -12 -133q0 -313 357 -314q424 0 501 447l162 917q2 18 21 19h49q18 0 14 -19l-162 -921q-90 -521 -588 -521z" />
    <glyph glyph-name="uring" unicode="&#x16f;" horiz-adv-x="1157" 
d="M537 1336q-1 76 63 136q64 58 152 58t135 -41t47 -118t-65 -135t-151 -58t-134 41q-47 41 -47 117zM600 1342q0 -108 119 -109q59 0 105 39t46 106q0 96 -116 97q-62 0 -108 -38q-46 -37 -46 -95zM279 1040h45q16 0 14 -18l-117 -655q-8 -61 -8 -86q0 -225 254 -226
q159 -1 277 95t145 245l110 627q4 18 21 18h45q16 0 14 -18l-176 -1004q-6 -18 -20 -18h-45q-20 0 -15 18l33 187q-129 -225 -401 -225q-160 0 -241 74t-81 208q0 51 8 94l117 666q4 18 21 18z" />
    <glyph glyph-name="Uhungarumlaut" unicode="&#x170;" horiz-adv-x="1388" 
d="M1153 1767h59q10 0 12 -9q1 -9 -7 -15l-183 -178q-14 -14 -35 -15h-28q-20 1 -6 21l149 178q16 18 39 18zM860 1767h62q10 0 11 -9t-7 -15l-185 -178q-12 -14 -32 -15h-29q-20 1 -6 21l149 178q14 18 37 18zM618 -25q-440 0 -440 383q0 63 12 138l162 921q4 18 23 19h47
q20 0 16 -19l-162 -917q-12 -70 -12 -133q0 -313 357 -314q424 0 501 447l162 917q2 18 21 19h49q18 0 14 -19l-162 -921q-90 -521 -588 -521z" />
    <glyph glyph-name="uhungarumlaut" unicode="&#x171;" horiz-adv-x="1157" 
d="M985 1421h57q12 0 14 -9t-7 -17l-191 -187q-14 -14 -33 -14h-24q-24 0 -6 23l153 184q14 20 37 20zM694 1421h60q10 0 12 -9t-6 -17l-191 -187q-18 -14 -32 -14h-27q-8 0 -9 8t5 15l151 184q16 20 37 20zM279 1040h45q16 0 14 -18l-117 -655q-8 -61 -8 -86
q0 -225 254 -226q159 -1 277 95t145 245l110 627q4 18 21 18h45q16 0 14 -18l-176 -1004q-6 -18 -20 -18h-45q-20 0 -15 18l33 187q-129 -225 -401 -225q-160 0 -241 74t-81 208q0 51 8 94l117 666q4 18 21 18z" />
    <glyph glyph-name="Uogonek" unicode="&#x172;" horiz-adv-x="1388" 
d="M618 -25q-440 0 -440 383q0 63 12 138l162 921q4 18 23 19h47q20 0 16 -19l-162 -917q-12 -70 -12 -133q0 -313 357 -314q424 0 501 447l162 917q2 18 21 19h49q18 0 14 -19l-162 -921q-82 -457 -471 -512q-150 -72 -149 -172q0 -57 102 -58q32 0 60 7t28 -3l2 -30
q0 -8 -8 -17q-44 -23 -108 -23t-106 28t-42 81q0 104 127 178h-23z" />
    <glyph glyph-name="uogonek" unicode="&#x173;" horiz-adv-x="1157" 
d="M279 1040h45q16 0 14 -18l-117 -655q-8 -61 -8 -86q0 -225 254 -226q159 -1 277 95t145 245l110 627q4 18 21 18h45q16 0 14 -18l-176 -1004q-6 -18 -20 -18h-35q-172 -74 -172 -178q0 -53 96 -53q42 0 62 6t20 -4l2 -29q0 -12 -8 -16q-37 -20 -99 -20q-143 -1 -143 113
q0 63 65 119t152 85l33 182q-129 -225 -401 -225q-160 0 -241 74t-81 208q0 51 8 94l117 666q4 18 21 18z" />
    <glyph glyph-name="Wcircumflex" unicode="&#x174;" horiz-adv-x="2019" 
d="M969 1550q-11 0 -13 8t7 13l219 178q14 14 35 14h40q12 0 31 -14l154 -178q6 -6 3 -13t-15 -8h-37q-15 1 -27 15l-137 135l-187 -135q-20 -14 -32 -15h-41zM1151 1436h57q23 0 23 -19l108 -919l41 -410h4l181 401l434 928q8 18 26 19h50q23 0 12 -25l-655 -1388
q-10 -23 -31 -23h-64q-23 0 -24 20l-117 961l-35 340h-4l-151 -340l-459 -961q-6 -20 -29 -20h-63q-20 0 -27 23l-164 1388q-4 25 19 25h51q18 0 18 -19l109 -928l39 -399h4l184 408l432 919q11 19 31 19z" />
    <glyph glyph-name="wcircumflex" unicode="&#x175;" horiz-adv-x="1579" 
d="M723 1194h-39q-12 0 -13 7t7 13l223 191q16 12 35 12h41q14 0 31 -12l155 -191q6 -6 3 -13t-15 -7h-37q-10 0 -22 14l-144 150l-194 -150q-16 -14 -31 -14zM862 1040h51q14 0 19 -16l108 -752l21 -184h4l82 184l362 752q10 16 23 16h49q20 0 10 -20l-489 -1004
q-6 -16 -23 -16h-53q-16 0 -20 16l-109 723l-23 201h-6l-92 -201l-364 -723q-4 -16 -23 -16h-53q-16 0 -21 16l-135 1004q0 20 19 20h45q16 0 16 -16l98 -752l17 -184h4l88 184l371 752q10 16 24 16z" />
    <glyph glyph-name="Ycircumflex" unicode="&#x176;" horiz-adv-x="1253" 
d="M586 1550q-12 0 -14 8t8 13l219 178q14 14 35 14h40q12 0 31 -14l154 -178q6 -6 3 -13t-15 -8h-37q-15 1 -27 15l-137 135l-187 -135q-20 -14 -32 -15h-41zM569 0h-49q-20 0 -14 18l92 525l-352 870q-10 21 16 23h49q18 0 23 -17l229 -569l88 -232l168 232l430 569
q16 16 29 17h55q23 0 8 -23l-659 -870l-92 -525q-4 -18 -21 -18z" />
    <glyph glyph-name="ycircumflex" unicode="&#x177;" horiz-adv-x="968" 
d="M418 1194h-39q-12 0 -13 7t7 13l223 191q14 12 35 12h41q16 0 30 -12l156 -191q6 -6 3 -13t-15 -7h-37q-11 0 -23 14l-143 150l-194 -150q-16 -14 -31 -14zM168 -233q-94 0 -145 18q-16 4 -11 20l19 37q6 14 22 13q43 -14 103 -15q100 0 165 77t48 151l-205 952
q-4 20 16 20h47q16 0 17 -16l125 -582l65 -350h4l176 350l304 582q10 16 24 16h51q25 0 11 -20l-523 -985q-76 -147 -147 -208q-72 -60 -166 -60z" />
    <glyph glyph-name="Ydieresis" unicode="&#x178;" horiz-adv-x="1253" 
d="M965 1550q-18 0 -15 19l25 135q2 16 20 16h60q20 0 14 -16l-22 -135q-2 -18 -23 -19h-59zM606 1550q-16 0 -14 19l24 135q2 16 21 16h59q21 0 15 -16l-23 -135q-4 -18 -22 -19h-60zM569 0h-49q-20 0 -14 18l92 525l-352 870q-10 21 16 23h49q18 0 23 -17l229 -569
l88 -232l168 232l430 569q16 16 29 17h55q23 0 8 -23l-659 -870l-92 -525q-4 -18 -21 -18z" />
    <glyph glyph-name="Zacute" unicode="&#x179;" horiz-adv-x="1169" 
d="M930 1767h69q17 0 13 -15q-2 -7 -8 -11l-218 -176q-12 -14 -32 -15h-29q-8 0 -10 8t6 13l168 176q20 20 41 20zM315 1356q-20 0 -16 18l8 43q6 18 23 19h852q18 0 14 -19l-8 -41q-2 -18 -17 -35l-1011 -1261h790q20 0 17 -19l-9 -43q-4 -18 -20 -18h-877q-20 0 -16 18
l6 41q4 14 21 35l1013 1262h-770z" />
    <glyph glyph-name="zacute" unicode="&#x17a;" horiz-adv-x="968" 
d="M748 1421h69q16 0 12 -15q-2 -7 -8 -11l-223 -187q-18 -14 -33 -14h-26q-8 0 -11 7q-1 8 7 16l172 184q20 20 41 20zM766 74q18 0 16 -17l-6 -39q-6 -18 -22 -18h-709q-20 0 -16 18l6 33q4 14 12 23l784 893h-604q-18 0 -16 16l6 39q4 18 23 18h694q20 0 16 -18l-6 -33
q-2 -12 -12 -24l-787 -891h621z" />
    <glyph glyph-name="Zdotaccent" unicode="&#x17b;" horiz-adv-x="1169" 
d="M745 1550q-16 0 -14 19l25 143q6 18 22 19h58q20 -1 14 -19l-25 -143q-2 -18 -20 -19h-60zM315 1356q-20 0 -16 18l8 43q6 18 23 19h852q18 0 14 -19l-8 -41q-2 -18 -17 -35l-1011 -1261h790q20 0 17 -19l-9 -43q-4 -18 -20 -18h-877q-20 0 -16 18l6 41q4 14 21 35
l1013 1262h-770z" />
    <glyph glyph-name="zdotaccent" unicode="&#x17c;" horiz-adv-x="968" 
d="M641 1194h-57q-18 0 -17 18l27 146q4 18 20 18h60q18 0 14 -18l-26 -146q-2 -18 -21 -18zM766 74q18 0 16 -17l-6 -39q-6 -18 -22 -18h-709q-20 0 -16 18l6 33q4 14 12 23l784 893h-604q-18 0 -16 16l6 39q4 18 23 18h694q20 0 16 -18l-6 -33q-2 -12 -12 -24l-787 -891
h621z" />
    <glyph glyph-name="Zcaron" unicode="&#x17d;" horiz-adv-x="1169" 
d="M997 1763h43q12 0 14 -7t-7 -13l-220 -178q-12 -14 -34 -15h-41q-16 0 -29 15l-154 178q-6 6 -3 13t16 7h36q12 0 25 -14l139 -135l185 135q20 14 30 14zM315 1356q-20 0 -16 18l8 43q6 18 23 19h852q18 0 14 -19l-8 -41q-2 -18 -17 -35l-1011 -1261h790q20 0 17 -19
l-9 -43q-4 -18 -20 -18h-877q-20 0 -16 18l6 41q4 14 21 35l1013 1262h-770z" />
    <glyph glyph-name="zcaron" unicode="&#x17e;" horiz-adv-x="968" 
d="M844 1417h43q25 0 6 -18l-225 -191q-20 -14 -35 -14h-41q-18 0 -31 14l-155 191q-6 6 -4 12t16 6h35q14 0 26 -12l142 -150l194 150q14 12 29 12zM766 74q18 0 16 -17l-6 -39q-6 -18 -22 -18h-709q-20 0 -16 18l6 33q4 14 12 23l784 893h-604q-18 0 -16 16l6 39
q4 18 23 18h694q20 0 16 -18l-6 -33q-2 -12 -12 -24l-787 -891h621z" />
    <glyph glyph-name="longs" unicode="&#x17f;" horiz-adv-x="587" 
d="M219 0h-43q-20 0 -16 18l168 949h-170q-18 0 -15 18l7 37q2 18 20 18h170l20 117q51 291 291 291q88 0 135 -21q14 -4 11 -18l-11 -35q-8 -18 -22 -14q-49 16 -109 16q-178 0 -215 -225l-200 -1133q-2 -18 -21 -18z" />
    <glyph glyph-name="florin" unicode="&#x192;" horiz-adv-x="1282" 
d="M1016 805q14 0 12 -19l-10 -32q-6 -16 -23 -17h-301l-223 -729q-75 -244 -247 -244q-90 0 -132 19q-16 4 -10 20l16 37q6 16 25 13q49 -12 86 -13q127 0 184 176l221 721h-180q-14 0 -12 17l10 32q4 18 25 19h180l108 350q90 295 330 295q84 0 131 -20q18 -10 13 -21
l-19 -33q-12 -16 -26 -12q-72 14 -99 14q-182 0 -252 -233l-106 -340h299z" />
    <glyph glyph-name="Aringacute" unicode="&#x1fa;" horiz-adv-x="1318" 
d="M870 1677q-63 0 -109 -39t-46 -108q0 -90 102 -94h12q63 0 109 38q45 38 45 107q0 96 -113 96zM354 512h631l-168 821h-4zM653 1530q0 66 38 115t100 71l139 148q20 20 41 20h69q17 0 13 -15q-2 -7 -9 -11l-153 -125q72 -4 114 -45t42 -108q-1 -67 -45 -122t-117 -72
l291 -1368q4 -18 -17 -18h-53q-14 0 -19 16l-88 418h-688l-235 -418q-6 -16 -21 -16h-59q-20 0 -10 18l772 1368q-105 31 -105 144z" />
    <glyph glyph-name="aringacute" unicode="&#x1fb;" horiz-adv-x="1093" 
d="M567 1342q0 -108 119 -109q59 0 106 39q46 39 46 106q0 96 -117 97q-63 0 -109 -38q-46 -37 -45 -95zM901 1368q-1 -74 -65 -132t-151 -58t-134 40t-47 111q0 70 44 123t118 70l145 157q20 20 41 21h70q16 0 12 -16q-2 -7 -8 -11l-174 -145q68 -6 108 -46t41 -114z
M375 53q193 0 315 97t148 247l26 144q-297 -6 -389 -21q-340 -55 -342 -287q1 -82 61 -131t181 -49zM829 0h-41q-20 0 -14 18l33 191q-141 -225 -440 -225q-152 0 -234 68t-82 177q0 287 393 351q109 18 422 26h11l16 99q8 43 8 90q0 102 -61 149t-222 47t-331 -71
q-16 -4 -21 10l-6 39q-4 14 14 20q184 76 371 76q336 0 336 -268q0 -48 -8 -95l-121 -684q-6 -18 -23 -18z" />
    <glyph glyph-name="AEacute" unicode="&#x1fc;" horiz-adv-x="1720" 
d="M1243 1767h70q16 0 12 -15q-2 -7 -8 -11l-217 -176q-12 -14 -33 -15h-29q-8 0 -10 8t6 13l168 176q20 20 41 20zM383 483h504l155 873h-41zM1602 696h-590l-109 -616h617q20 0 14 -19l-6 -43q-4 -18 -23 -18h-682q-20 0 -14 18l65 388h-546l-277 -390q-10 -16 -24 -16
h-62q-25 0 -10 18l997 1397q14 20 31 21h770q20 0 16 -19l-8 -43q-6 -18 -22 -18h-611l-102 -582h590q16 0 16 -18l-8 -41q-2 -19 -22 -19z" />
    <glyph glyph-name="aeacute" unicode="&#x1fd;" horiz-adv-x="1812" 
d="M1159 1421h70q16 0 12 -15q-2 -7 -8 -11l-223 -187q-18 -14 -33 -14h-27q-8 0 -10 8t6 15l172 184q20 20 41 20zM713 502q-331 0 -454 -64q-52 -27 -89 -79t-37 -126q0 -180 242 -180q191 0 309 97t147 247l19 105h-137zM1362 993q-152 -1 -268 -113t-156 -313h700l4 21
q12 59 13 112q0 135 -70 214q-71 79 -223 79zM641 1065q332 0 320 -262q63 123 173 193t264 69q154 0 244 -100t91 -267q0 -47 -11 -112l-10 -72q-6 -18 -22 -18h-762q-8 -49 -8 -105q0 -162 86 -253t246 -91q161 0 290 68q16 6 23 -11l8 -36q2 -10 -14 -21
q-143 -72 -309 -72t-268 81q-101 81 -120 218q-137 -291 -493 -290q-158 0 -237 66t-79 160q0 96 29 156q48 100 203 156q121 47 469 47h106l27 146q8 41 8 84q0 98 -61 145t-220 47t-329 -71q-16 -4 -21 10l-8 39q-4 14 14 20q205 76 371 76z" />
    <glyph glyph-name="Oslashacute" unicode="&#x1fe;" horiz-adv-x="1435" 
d="M1075 1767h70q16 0 12 -15q-2 -7 -8 -11l-217 -176q-12 -14 -33 -15h-29q-8 0 -10 8t6 13l168 176q20 20 41 20zM639 57q256 0 411 170t212 490q47 256 -7 416l-966 -895q94 -181 350 -181zM233 486q0 -108 29 -187l969 893q-94 184 -354 184q-504 0 -621 -659
q-23 -123 -23 -231zM883 1456q293 0 413 -203l154 144q16 12 25 4l22 -23q14 -14 -2 -26l-168 -158q45 -112 45 -232t-22 -245q-64 -353 -242 -545t-470 -192t-415 198l-155 -143q-16 -12 -25 -2l-23 24q-6 14 3 25l170 156q-79 192 -25 479q62 355 242 547t473 192z" />
    <glyph glyph-name="oslashacute" unicode="&#x1ff;" horiz-adv-x="1175" 
d="M866 1421h70q16 0 12 -15q-2 -7 -8 -11l-223 -187q-18 -14 -33 -14h-27q-8 0 -10 8t6 15l172 184q20 20 41 20zM518 53q182 0 304 120t161 349q14 72 14 158t-32 154l-709 -676q80 -105 262 -105zM193 366q0 -85 34 -161l709 678q-80 109 -263 109t-305 -121
q-122 -120 -161 -349q-14 -71 -14 -156zM516 -20q-217 0 -319 122l-101 -96q-14 -14 -26 -2l-17 16q-12 10 0 23l113 104q-55 92 -55 234q0 66 12 141q47 260 191 402t360 141q216 0 321 -127l103 98q12 12 22 2l19 -16q14 -12 -2 -25l-111 -104q53 -94 53 -227
q0 -53 -14 -144q-45 -260 -189 -401t-360 -141z" />
    <glyph glyph-name="Scommaaccent" unicode="&#x218;" horiz-adv-x="1089" 
d="M367 -459q-16 0 -11 21l74 174h-41q-16 0 -14 18l20 119q4 16 23 16h90q18 0 14 -16l-20 -115q0 -8 -6 -24l-93 -176q-10 -16 -22 -17h-14zM973 410q0 -205 -157 -317q-156 -111 -400 -111t-371 61q-16 10 -10 23l24 40q6 18 25 11q129 -57 362 -57t366 146q73 81 73 179
t-38 144t-65 65l-39 26t-44 25t-44 23t-90 41q-149 67 -227 127q-102 79 -100 215q0 201 141 303t354 102t340 -57q16 -6 10 -23l-22 -41q-10 -16 -27 -10q-113 51 -291 51t-300 -76t-121 -243q0 -75 26 -106q26 -32 45 -55t150 -83t200 -96q68 -35 85 -50q16 -15 54 -47
t51 -60q40 -86 40 -150z" />
    <glyph glyph-name="scommaaccent" unicode="&#x219;" horiz-adv-x="913" 
d="M299 -438h-14q-16 0 -9 18l62 162h-39q-16 0 -14 18l20 113q0 16 21 16h88q16 0 16 -16l-18 -109q-3 -12 -11 -24l-79 -162q-6 -16 -23 -16zM780 293q0 -156 -118 -235q-118 -78 -306 -78t-325 59q-14 8 -8 20l20 37q6 18 23 10q135 -55 283 -55q147 1 249 57t102 183
q0 87 -80 134q-62 38 -158 76t-132 54t-83 49q-93 64 -91 172q0 145 106 217t284 72t298 -57q14 -6 6 -21l-19 -37q-10 -14 -24 -8q-121 51 -268 51q-79 0 -141 -16q-62 -17 -111 -67t-49 -134t106 -141q29 -15 122 -53t132 -58q126 -65 161 -133q21 -43 21 -98z" />
    <glyph glyph-name="uni021A" unicode="&#x21a;" horiz-adv-x="1067" 
d="M334 -459q-16 0 -10 21l73 174h-41q-16 0 -14 18l20 119q4 16 23 16h90q18 0 14 -16l-20 -115q0 -8 -6 -24l-92 -176q-10 -16 -23 -17h-14zM1151 1436q20 0 14 -19l-6 -43q-6 -18 -22 -18h-406l-233 -1338q-6 -18 -23 -18h-47q-18 0 -16 18l235 1338h-405q-21 0 -15 18
l9 43q2 18 20 19h895z" />
    <glyph glyph-name="uni021B" unicode="&#x21b;" horiz-adv-x="694" 
d="M205 -438h-15q-16 0 -8 18l62 162h-39q-16 0 -15 18l21 113q0 16 20 16h88q16 0 17 -16l-19 -109q-2 -12 -10 -24l-80 -162q-6 -16 -22 -16zM262 184q0 -122 136 -123q62 0 139 15q18 2 18 -15l4 -34q2 -14 -16 -19q-61 -20 -155 -20q-206 0 -208 198q0 39 10 105
l121 676h-170q-20 0 -14 18l4 37q6 18 23 18h172l49 287q6 18 22 19h41q20 0 15 -19l-50 -287h304q20 0 14 -18l-4 -37q-7 -18 -23 -18h-303l-119 -670q-10 -51 -10 -113z" />
    <glyph glyph-name="dotlessj" unicode="&#x237;" horiz-adv-x="456" 
d="M313 1040h45q20 0 15 -18l-178 -1012q-39 -243 -207 -243q-84 0 -127 12q-16 6 -11 22l11 37q6 14 22 12q45 -10 97 -10q106 0 137 178l176 1004q6 18 20 18z" />
    <glyph glyph-name="circumflex" unicode="&#x2c6;" horiz-adv-x="665" 
d="M266 1194h-39q-12 0 -13 7t7 13l223 191q16 12 35 12h41q16 0 31 -12l156 -191q6 -6 3 -13t-16 -7h-37q-10 0 -22 14l-143 150l-195 -150q-16 -14 -31 -14z" />
    <glyph glyph-name="caron" unicode="&#x2c7;" horiz-adv-x="665" 
d="M692 1417h43q25 0 6 -18l-225 -191q-20 -14 -35 -14h-41q-18 0 -30 14l-156 191q-6 6 -3 12t15 6h35q14 0 27 -12l141 -150l195 150q14 12 28 12z" />
    <glyph glyph-name="uni02C9" unicode="&#x2c9;" horiz-adv-x="665" 
d="M723 1212h-518q-16 0 -15 19l5 31q4 16 22 16h518q14 0 15 -16l-7 -31q-2 -19 -20 -19z" />
    <glyph glyph-name="breve" unicode="&#x2d8;" horiz-adv-x="665" 
d="M469 1188q-125 0 -180 62t-43 143q4 16 18 16h29q14 0 16 -14q2 -66 35 -104t127 -38t139 37t74 105q2 14 18 14h29q18 0 14 -16q-19 -85 -85 -145t-191 -60z" />
    <glyph glyph-name="dotaccent" unicode="&#x2d9;" horiz-adv-x="665" 
d="M489 1194h-57q-18 0 -16 18l26 146q4 18 21 18h59q19 0 15 -18l-27 -146q-2 -18 -21 -18z" />
    <glyph glyph-name="ring" unicode="&#x2da;" horiz-adv-x="665" 
d="M291 1336q-1 76 63 136q64 58 152 58t135 -41t47 -118t-64 -135t-152 -58q-87 0 -134 41t-47 117zM354 1342q0 -108 119 -109q59 0 106 39q46 39 46 106q0 96 -117 97q-62 0 -108 -38q-46 -37 -46 -95z" />
    <glyph glyph-name="ogonek" unicode="&#x2db;" horiz-adv-x="665" 
d="M100 -178q0 -53 97 -53q41 0 61 6t21 -4l2 -29q0 -12 -9 -16q-37 -20 -99 -20t-102 25q-40 26 -40 76q0 78 69 136q70 57 162 84l55 -9q-217 -88 -217 -196z" />
    <glyph glyph-name="tilde" unicode="&#x2dc;" horiz-adv-x="665" 
d="M614 1194q-60 0 -137 39l-41 20q-66 31 -110 31t-60 -37l-12 -28q-12 -20 -31 -21h-22q-16 0 -13 23q10 57 48 91t94 34q57 0 141 -39l41 -21q70 -33 114 -33t60 45l8 23q6 20 31 20h25q14 1 7 -38t-45 -74t-98 -35z" />
    <glyph glyph-name="hungarumlaut" unicode="&#x2dd;" horiz-adv-x="665" 
d="M782 1421h58q12 0 13 -9t-7 -17l-191 -187q-14 -14 -32 -14h-25q-24 0 -6 23l153 184q14 20 37 20zM492 1421h59q10 0 12 -9t-6 -17l-190 -187q-18 -14 -33 -14h-27q-8 0 -9 8t5 15l152 184q16 20 37 20z" />
    <glyph glyph-name="uni037E" unicode="&#x37e;" horiz-adv-x="417" 
d="M186 600h88q16 0 15 -18l-21 -127q-6 -18 -20 -19h-90q-19 1 -15 19l21 127q6 18 22 18z" />
    <glyph glyph-name="uni0394" unicode="&#x394;" horiz-adv-x="1359" 
d="M827 1348l-663 -1270h893l-221 1270h-9zM817 1436h62q20 0 24 -23l238 -1366q4 -19 -8 -33t-35 -14h-1002q-22 0 -30 14t2 33l718 1366q6 23 31 23z" />
    <glyph glyph-name="uni03A9" unicode="&#x3a9;" horiz-adv-x="1597" 
d="M961 1456q295 0 438 -128t143 -345q0 -256 -147 -451t-404 -313l-26 -143l315 4q18 0 16 -19l-8 -43q0 -18 -20 -18h-404l43 240q2 25 35 36q222 92 366 276t144 419q0 186 -119 297t-375 110q-294 0 -488 -176t-194 -476t312 -450q27 -14 22 -36l-41 -240h-403
q-16 0 -16 18l8 43q0 18 20 19l316 -4l26 151q-332 170 -332 495q0 326 214 530t559 204z" />
    <glyph glyph-name="uni03BC" unicode="&#x3bc;" horiz-adv-x="1163" 
d="M551 -25q-158 0 -242 69t-102 157l-72 -408q-4 -18 -20 -18h-45q-16 0 -15 18l217 1229q2 18 21 18h45q18 0 14 -18l-110 -631q-6 -35 -6 -65q0 -123 85 -199t222 -76q297 0 354 311l117 660q2 18 20 18h45q19 0 15 -18l-117 -668q-66 -379 -426 -379z" />
    <glyph glyph-name="pi" unicode="&#x3c0;" horiz-adv-x="1337" 
d="M1196 20q0 -32 -120 -32t-167 42q-45 42 -45 136q0 41 10 108l123 691h-448l-373 -947q-6 -18 -26 -18h-41q-20 0 -15 18l371 947h-254q-18 0 -16 18l6 39q6 18 22 18h1129q20 0 16 -18l-6 -39q-2 -18 -23 -18h-262l-121 -682q-10 -69 -10 -119q0 -106 131 -105
q55 0 99 9q20 2 20 -13v-35z" />
    <glyph glyph-name="Wgrave" unicode="&#x1e80;" horiz-adv-x="2019" 
d="M1167 1550q-14 0 -28 15l-158 176q-6 8 -2 17t14 9h66q23 0 33 -20l114 -176q4 -6 -1 -13t-15 -8h-23zM1151 1436h57q23 0 23 -19l108 -919l41 -410h4l181 401l434 928q8 18 26 19h50q23 0 12 -25l-655 -1388q-10 -23 -31 -23h-64q-23 0 -24 20l-117 961l-35 340h-4
l-151 -340l-459 -961q-6 -20 -29 -20h-63q-20 0 -27 23l-164 1388q-4 25 19 25h51q18 0 18 -19l109 -928l39 -399h4l184 408l432 919q11 19 31 19z" />
    <glyph glyph-name="wgrave" unicode="&#x1e81;" horiz-adv-x="1579" 
d="M915 1194h-22q-14 0 -29 14l-162 187q-6 8 -2 17t15 9h67q23 0 33 -20l115 -184q8 -23 -15 -23zM862 1040h51q14 0 19 -16l108 -752l21 -184h4l82 184l362 752q10 16 23 16h49q20 0 10 -20l-489 -1004q-6 -16 -23 -16h-53q-16 0 -20 16l-109 723l-23 201h-6l-92 -201
l-364 -723q-4 -16 -23 -16h-53q-16 0 -21 16l-135 1004q0 20 19 20h45q16 0 16 -16l98 -752l17 -184h4l88 184l371 752q10 16 24 16z" />
    <glyph glyph-name="Wacute" unicode="&#x1e82;" horiz-adv-x="2019" 
d="M1413 1767h70q16 0 12 -15q-2 -7 -8 -11l-217 -176q-12 -14 -33 -15h-29q-8 0 -10 8t6 13l168 176q20 20 41 20zM1151 1436h57q23 0 23 -19l108 -919l41 -410h4l181 401l434 928q8 18 26 19h50q23 0 12 -25l-655 -1388q-10 -23 -31 -23h-64q-23 0 -24 20l-117 961
l-35 340h-4l-151 -340l-459 -961q-6 -20 -29 -20h-63q-20 0 -27 23l-164 1388q-4 25 19 25h51q18 0 18 -19l109 -928l39 -399h4l184 408l432 919q11 19 31 19z" />
    <glyph glyph-name="wacute" unicode="&#x1e83;" horiz-adv-x="1579" 
d="M1126 1421h70q16 0 12 -15q-2 -7 -8 -11l-223 -187q-18 -14 -33 -14h-26q-8 0 -11 7q-2 8 6 16l172 184q20 20 41 20zM862 1040h51q14 0 19 -16l108 -752l21 -184h4l82 184l362 752q10 16 23 16h49q20 0 10 -20l-489 -1004q-6 -16 -23 -16h-53q-16 0 -20 16l-109 723
l-23 201h-6l-92 -201l-364 -723q-4 -16 -23 -16h-53q-16 0 -21 16l-135 1004q0 20 19 20h45q16 0 16 -16l98 -752l17 -184h4l88 184l371 752q10 16 24 16z" />
    <glyph glyph-name="Wdieresis" unicode="&#x1e84;" horiz-adv-x="2019" 
d="M1348 1550q-16 0 -15 19l25 135q2 16 20 16h60q20 0 14 -16l-22 -135q-4 -18 -23 -19h-59zM989 1550q-18 0 -14 19l24 135q2 16 21 16h59q21 0 15 -16l-23 -135q-2 -18 -22 -19h-60zM1151 1436h57q23 0 23 -19l108 -919l41 -410h4l181 401l434 928q8 18 26 19h50
q23 0 12 -25l-655 -1388q-10 -23 -31 -23h-64q-23 0 -24 20l-117 961l-35 340h-4l-151 -340l-459 -961q-6 -20 -29 -20h-63q-20 0 -27 23l-164 1388q-4 25 19 25h51q18 0 18 -19l109 -928l39 -399h4l184 408l432 919q11 19 31 19z" />
    <glyph glyph-name="wdieresis" unicode="&#x1e85;" horiz-adv-x="1579" 
d="M1118 1194h-55q-20 0 -14 18l24 144q4 18 21 18h55q18 0 14 -18l-24 -144q-6 -18 -21 -18zM772 1194h-55q-16 0 -15 18l25 144q6 18 23 18h53q20 0 14 -18l-24 -144q-2 -18 -21 -18zM862 1040h51q14 0 19 -16l108 -752l21 -184h4l82 184l362 752q10 16 23 16h49
q20 0 10 -20l-489 -1004q-6 -16 -23 -16h-53q-16 0 -20 16l-109 723l-23 201h-6l-92 -201l-364 -723q-4 -16 -23 -16h-53q-16 0 -21 16l-135 1004q0 20 19 20h45q16 0 16 -16l98 -752l17 -184h4l88 184l371 752q10 16 24 16z" />
    <glyph glyph-name="Ygrave" unicode="&#x1ef2;" horiz-adv-x="1253" 
d="M803 1550q-14 0 -29 15l-158 176q-6 8 -2 17t15 9h65q23 0 33 -20l115 -176q4 -6 -1 -13t-16 -8h-22zM569 0h-49q-20 0 -14 18l92 525l-352 870q-10 21 16 23h49q18 0 23 -17l229 -569l88 -232l168 232l430 569q16 16 29 17h55q23 0 8 -23l-659 -870l-92 -525
q-4 -18 -21 -18z" />
    <glyph glyph-name="ygrave" unicode="&#x1ef3;" horiz-adv-x="968" 
d="M621 1194h-23q-14 0 -29 14l-161 187q-6 8 -2 17t14 9h67q23 0 33 -20l115 -184q8 -23 -14 -23zM168 -233q-94 0 -145 18q-16 4 -11 20l19 37q6 14 22 13q43 -14 103 -15q100 0 165 77t48 151l-205 952q-4 20 16 20h47q16 0 17 -16l125 -582l65 -350h4l176 350l304 582
q10 16 24 16h51q25 0 11 -20l-523 -985q-76 -147 -147 -208q-72 -60 -166 -60z" />
    <glyph glyph-name="figuredash" unicode="&#x2012;" horiz-adv-x="1099" 
d="M952 516h-790q-18 0 -15 19l7 36q2 18 22 19h791q14 0 14 -19l-8 -36q-3 -19 -21 -19z" />
    <glyph glyph-name="endash" unicode="&#x2013;" horiz-adv-x="1046" 
d="M936 489h-819q-18 0 -15 17l9 41q0 16 20 16h819q18 0 15 -16l-7 -41q-6 -17 -22 -17z" />
    <glyph glyph-name="emdash" unicode="&#x2014;" horiz-adv-x="1542" 
d="M1434 489h-1317q-18 0 -15 17l9 41q0 16 20 16h1315q16 0 16 -16l-8 -41q-4 -17 -20 -17z" />
    <glyph glyph-name="quoteleft" unicode="&#x2018;" horiz-adv-x="391" 
d="M395 1444h23q16 0 8 -19l-76 -190h37q18 0 14 -18l-22 -127q-2 -16 -21 -17h-96q-16 0 -14 17l20 122q2 9 8 25l97 193q8 14 22 14z" />
    <glyph glyph-name="quoteright" unicode="&#x2019;" horiz-adv-x="391" 
d="M272 1063h-22q-16 0 -8 18l75 191h-36q-18 0 -15 18l23 127q2 18 20 19h97q20 0 14 -19l-21 -123q0 -4 -8 -24l-96 -193q-8 -14 -23 -14z" />
    <glyph glyph-name="quotesinglbase" unicode="&#x201a;" horiz-adv-x="391" 
d="M49 -209h-22q-16 0 -9 19l76 190h-37q-16 0 -14 18l23 127q4 18 20 19h96q20 0 15 -19l-21 -122q0 -5 -8 -25l-96 -193q-6 -14 -23 -14z" />
    <glyph glyph-name="quotedblleft" unicode="&#x201c;" horiz-adv-x="673" 
d="M395 1444h23q16 0 8 -19l-78 -190h39q18 0 14 -18l-22 -127q-2 -16 -21 -17h-96q-16 0 -14 17l20 122q2 9 8 25l97 193q8 14 22 14zM678 1444h20q16 0 9 -19l-78 -190h39q20 0 14 -18l-23 -127q0 -16 -20 -17h-96q-16 0 -15 17l21 122q0 5 10 25l96 193q6 14 23 14z" />
    <glyph glyph-name="quotedblright" unicode="&#x201d;" horiz-adv-x="673" 
d="M555 1069h-23q-16 0 -8 18l78 191h-39q-18 0 -14 18l22 125q2 18 21 19h96q16 0 14 -19l-20 -121q-2 -14 -8 -24l-99 -193q-2 -14 -20 -14zM272 1069h-20q-14 0 -10 18l80 191h-39q-20 0 -15 18l21 125q2 18 22 19h97q16 0 14 -19l-21 -121q-2 -14 -10 -24l-96 -193
q-6 -14 -23 -14z" />
    <glyph glyph-name="quotedblbase" unicode="&#x201e;" horiz-adv-x="673" 
d="M330 -209h-23q-16 0 -8 19l78 190h-39q-18 0 -14 18l22 125q2 18 21 19h96q16 0 14 -19l-20 -120q-2 -15 -8 -25l-99 -193q-2 -14 -20 -14zM47 -209h-20q-14 0 -11 19l80 190h-39q-20 0 -14 18l20 125q2 18 23 19h96q16 0 15 -19l-21 -120q-2 -15 -10 -25l-96 -193
q-6 -14 -23 -14z" />
    <glyph glyph-name="dagger" unicode="&#x2020;" horiz-adv-x="1028" 
d="M1001 969h-360l-207 -1176q-6 -18 -20 -18h-45q-16 0 -15 18l207 1176h-358q-18 0 -17 18l7 35q4 18 22 18h358l68 377q2 18 21 19h45q18 0 14 -19l-68 -377h361q18 0 14 -18l-6 -35q-2 -18 -21 -18z" />
    <glyph glyph-name="daggerdbl" unicode="&#x2021;" horiz-adv-x="1030" 
d="M862 170h-360l-68 -377q-4 -18 -20 -18h-43q-18 0 -17 18l68 377h-361q-16 0 -14 16l6 37q4 18 21 19h360l129 727h-360q-18 0 -15 18l7 35q2 18 20 18h360l66 377q6 18 23 19h43q20 0 14 -19l-66 -377h359q20 0 14 -18l-4 -35q-6 -18 -20 -18h-361l-129 -727h360
q19 -1 15 -19l-6 -37q-2 -16 -21 -16z" />
    <glyph glyph-name="bullet" unicode="&#x2022;" horiz-adv-x="718" 
d="M346 299q-108 0 -167 56q-58 56 -58 160t85 191q84 87 192 87q108 -1 166 -57t58 -158t-84 -191q-84 -88 -192 -88z" />
    <glyph glyph-name="onedotenleader" unicode="&#x2024;" horiz-adv-x="417" 
d="M199 164q18 0 14 -19l-20 -127q-6 -18 -21 -18h-90q-16 0 -14 18l20 127q6 18 23 19h88z" />
    <glyph glyph-name="twodotenleader" unicode="&#x2025;" horiz-adv-x="827" 
d="M199 164q18 0 14 -19l-20 -127q-6 -18 -21 -18h-90q-16 0 -14 18l20 127q6 18 23 19h88zM608 164q18 0 15 -19l-21 -127q-6 -18 -20 -18h-90q-17 0 -15 18l21 127q6 18 22 19h88z" />
    <glyph glyph-name="ellipsis" unicode="&#x2026;" horiz-adv-x="1253" 
d="M1034 164q18 0 15 -19l-21 -127q-6 -18 -20 -18h-88q-19 0 -17 18l21 127q6 18 22 19h88zM616 164q18 0 15 -19l-21 -127q-6 -18 -20 -18h-90q-17 0 -15 18l21 127q6 18 22 19h88zM199 164q18 0 14 -19l-20 -127q-6 -18 -21 -18h-90q-16 0 -14 18l20 127q6 18 23 19h88z
" />
    <glyph glyph-name="perthousand" unicode="&#x2030;" horiz-adv-x="2603" 
d="M2427 518q0 230 -200 230q-105 0 -181 -90t-104 -255q-12 -66 -13 -118q0 -225 201 -225q102 0 178 87q76 88 107 256q12 66 12 115zM2503 522q0 -51 -11 -119q-37 -201 -135 -309q-99 -108 -233 -106q-134 0 -202 77t-69 216q1 54 13 122q33 201 131 309q97 108 233 108
t204 -78q68 -77 69 -220zM1632 518q0 230 -200 230q-104 0 -180 -90q-77 -90 -105 -255q-10 -72 -10 -118q0 -225 186 -226q115 0 191 88t108 256q10 72 10 115zM1708 522q0 -68 -10 -119q-35 -201 -133 -309q-97 -108 -233 -106q-136 0 -204 76t-67 217q0 46 10 122
q35 201 133 309t232 108t204 -78q68 -77 68 -220zM764 1147q0 229 -200 229q-104 0 -180 -89t-105 -255q-12 -66 -13 -119q0 -225 187 -225q115 0 191 88t108 256q12 74 12 115zM568 1448q136 0 202 -77q68 -77 68 -220q0 -66 -11 -119q-35 -200 -133 -308t-232 -108
t-203 76t-69 217q1 55 13 123q33 200 131 308t234 108zM393 0h-47q-27 0 -8 20l1135 1399q14 16 30 17h49q8 0 12 -5q3 -6 -5 -16l-1135 -1399q-16 -16 -31 -16z" />
    <glyph glyph-name="guilsinglleft" unicode="&#x2039;" horiz-adv-x="458" 
d="M348 829h39q27 0 8 -22l-221 -275l123 -272q14 -23 -14 -22h-39q-14 0 -23 14l-123 272q-2 6 2 21l219 270q14 14 29 14z" />
    <glyph glyph-name="guilsinglright" unicode="&#x203a;" horiz-adv-x="458" 
d="M135 238h-41q-23 0 -8 22l223 272l-125 275q-12 23 15 22h41q16 0 20 -14l123 -270q2 -7 2 -13l-4 -8l-219 -272q-14 -14 -27 -14z" />
    <glyph glyph-name="exclamdbl" unicode="&#x203c;" horiz-adv-x="1073" 
d="M803 377h-35q-18 0 -16 18l166 1022q4 18 22 19h64q20 0 16 -19l-197 -1022q-4 -18 -20 -18zM795 164q18 0 14 -17l-23 -129q-4 -18 -20 -18h-92q-19 0 -17 18l23 129q4 16 20 17h95zM272 377h-34q-20 0 -17 18l166 1022q2 18 23 19h63q18 0 16 -19l-196 -1022
q-3 -18 -21 -18zM264 164q18 0 15 -17l-23 -129q-2 -18 -20 -18h-93q-20 0 -16 18l23 129q4 16 20 17h94z" />
    <glyph glyph-name="fraction" unicode="&#x2044;" horiz-adv-x="145" 
d="M-438 0h-47q-25 0 -7 20l1133 1399q16 16 31 17h47q24 -1 10 -21l-1135 -1399q-16 -16 -32 -16z" />
    <glyph glyph-name="zero.superior" unicode="&#x2070;" 
d="M516 1059q135 0 221 98t117 279q12 68 12 125q0 252 -219 251q-135 0 -220 -98t-116 -278q-12 -72 -12 -127q0 -250 217 -250zM528 987q-156 0 -231 83q-76 83 -76 235q0 59 12 131q37 216 143 332t260 116q156 0 232 -84t76 -235q0 -61 -12 -129q-36 -213 -142 -331
t-262 -118z" />
    <glyph glyph-name="four.superior" unicode="&#x2074;" 
d="M883 1206h-135l-31 -184q-4 -23 -27 -23h-31q-23 0 -16 23l31 184h-469q-20 0 -17 23l5 26q2 10 14 23l577 580q18 14 27 14h33q23 0 18 -23l-100 -573h133q23 0 20 -23l-6 -24q-1 -23 -26 -23zM772 1761l-483 -485h397z" />
    <glyph glyph-name="five.superior" unicode="&#x2075;" 
d="M848 1323q0 -160 -106 -248t-269 -88q-164 0 -258 49q-18 10 -10 25l16 29q12 20 29 12q94 -45 226 -45q132 1 213 73t81 193q0 145 -201 145q-81 0 -147 -19t-78 -19q-13 0 -34 11t-17 27q70 254 92 377q4 25 33 25h446q18 0 19 -23l-4 -24q0 -23 -27 -23h-403
q-29 -127 -76 -307q102 41 222 41q121 0 187 -58t66 -153z" />
    <glyph glyph-name="six.superior" unicode="&#x2076;" 
d="M340 1251q0 -78 52 -136t166 -58t192 86t77 200q0 78 -50 125q-51 48 -159 48t-193 -77t-85 -188zM715 1815q-145 -1 -243 -105t-132 -299q39 76 116 124q78 48 196 48q118 -1 184 -67t65 -168q0 -154 -102 -257q-101 -103 -249 -103t-223 80q-75 81 -75 226q0 57 12 121
q37 213 153 341t296 128q115 0 190 -35q16 -8 8 -26l-16 -25q-11 -16 -25 -12q-76 29 -155 29z" />
    <glyph glyph-name="seven.superior" unicode="&#x2077;" 
d="M373 999q-18 0 -17 21q39 164 185 387q145 223 309 395h-485q-20 0 -19 23l4 24q6 23 27 23h549q26 0 21 -27t-19 -43q-158 -168 -306 -395t-188 -387q-4 -20 -24 -21h-37z" />
    <glyph glyph-name="eight.superior" unicode="&#x2078;" 
d="M848 1692q0 57 -51 92t-149 35t-174 -44q-77 -44 -77 -130q0 -111 193 -162q258 59 258 209zM297 1200q0 -66 56 -106t163 -41q107 0 192 52t85 146q0 129 -213 170q-283 -57 -283 -221zM872 1253q0 -133 -110 -199t-247 -67q-138 1 -218 59t-80 155t79 163t189 92
q-73 25 -119 72t-47 112q-1 124 99 184t232 60t204 -52t72 -140t-71 -150t-171 -92q84 -23 136 -73t52 -124z" />
    <glyph glyph-name="nine.superior" unicode="&#x2079;" 
d="M545 1356q109 0 193 80t85 174q-1 94 -53 150t-168 55q-116 0 -190 -83q-76 -83 -76 -200q0 -80 50 -128t159 -48zM524 1288q-130 0 -196 67t-66 171q0 154 102 256t250 102q146 0 222 -81t75 -226q0 -57 -12 -121q-39 -217 -154 -343t-294 -126q-115 0 -191 35
q-18 10 -8 27l16 24q15 16 27 12q66 -31 156 -30q145 0 242 104t130 301q-88 -172 -299 -172z" />
    <glyph glyph-name="parenleft.superior" unicode="&#x207d;" horiz-adv-x="446" 
d="M295 1319q0 157 72 309t200 248q8 10 23 10h37q8 0 11 -6t-3 -10q-125 -98 -195 -248t-70 -324t111 -297q4 -4 0 -10t-12 -6h-37q-14 0 -22 10q-115 119 -115 324z" />
    <glyph glyph-name="parenright.superior" unicode="&#x207e;" horiz-adv-x="446" 
d="M492 1548q0 -156 -73 -308t-200 -245q-10 -10 -22 -10h-37q-10 0 -13 6q-2 6 7 10q122 101 192 249t70 324t-113 296q-4 6 0 11t12 5h39q12 0 21 -10q117 -121 117 -328z" />
    <glyph glyph-name="n.superior" unicode="&#x207f;" horiz-adv-x="976" 
d="M406 1872h28q25 0 21 -23l-25 -143q106 176 346 176q131 0 199 -62t67 -171q0 -35 -6 -74l-98 -553q-4 -23 -27 -23h-30q-23 0 -19 23l96 545q6 35 7 63q0 182 -207 182q-133 0 -235 -79q-101 -80 -124 -199l-90 -512q-6 -23 -26 -23h-31q-23 0 -19 23l146 827
q4 23 27 23z" />
    <glyph glyph-name="zero.inferior" unicode="&#x2080;" 
d="M264 -377q135 0 221 98t117 279q12 68 12 125q0 252 -219 252q-135 0 -220 -98t-116 -279q-12 -70 -12 -127q0 -250 217 -250zM276 -449q-156 0 -231 83q-76 83 -76 235q0 61 13 131q37 215 142 332q104 117 260 117t232 -84t76 -236q0 -61 -12 -129q-36 -213 -142 -331
t-262 -118z" />
    <glyph glyph-name="one.inferior" unicode="&#x2081;" 
d="M444 436h29q23 0 19 -22l-146 -828q-4 -23 -27 -22h-30q-20 0 -17 22l131 748l-229 -146q-23 -10 -33 7l-12 24q-8 16 10 29l275 178q20 10 30 10z" />
    <glyph glyph-name="two.inferior" unicode="&#x2082;" 
d="M137 160q0 -33 -24 -33h-31q-20 0 -21 27q1 137 93 216t232 79q140 1 202 -61t63 -154q0 -184 -191 -343q-144 -119 -337 -235q-27 -14 -39 -23h465q18 0 16 -22l-2 -25q-2 -23 -26 -22h-568q-18 0 -16 22l2 25q2 14 18 22q48 32 168 105t184 126q144 121 196 201t52 166
q0 147 -188 148q-109 1 -179 -57t-69 -162z" />
    <glyph glyph-name="three.inferior" unicode="&#x2083;" 
d="M307 -16h-92q-23 0 -20 22l6 25q2 23 24 22h94q96 -1 164 55t68 144q0 127 -201 127q-109 0 -223 -43q-25 -10 -31 8l-6 29q-6 14 19 24q106 51 242 51t207 -50q71 -52 71 -137t-49 -148t-125 -93q125 -43 125 -180t-106 -213t-259 -76q-152 0 -258 54q-20 8 -10 24
l16 29q12 20 29 12q108 -49 226 -49q118 1 200 61t82 166q0 136 -193 136z" />
    <glyph glyph-name="four.inferior" unicode="&#x2084;" 
d="M631 -229h-135l-31 -185q-4 -23 -27 -22h-30q-23 0 -17 22l31 185h-469q-20 0 -16 22l4 27q2 10 14 22l577 580q18 14 27 14h33q23 0 18 -22l-100 -574h133q23 0 21 -22l-7 -25q-1 -22 -26 -22zM520 326l-483 -486h397z" />
    <glyph glyph-name="five.inferior" unicode="&#x2085;" 
d="M596 -113q0 -160 -106 -248t-269 -88q-164 0 -258 50q-18 10 -10 24l16 29q12 20 29 12q94 -45 226 -45t213 73t81 193q0 145 -201 146q-81 1 -147 -19t-78 -20t-33 11q-22 11 -18 28q70 254 92 377q4 25 33 24h446q18 0 19 -22l-4 -25q0 -23 -27 -22h-403
q-29 -127 -76 -308q102 41 222 41q121 0 187 -58t66 -153z" />
    <glyph glyph-name="six.inferior" unicode="&#x2086;" 
d="M306 -379q114 0 192 86t77 201q0 78 -50 125q-51 47 -159 47t-193 -77t-85 -187q0 -78 52 -137q52 -58 166 -58zM463 379q-145 -1 -243 -105t-132 -299q39 76 116 124q78 48 196 48q118 -1 184 -67t65 -168q0 -154 -102 -257q-101 -103 -249 -103t-223 80q-75 81 -75 227
q0 55 12 121q37 213 153 341t296 128q115 0 190 -35q16 -8 8 -27l-16 -25q-9 -16 -25 -12q-76 29 -155 29z" />
    <glyph glyph-name="seven.inferior" unicode="&#x2087;" 
d="M158 -436h-37q-18 0 -17 20q39 164 185 387q145 223 309 396h-485q-20 0 -19 22l4 25q6 23 27 22h549q26 1 20 -22l-2 -21q-2 -12 -16 -26q-158 -167 -306 -395t-188 -388q-4 -20 -24 -20z" />
    <glyph glyph-name="eight.inferior" unicode="&#x2088;" 
d="M596 256q0 57 -51 92t-149 35t-174 -44q-77 -44 -77 -130q0 -111 193 -162q258 59 258 209zM45 -236q0 -66 56 -106t163 -41q107 0 192 52t85 147q0 129 -213 170q-283 -57 -283 -222zM263 -449q-138 1 -218 59t-80 155t79 163t189 92q-73 25 -119 72t-46 113
q0 125 99 184t231 59t204 -52t72 -140t-71 -150t-171 -92q84 -22 136 -72t53 -124q0 -133 -110 -200t-248 -67z" />
    <glyph glyph-name="nine.inferior" unicode="&#x2089;" 
d="M350 379q-116 0 -190 -83q-76 -83 -76 -200q0 -80 50 -128t159 -48t193 80t85 174q0 94 -52 150q-53 55 -169 55zM199 -381q145 1 242 105t130 301q-88 -172 -299 -172q-130 1 -196 67t-66 170q0 154 102 256t250 102t223 -80q75 -81 74 -227q0 -55 -12 -121
q-39 -217 -153 -343t-295 -126q-115 0 -191 35q-18 10 -8 27l16 25q15 16 27 12q66 -31 156 -31z" />
    <glyph glyph-name="parenleft.inferior" unicode="&#x208d;" horiz-adv-x="446" 
d="M43 -117q0 158 72 310t200 247q8 10 23 11h37q8 -1 11 -7t-3 -10q-125 -98 -195 -248t-70 -324t111 -296q4 -4 0 -10t-12 -7h-37q-14 0 -22 11q-115 118 -115 323z" />
    <glyph glyph-name="parenright.inferior" unicode="&#x208e;" horiz-adv-x="446" 
d="M240 113q0 -156 -73 -309t-200 -244q-10 -10 -22 -11h-37q-10 1 -12 7t6 10q122 100 192 248t70 324q0 175 -113 296q-10 15 12 17h39q12 0 21 -11q117 -120 117 -327z" />
    <glyph glyph-name="Euro" unicode="&#x20ac;" horiz-adv-x="1300" 
d="M100 610h162q18 147 39 213h-162q-20 0 -14 17l6 34q0 18 21 19h167q81 260 265 412t446 151q193 0 334 -82q14 -6 8 -20l-26 -39q-12 -20 -29 -10q-123 72 -285 71q-231 0 -391 -129t-233 -354h630q18 0 9 -21l-19 -32q-10 -16 -29 -17h-612q-11 -42 -23 -118t-16 -95
h510q20 0 10 -20l-16 -33q-12 -18 -31 -18h-475q-8 -225 108 -353t353 -127q172 0 319 74q16 6 25 -12l10 -39q0 -12 -14 -19q-160 -84 -348 -83q-270 0 -410 151q-139 152 -133 408h-168q-18 0 -14 18l6 35q2 18 20 18z" />
    <glyph glyph-name="afii61289" unicode="&#x2113;" horiz-adv-x="966" 
d="M457 995l-74 -415q223 104 373 266t158 352t-160 191q-136 1 -198 -91t-99 -303zM500 59q86 0 151 19q14 6 19 -10l4 -37q2 -12 -19 -19q-57 -24 -173 -24t-176 50t-60 163q0 39 10 100l29 166q-111 -43 -224 -64q-16 -4 -20 13l-2 33q-4 16 12 20q123 23 248 74l78 444
q43 241 126 355t259 114q117 0 174 -66t51 -184q-12 -223 -189 -407t-427 -297l-35 -201q-10 -57 -10 -92q0 -82 44 -116t130 -34z" />
    <glyph glyph-name="trademark" unicode="&#x2122;" horiz-adv-x="1347" 
d="M1023 973q-13 0 -17 12l-154 354l-98 -553q0 -12 -17 -12h-35q-12 0 -12 12l113 635q4 14 16 15h41q12 0 17 -13l159 -370l289 370q12 12 21 13h45q16 0 12 -15l-113 -635q0 -12 -16 -12h-37q-10 0 -10 12l98 553l-281 -354q-8 -12 -21 -12zM657 1374h-161l-103 -588
q-4 -12 -16 -12h-39q-14 0 -10 12l102 588h-162q-10 0 -10 15l6 32q4 14 17 15h387q14 0 10 -15l-6 -32q-1 -15 -15 -15z" />
    <glyph glyph-name="Omega" unicode="&#x2126;" horiz-adv-x="1597" 
d="M961 1456q295 0 438 -128t143 -345q0 -256 -147 -451t-404 -313l-26 -143l315 4q18 0 16 -19l-8 -43q0 -18 -20 -18h-404l43 240q2 25 35 36q222 92 366 276t144 419q0 186 -119 297t-375 110q-294 0 -488 -176t-194 -476t312 -450q27 -14 22 -36l-41 -240h-403
q-16 0 -16 18l8 43q0 18 20 19l316 -4l26 151q-332 170 -332 495q0 326 214 530t559 204z" />
    <glyph glyph-name="estimated" unicode="&#x212e;" horiz-adv-x="1753" 
d="M1378 748v380q0 49 -22 74q-190 186 -476 186t-479 -198q-18 -18 -18 -60v-382q0 -12 10 -13h975q10 1 10 13zM1679 686h-1286q-10 0 -10 -8v-379q0 -39 16 -59q170 -197 493 -197t515 223h119q-113 -133 -279 -209t-358 -75q-338 0 -573 215q-234 215 -234 520t230 519
t568 214t569 -214q230 -214 230 -521v-29z" />
    <glyph glyph-name="onethird" unicode="&#x2153;" horiz-adv-x="1972" 
d="M649 1436q23 0 19 -23l-146 -827q-4 -23 -26 -23h-31q-20 0 -16 23l131 747l-230 -145q-23 -10 -33 6l-12 25q-8 16 10 28l275 178q20 10 31 11h28zM1419 420q-23 0 -20 22l6 25q2 23 25 22h94q96 -1 164 55t67 144q0 127 -201 127q-109 0 -223 -43q-25 -10 -31 8l-6 29
q-6 14 19 25q107 51 243 51t206 -51q70 -50 71 -136q0 -86 -49 -149t-125 -92q125 -43 125 -180t-106 -213t-259 -76q-152 0 -258 53q-20 8 -10 25l16 28q12 20 29 12q108 -49 226 -49q118 1 200 61t82 167q0 135 -193 135h-92zM391 0h-47q-25 0 -6 20l1132 1399
q16 16 31 17h47q25 -1 11 -21l-1135 -1399q-16 -16 -33 -16z" />
    <glyph glyph-name="twothirds" unicode="&#x2154;" horiz-adv-x="1972" 
d="M1511 420h-92q-23 0 -20 22l6 25q2 23 25 22h94q96 -1 164 55t67 144q0 127 -201 127q-109 0 -223 -43q-25 -10 -31 8l-6 29q-6 14 19 25q107 51 243 51t206 -51q70 -50 71 -136q0 -86 -49 -149t-125 -92q125 -43 125 -180t-106 -213t-259 -76q-152 0 -258 53
q-20 8 -10 25l16 28q12 20 29 12q108 -49 226 -49q118 1 200 61t82 167q0 135 -193 135zM492 0h-48q-25 0 -6 20l1133 1399q16 16 31 17h47q24 -1 10 -21l-1135 -1399q-16 -16 -32 -16zM313 1159q0 -33 -24 -33h-31q-20 0 -20 27q0 137 92 216t232 79t202 -62t63 -153
q0 -183 -191 -342q-139 -115 -337 -236q-27 -14 -39 -22h465q18 0 16 -23l-2 -24q-2 -23 -26 -23h-568q-18 0 -16 23l2 24q1 14 19 24q437 262 530 405q68 105 70 192q0 147 -189 147q-109 0 -179 -58t-69 -161z" />
    <glyph glyph-name="oneeighth" unicode="&#x215b;" horiz-adv-x="1972" 
d="M649 1436q23 0 19 -23l-146 -827q-4 -23 -26 -23h-31q-20 0 -16 23l131 747l-230 -145q-23 -10 -33 6l-12 25q-8 16 10 28l275 178q20 10 31 11h28zM1819 692q1 57 -51 92t-149 35t-174 -44t-77 -130q0 -111 193 -162q258 59 258 209zM1487 53q107 0 191 52t85 147
q0 129 -213 170q-283 -57 -282 -221q0 -66 56 -107t163 -41zM1486 -12q-138 0 -218 58t-80 156t79 163q79 66 189 92q-74 25 -120 71t-46 113q0 125 100 184t231 59q132 0 204 -51q71 -53 71 -141t-70 -150t-171 -91q84 -23 136 -73t52 -124q0 -133 -109 -200
q-110 -66 -248 -66zM416 0h-47q-25 0 -7 20l1133 1399q16 16 31 17h47q24 -1 10 -21l-1134 -1399q-16 -16 -33 -16z" />
    <glyph glyph-name="threeeighths" unicode="&#x215c;" horiz-adv-x="1972" 
d="M1819 692q1 57 -51 92t-149 35t-174 -44t-77 -130q0 -111 193 -162q258 59 258 209zM1487 53q107 0 191 52t85 147q0 129 -213 170q-283 -57 -282 -221q0 -66 56 -107t163 -41zM1486 -12q-138 0 -218 58t-80 156t79 163q79 66 189 92q-74 25 -120 71t-46 113
q0 125 100 184t231 59q132 0 204 -51q71 -53 71 -141t-70 -150t-171 -91q84 -23 136 -73t52 -124q0 -133 -109 -200q-110 -66 -248 -66zM463 0h-47q-25 0 -6 20l1132 1399q16 16 31 17h47q24 -1 10 -21l-1134 -1399q-16 -16 -33 -16zM465 983h-92q-23 0 -21 23l6 24
q2 23 25 23h94q96 0 164 55t68 143q0 127 -201 127q-109 0 -223 -43q-25 -10 -31 8l-6 29q-6 14 18 25q106 51 242 51t208 -51q70 -51 70 -137t-49 -148q-49 -63 -125 -92q125 -43 125 -180t-106 -213t-258 -76t-258 53q-20 8 -11 25l17 28q12 20 29 13q108 -49 226 -49
t200 60t81 167q1 135 -192 135z" />
    <glyph glyph-name="fiveeighths" unicode="&#x215d;" horiz-adv-x="1972" 
d="M1819 692q1 57 -51 92t-149 35t-174 -44t-77 -130q0 -111 193 -162q258 59 258 209zM1487 53q107 0 191 52t85 147q0 129 -213 170q-283 -57 -282 -221q0 -66 56 -107t163 -41zM1486 -12q-138 0 -218 58t-80 156t79 163q79 66 189 92q-74 25 -120 71t-46 113
q0 125 100 184t231 59q132 0 204 -51q71 -53 71 -141t-70 -150t-171 -91q84 -23 136 -73t52 -124q0 -133 -109 -200q-110 -66 -248 -66zM463 0h-47q-25 0 -6 20l1132 1399q16 16 31 17h47q24 -1 10 -21l-1134 -1399q-16 -16 -33 -16zM397 551q-164 0 -258 49q-18 10 -10 25
l16 28q12 20 29 13q94 -45 226 -45q132 1 213 73t81 193q0 145 -200 145q-80 0 -147 -19t-79 -19t-41 16q-14 6 -10 22q70 254 92 377q4 25 33 25h446q18 0 19 -23l-4 -25q0 -23 -27 -22h-403q-29 -127 -76 -307q102 41 222 41t187 -58t66 -153q0 -160 -106 -248t-269 -88z
" />
    <glyph glyph-name="seveneighths" unicode="&#x215e;" horiz-adv-x="1972" 
d="M1819 692q1 57 -51 92t-149 35t-174 -44t-77 -130q0 -111 193 -162q258 59 258 209zM1487 53q107 0 191 52t85 147q0 129 -213 170q-283 -57 -282 -221q0 -66 56 -107t163 -41zM1486 -12q-138 0 -218 58t-80 156t79 163q79 66 189 92q-74 25 -120 71t-46 113
q0 125 100 184t231 59q132 0 204 -51q71 -53 71 -141t-70 -150t-171 -91q84 -23 136 -73t52 -124q0 -133 -109 -200q-110 -66 -248 -66zM350 0h-47q-25 0 -6 20l1133 1399q16 16 30 17h47q25 -1 11 -21l-1135 -1399q-16 -16 -33 -16zM297 563q-18 0 -16 21q39 164 184 387
t309 395h-485q-20 0 -19 23l4 24q6 23 27 23h549q26 0 21 -27t-19 -43q-158 -168 -306 -395t-188 -387q-4 -20 -24 -21h-37z" />
    <glyph glyph-name="arrowleft" unicode="&#x2190;" horiz-adv-x="1302" 
d="M596 78h-53q-14 0 -25 10l-364 408q-22 26 8 51l510 409q14 10 26 11h56q10 1 11 -7t-7 -14l-490 -389l910 4q23 0 16 -18l-8 -41q0 -18 -23 -19l-907 4l352 -387q6 -8 2 -15t-14 -7z" />
    <glyph glyph-name="arrowup" unicode="&#x2191;" horiz-adv-x="1302" 
d="M606 41h-41q-18 0 -14 18l162 910l-461 -420q-8 -8 -15 -5t-6 13l9 55q6 14 16 25l485 436q15 12 29 12t23 -12l331 -436q8 -12 6 -25l-10 -55q-2 -10 -9 -13t-13 5l-314 420l-157 -910q-4 -18 -21 -18z" />
    <glyph glyph-name="arrowright" unicode="&#x2192;" horiz-adv-x="1302" 
d="M778 967q10 0 25 -11l362 -409q13 -9 9 -25t-17 -26l-508 -408q-14 -10 -26 -10h-56q-15 0 -13 12q1 6 7 10l490 387l-910 -4q-16 0 -16 19l8 41q2 18 23 18l909 -4l-354 389q-6 6 -2 13t14 8h55z" />
    <glyph glyph-name="arrowdown" unicode="&#x2193;" horiz-adv-x="1302" 
d="M776 1004q16 0 12 -21l-163 -907l462 420q11 8 17 5t4 -14l-8 -55q-6 -16 -17 -24l-485 -437q-12 -12 -26 -12t-25 12l-332 437q-8 16 -4 24l8 55q2 10 10 14q9 3 15 -5l311 -420l158 907q4 20 22 21h41z" />
    <glyph glyph-name="arrowboth" unicode="&#x2194;" horiz-adv-x="1990" 
d="M1468 967q14 0 25 -11l362 -409q13 -9 9 -25t-17 -26l-508 -408q-14 -10 -26 -10h-56q-16 0 -12 12q2 6 8 10l488 387l-746 -6l-739 6l352 -387q6 -8 2 -15t-14 -7h-53q-14 0 -25 10l-364 408q-24 29 8 51l510 409q14 10 26 11h56q10 1 11 -7t-7 -14l-490 -389l742 6
l743 -6l-352 389q-4 6 0 13t12 8h55z" />
    <glyph glyph-name="arrowupdn" unicode="&#x2195;" horiz-adv-x="1302" 
d="M549 -137q-8 0 -27 14l-334 434q-8 16 -6 27l11 53q2 11 9 15t13 -5l313 -421l90 544l103 541l-463 -422q-8 -6 -15 -3t-5 11l10 56q2 14 14 26l488 434q10 13 25 13t26 -13l329 -434q8 -8 7 -26l-9 -56q-10 -26 -24 -8l-313 422l-89 -541l-104 -544l463 421q8 9 15 5
t5 -15l-8 -53q-2 -12 -16 -27l-486 -434q-14 -14 -22 -14z" />
    <glyph glyph-name="arrowupleft" unicode="&#x2196;" horiz-adv-x="1302" 
d="M1032 829l-567 25l532 -639q10 -16 -6 -29l-33 -26q-12 -12 -26 0l-526 645l-76 -572q-2 -10 -10 -13t-15 3l-31 39q-10 10 -6 27l86 596q4 35 41 37l594 -19q12 0 25 -12l30 -39q6 -6 3 -14q-5 -9 -15 -9z" />
    <glyph glyph-name="arrowupright" unicode="&#x2197;" horiz-adv-x="1302" 
d="M973 854l-576 -25q-10 1 -12 9t6 14l45 39q12 12 27 12l602 19q33 0 29 -37l-123 -596q-2 -12 -17 -27l-47 -39q-6 -6 -13 -3t-5 13l125 572l-756 -645q-12 -12 -27 0l-22 26q-8 14 6 29z" />
    <glyph glyph-name="arrowdownright" unicode="&#x2198;" horiz-adv-x="1302" 
d="M287 203l567 -25l-532 641q-12 10 4 27l32 28q14 12 27 0l526 -645l78 572q2 10 9 13t14 -3l30 -39q10 -10 9 -27l-88 -598q-2 -12 -13 -26q-10 -8 -28 -8l-594 18q-12 0 -25 12l-31 39q-6 6 -1 14q6 7 16 7z" />
    <glyph glyph-name="arrowdownleft" unicode="&#x2199;" horiz-adv-x="1302" 
d="M346 178l574 25q10 0 12 -7t-4 -14l-45 -39q-14 -12 -29 -12l-600 -18q-18 0 -27 8q-6 10 -4 26l125 598q4 16 17 27l45 39q6 6 14 3t6 -13l-127 -572l756 645q14 14 26 0l23 -28q10 -10 -4 -27z" />
    <glyph glyph-name="partialdiff" unicode="&#x2202;" horiz-adv-x="1267" 
d="M477 55q217 0 375 161t158 357q0 133 -84 215t-240 82q-219 0 -367 -157q-147 -158 -147 -367q0 -133 78 -212t227 -79zM782 1456q219 0 331 -122t112 -341q0 -350 -185 -666q-88 -153 -235 -250t-331 -97t-286 97t-102 259q0 254 176 433t424 179q201 0 299 -118
t80 -259q76 223 76 417q-1 194 -97 293t-276 99q-123 0 -246 -45q-20 -6 -24 11l-4 38q0 12 18 21q127 51 270 51z" />
    <glyph glyph-name="Delta" unicode="&#x2206;" horiz-adv-x="1359" 
d="M827 1348l-663 -1270h893l-221 1270h-9zM817 1436h62q20 0 24 -23l238 -1366q4 -19 -8 -33t-35 -14h-1002q-22 0 -30 14t2 33l718 1366q6 23 31 23z" />
    <glyph glyph-name="product" unicode="&#x220f;" horiz-adv-x="1474" 
d="M1534 1436q18 0 14 -19l-6 -43q-6 -18 -22 -18h-244l-236 -1338q-4 -18 -20 -18h-47q-20 0 -15 18l236 1338h-600l-236 -1338q-2 -18 -20 -18h-47q-20 0 -17 18l238 1338h-244q-18 0 -16 18l8 43q2 18 23 19h1251z" />
    <glyph glyph-name="summation" unicode="&#x2211;" horiz-adv-x="1196" 
d="M969 -147q18 0 14 -19l-8 -41q-4 -18 -21 -18h-944q-20 0 -16 22l6 33q2 10 16 31l682 751l-409 729q-8 16 -4 31l6 45q6 18 24 19h922q16 0 14 -19l-6 -41q-6 -18 -22 -18h-848l407 -717q4 -12 2 -23v-16q-2 -12 -12 -24l-666 -725h863z" />
    <glyph glyph-name="minus" unicode="&#x2212;" horiz-adv-x="1179" 
d="M1063 676h-875q-16 0 -14 18l6 37q4 18 23 19h872q18 0 15 -19l-7 -37q-2 -18 -20 -18z" />
    <glyph glyph-name="uni2215" unicode="&#x2215;" horiz-adv-x="145" 
d="M-438 0h-47q-25 0 -7 20l1133 1399q16 16 31 17h47q24 -1 10 -21l-1135 -1399q-16 -16 -32 -16z" />
    <glyph glyph-name="uni2219" unicode="&#x2219;" horiz-adv-x="417" 
d="M186 602h88q16 0 15 -18l-21 -127q-6 -18 -20 -19h-90q-19 1 -15 19l21 127q6 18 22 18z" />
    <glyph glyph-name="radical" unicode="&#x221a;" horiz-adv-x="1304" 
d="M588 -143h-47q-20 0 -25 20l-164 903h-159q-20 0 -21 19l8 39q2 16 25 16h205q20 0 22 -16l146 -850h6l702 1548q8 18 23 18h53q23 0 12 -22l-758 -1655q-5 -20 -28 -20z" />
    <glyph glyph-name="infinity" unicode="&#x221e;" horiz-adv-x="1497" 
d="M1341 791q-1 192 -213 192q-108 0 -162 -45t-112 -170l-86 -178q33 -62 89 -100t169 -37q147 0 231 92t84 246zM240 647q0 -196 216 -196q110 0 162 45t111 170l84 178q-31 63 -87 101t-185 38t-215 -92t-86 -244zM1008 387q-197 0 -277 135q-98 -135 -293 -135
q-131 0 -205 68t-73 190q0 172 109 287q109 114 307 114t278 -135q96 135 289 136q131 0 203 -67t71 -187q0 -174 -106 -290t-303 -116z" />
    <glyph glyph-name="integral" unicode="&#x222b;" horiz-adv-x="679" 
d="M662 1370q-68 0 -103 -46t-51 -138l-207 -1168q-45 -252 -235 -251q-63 0 -107 14q-16 4 -10 20l14 37q6 14 25 12q41 -10 78 -10q70 0 104 46t53 139l205 1167q20 125 76 188q56 64 140 64t126 -14q14 -4 8 -21l-12 -37q-8 -14 -25 -12q-61 10 -79 10z" />
    <glyph glyph-name="approxequal" unicode="&#x2248;" horiz-adv-x="1179" 
d="M844 397q-72 0 -180 43l-166 68q-106 45 -156 45q-76 0 -125 -78l-16 -29q-4 -14 -23 -14h-31q-25 0 -10 27q74 162 215 162q66 0 180 -46l162 -61q121 -47 164 -47q74 0 119 76l14 28q4 14 23 15h30q8 0 13 -9q4 -10 0 -20q-72 -160 -213 -160zM915 809q-74 0 -180 43
l-166 68q-111 45 -157 45q-76 0 -123 -78q-1 -2 -19 -35q-4 -8 -20 -8h-31q-20 0 -12 26q74 162 217 162q57 0 180 -45l164 -61q125 -49 162 -49q72 0 119 77l14 29q6 14 22 14h31q22 1 14 -28q-74 -160 -215 -160z" />
    <glyph glyph-name="notequal" unicode="&#x2260;" horiz-adv-x="1179" 
d="M1016 481h-502l-311 -463q-14 -18 -31 -18h-39q-20 0 -10 20l313 461h-270q-18 0 -14 19l6 37q2 18 22 18h303l219 322h-464q-20 0 -17 18l8 39q0 16 21 16h502l317 469q12 16 27 17h41q23 0 8 -23l-314 -463h269q18 0 14 -16l-6 -39q-6 -18 -23 -18h-303l-219 -322h467
q18 0 14 -18l-6 -37q-2 -19 -22 -19z" />
    <glyph glyph-name="lessequal" unicode="&#x2264;" horiz-adv-x="1179" 
d="M897 0h-817q-18 0 -17 18l7 33q4 18 20 19h817q18 0 17 -19l-6 -33q-5 -18 -21 -18zM197 713q-13 10 -11 25t21 26l889 563q14 8 24 -4l21 -35q8 -16 -8 -22l-846 -527l659 -528q12 -10 0 -25l-33 -32q-12 -12 -26 -4z" />
    <glyph glyph-name="greaterequal" unicode="&#x2265;" horiz-adv-x="1179" 
d="M936 0h-817q-20 0 -17 18l7 33q2 18 20 19h817q20 0 17 -19l-7 -33q-2 -18 -20 -18zM1077 764q14 -9 11 -26t-21 -25l-889 -563q-16 -10 -22 4l-23 32q-6 16 10 25l842 528l-657 527q-14 8 0 22l32 35q14 14 27 4z" />
    <glyph glyph-name="lozenge" unicode="&#x25ca;" horiz-adv-x="1359" 
d="M595 -12q-13 0 -22 12l-385 700q-12 18 7 35l630 701q11 10 27 10t20 -10l385 -701q8 -15 -6 -35l-630 -700q-13 -12 -26 -12zM614 100l557 617l-340 618l-559 -618z" />
    <glyph glyph-name="uniE000" unicode="&#xe000;" horiz-adv-x="1024" 
 />
    <glyph glyph-name="Q.alt" unicode="&#xe001;" horiz-adv-x="1429" 
d="M641 57q254 0 409 170t212 490q20 133 20 219q0 440 -408 440q-252 0 -408 -169t-212 -488q-20 -133 -21 -219q0 -443 408 -443zM879 1456q243 0 367 -133t124 -383q0 -98 -22 -223q-60 -343 -232 -533t-452 -200l-27 -191q-2 -18 -21 -18h-51q-20 0 -14 18l39 191
q-215 8 -329 143t-114 375q0 100 19 215q62 355 244 547t469 192z" />
    <glyph glyph-name="a.alt" unicode="&#xe002;" horiz-adv-x="1202" 
d="M928 0h-43q-20 0 -17 18l37 213q-139 -252 -424 -251q-178 0 -276 101t-99 292q0 76 15 149q45 260 184 402t346 141q141 0 237 -67t120 -187l36 211q4 18 23 18h43q16 0 14 -18l-176 -1004q-2 -18 -20 -18zM644 991q-167 0 -284 -119t-155 -350q-14 -74 -15 -149
q0 -319 302 -320q182 0 304 122q121 122 160 347q14 72 15 140q0 329 -327 329z" />
    <glyph glyph-name="u.alt" unicode="&#xe003;" horiz-adv-x="1130" 
d="M492 -20q-172 0 -265 74q-92 75 -92 216q0 47 8 88l117 664q2 18 21 18h45q18 0 14 -18l-117 -662q-6 -41 -6 -77q0 -227 275 -228q322 0 374 305l117 662q6 18 23 18h43q20 0 14 -18l-117 -664q-63 -378 -454 -378z" />
    <glyph glyph-name="y.alt" unicode="&#xe004;" horiz-adv-x="1142" 
d="M467 84q-156 0 -235 74t-78 209q0 49 8 96l98 559q2 18 21 18h45q18 0 14 -18l-96 -551q-8 -43 -8 -90q0 -221 243 -221q154 0 271 95t143 245l92 522q6 18 23 18h43q20 0 14 -18l-154 -877q-68 -395 -477 -395q-207 0 -330 68q-12 6 -8 18l17 39q8 18 24 10
q133 -61 299 -61q343 0 398 328l26 159q-123 -227 -393 -227z" />
    <glyph glyph-name="j.alt" unicode="&#xe005;" horiz-adv-x="442" 
d="M328 1202q-16 0 -15 19l31 174q4 18 21 18h45q16 0 14 -18l-31 -174q-4 -18 -20 -19h-45zM121 -225h-45q-18 0 -15 18l218 1229q4 18 20 18h45q16 0 14 -18l-217 -1229q-2 -18 -20 -18z" />
    <glyph glyph-name="agrave.alt" unicode="&#xe006;" horiz-adv-x="1202" 
d="M809 1194h-23q-14 0 -28 14l-162 187q-6 8 -2 17t14 9h68q23 0 33 -20l114 -184q8 -23 -14 -23zM928 0h-43q-20 0 -17 18l37 213q-139 -252 -424 -251q-178 0 -276 101t-99 292q0 76 15 149q45 260 184 402t346 141q141 0 237 -67t120 -187l36 211q4 18 23 18h43
q16 0 14 -18l-176 -1004q-2 -18 -20 -18zM644 991q-167 0 -284 -119t-155 -350q-14 -74 -15 -149q0 -319 302 -320q182 0 304 122q121 122 160 347q14 72 15 140q0 329 -327 329z" />
    <glyph glyph-name="aacute.alt" unicode="&#xe007;" horiz-adv-x="1202" 
d="M858 1421h70q16 0 12 -15q-2 -7 -8 -11l-223 -187q-18 -14 -33 -14h-27q-8 0 -10 8t6 15l172 184q20 20 41 20zM928 0h-43q-20 0 -17 18l37 213q-139 -252 -424 -251q-178 0 -276 101t-99 292q0 76 15 149q45 260 184 402t346 141q141 0 237 -67t120 -187l36 211
q4 18 23 18h43q16 0 14 -18l-176 -1004q-2 -18 -20 -18zM644 991q-167 0 -284 -119t-155 -350q-14 -74 -15 -149q0 -319 302 -320q182 0 304 122q121 122 160 347q14 72 15 140q0 329 -327 329z" />
    <glyph glyph-name="acircumflex.alt" unicode="&#xe008;" horiz-adv-x="1202" 
d="M539 1194h-39q-12 0 -14 7q-1 7 8 13l223 191q16 12 35 12h41q14 0 30 -12l156 -191q6 -6 3 -13t-15 -7h-37q-11 0 -23 14l-143 150l-195 -150q-16 -14 -30 -14zM928 0h-43q-20 0 -17 18l37 213q-139 -252 -424 -251q-178 0 -276 101t-99 292q0 76 15 149q45 260 184 402
t346 141q141 0 237 -67t120 -187l36 211q4 18 23 18h43q16 0 14 -18l-176 -1004q-2 -18 -20 -18zM644 991q-167 0 -284 -119t-155 -350q-14 -74 -15 -149q0 -319 302 -320q182 0 304 122q121 122 160 347q14 72 15 140q0 329 -327 329z" />
    <glyph glyph-name="atilde.alt" unicode="&#xe009;" horiz-adv-x="1202" 
d="M887 1194q-59 0 -137 39l-41 20q-66 31 -110 31t-60 -37l-13 -28q-12 -20 -30 -21h-23q-16 0 -12 23q10 57 47 91t94 34t141 -39l41 -21q70 -33 114 -33t60 45l9 23q6 20 30 20h25q14 1 7 -38t-45 -74t-97 -35zM928 0h-43q-20 0 -17 18l37 213q-139 -252 -424 -251
q-178 0 -276 101t-99 292q0 76 15 149q45 260 184 402t346 141q141 0 237 -67t120 -187l36 211q4 18 23 18h43q16 0 14 -18l-176 -1004q-2 -18 -20 -18zM644 991q-167 0 -284 -119t-155 -350q-14 -74 -15 -149q0 -319 302 -320q182 0 304 122q121 122 160 347q14 72 15 140
q0 329 -327 329z" />
    <glyph glyph-name="adieresis.alt" unicode="&#xe00a;" horiz-adv-x="1202" 
d="M934 1194h-55q-20 0 -15 18l25 144q4 18 20 18h56q18 0 14 -18l-25 -144q-6 -18 -20 -18zM588 1194h-56q-16 0 -14 18l25 144q6 18 22 18h53q21 0 15 -18l-25 -144q-2 -18 -20 -18zM928 0h-43q-20 0 -17 18l37 213q-139 -252 -424 -251q-178 0 -276 101t-99 292
q0 76 15 149q45 260 184 402t346 141q141 0 237 -67t120 -187l36 211q4 18 23 18h43q16 0 14 -18l-176 -1004q-2 -18 -20 -18zM644 991q-167 0 -284 -119t-155 -350q-14 -74 -15 -149q0 -319 302 -320q182 0 304 122q121 122 160 347q14 72 15 140q0 329 -327 329z" />
    <glyph glyph-name="amacron.alt" unicode="&#xe00b;" horiz-adv-x="1202" 
d="M995 1212h-518q-18 0 -14 19l4 31q4 16 22 16h519q14 0 14 -16l-6 -31q-5 -19 -21 -19zM928 0h-43q-20 0 -17 18l37 213q-139 -252 -424 -251q-178 0 -276 101t-99 292q0 76 15 149q45 260 184 402t346 141q141 0 237 -67t120 -187l36 211q4 18 23 18h43q16 0 14 -18
l-176 -1004q-2 -18 -20 -18zM644 991q-167 0 -284 -119t-155 -350q-14 -74 -15 -149q0 -319 302 -320q182 0 304 122q121 122 160 347q14 72 15 140q0 329 -327 329z" />
    <glyph glyph-name="abreve.alt" unicode="&#xe00c;" horiz-adv-x="1202" 
d="M741 1188q-125 0 -180 62t-43 143q4 16 19 16h28q14 0 17 -14q2 -66 34 -104t127 -38q94 0 140 37q45 37 73 105q2 14 19 14h29q18 0 14 -16q-18 -85 -85 -145t-192 -60zM928 0h-43q-20 0 -17 18l37 213q-139 -252 -424 -251q-178 0 -276 101t-99 292q0 76 15 149
q45 260 184 402t346 141q141 0 237 -67t120 -187l36 211q4 18 23 18h43q16 0 14 -18l-176 -1004q-2 -18 -20 -18zM644 991q-167 0 -284 -119t-155 -350q-14 -74 -15 -149q0 -319 302 -320q182 0 304 122q121 122 160 347q14 72 15 140q0 329 -327 329z" />
    <glyph glyph-name="aring.alt" unicode="&#xe00d;" horiz-adv-x="1202" 
d="M563 1336q-1 76 63 136q64 58 152 58t135 -41t47 -118t-64 -135q-65 -58 -152 -58t-134 41t-47 117zM627 1329q0 -96 118 -96q59 0 106 39q46 39 46 106q0 96 -117 97q-63 0 -108 -38t-45 -108zM928 0h-43q-20 0 -17 18l37 213q-139 -252 -424 -251q-178 0 -276 101
t-99 292q0 76 15 149q45 260 184 402t346 141q141 0 237 -67t120 -187l36 211q4 18 23 18h43q16 0 14 -18l-176 -1004q-2 -18 -20 -18zM644 991q-167 0 -284 -119t-155 -350q-14 -74 -15 -149q0 -319 302 -320q182 0 304 122q121 122 160 347q14 72 15 140q0 329 -327 329z
" />
    <glyph glyph-name="aringacute.alt" unicode="&#xe00e;" horiz-adv-x="1202" 
d="M627 1329q0 -96 118 -96q59 0 106 39q46 39 46 106q0 96 -117 97q-63 0 -108 -38t-45 -108zM744 1178q-87 0 -134 40t-47 109q0 68 41 120t109 73l147 157q20 20 41 21h70q16 0 12 -16q-2 -7 -8 -11l-170 -141q72 -6 114 -46t42 -115t-65 -133t-152 -58zM644 991
q-167 0 -284 -119t-155 -350q-14 -74 -15 -149q0 -319 302 -320q182 0 304 122q121 122 160 347q14 72 15 140q0 329 -327 329zM928 0h-43q-20 0 -17 18l37 213q-139 -252 -424 -251q-178 0 -276 101t-99 292q0 76 15 149q45 260 184 402t346 141q141 0 237 -67t120 -187
l36 211q4 18 23 18h43q16 0 14 -18l-176 -1004q-2 -18 -20 -18z" />
    <glyph glyph-name="aogonek.alt" unicode="&#xe00f;" horiz-adv-x="1202" 
d="M644 991q-167 0 -284 -119t-155 -350q-14 -74 -15 -149q0 -319 302 -320q182 0 304 122q121 122 160 347q14 72 15 140q0 329 -327 329zM928 0h-27q-172 -74 -172 -178q0 -53 96 -53q41 0 61 6t21 -4l2 -29q0 -12 -8 -16q-37 -20 -99 -20q-143 -1 -143 112q1 61 63 116
t146 84l37 213q-139 -252 -424 -251q-178 0 -276 101t-99 292q0 76 15 149q45 260 184 402t346 141q141 0 237 -67t120 -187l36 211q4 18 23 18h43q16 0 14 -18l-176 -1004q-2 -18 -20 -18z" />
    <glyph glyph-name="ij.alt" unicode="&#xe010;" horiz-adv-x="874" 
d="M760 1202q-18 0 -15 19l31 174q2 18 21 18h45q18 0 14 -18l-31 -174q-2 -18 -20 -19h-45zM553 -225h-45q-16 0 -14 18l217 1229q2 18 20 18h45q19 0 15 -18l-218 -1229q-4 -18 -20 -18zM328 1202q-16 0 -15 19l31 174q4 18 21 18h45q16 0 14 -18l-31 -174q-4 -18 -20 -19
h-45zM162 0h-45q-20 0 -15 18l177 1004q4 18 20 18h45q16 0 14 -18l-176 -1004q-6 -18 -20 -18z" />
    <glyph glyph-name="jcircumflex.alt" unicode="&#xe011;" horiz-adv-x="444" 
d="M156 1194h-39q-12 0 -14 7q-1 7 8 13l223 191q14 12 35 12h41q16 0 30 -12l156 -191q6 -6 3 -13t-15 -7h-37q-11 0 -23 14l-143 150l-195 -150q-16 -14 -30 -14zM121 -225h-45q-18 0 -15 18l218 1229q4 18 20 18h45q16 0 14 -18l-217 -1229q-2 -18 -20 -18z" />
    <glyph glyph-name="dotlessj.alt" unicode="&#xe012;" horiz-adv-x="442" 
d="M121 -225h-45q-18 0 -15 18l218 1229q4 18 20 18h45q16 0 14 -18l-217 -1229q-2 -18 -20 -18z" />
    <glyph glyph-name="ugrave.alt" unicode="&#xe013;" horiz-adv-x="1130" 
d="M754 1194h-23q-14 0 -29 14l-161 187q-6 8 -2 17t14 9h68q22 0 32 -20l115 -184q8 -23 -14 -23zM492 -20q-172 0 -265 74q-92 75 -92 216q0 47 8 88l117 664q2 18 21 18h45q18 0 14 -18l-117 -662q-6 -41 -6 -77q0 -227 275 -228q322 0 374 305l117 662q6 18 23 18h43
q20 0 14 -18l-117 -664q-63 -378 -454 -378z" />
    <glyph glyph-name="uacute.alt" unicode="&#xe014;" horiz-adv-x="1130" 
d="M842 1421h69q17 0 13 -15q-2 -7 -9 -11l-223 -187q-18 -14 -33 -14h-26q-8 0 -10 8t6 15l172 184q20 20 41 20zM492 -20q-172 0 -265 74q-92 75 -92 216q0 47 8 88l117 664q2 18 21 18h45q18 0 14 -18l-117 -662q-6 -41 -6 -77q0 -227 275 -228q322 0 374 305l117 662
q6 18 23 18h43q20 0 14 -18l-117 -664q-63 -378 -454 -378z" />
    <glyph glyph-name="ucircumflex.alt" unicode="&#xe015;" horiz-adv-x="1130" 
d="M498 1194h-39q-12 0 -14 7q-1 7 8 13l223 191q16 12 35 12h41q14 0 30 -12l156 -191q6 -6 3 -13t-15 -7h-37q-11 0 -23 14l-143 150l-195 -150q-16 -14 -30 -14zM492 -20q-172 0 -265 74q-92 75 -92 216q0 47 8 88l117 664q2 18 21 18h45q18 0 14 -18l-117 -662
q-6 -41 -6 -77q0 -227 275 -228q322 0 374 305l117 662q6 18 23 18h43q20 0 14 -18l-117 -664q-63 -378 -454 -378z" />
    <glyph glyph-name="utilde.alt" unicode="&#xe016;" horiz-adv-x="1130" 
d="M846 1194q-59 0 -137 39l-41 20q-66 31 -110 31t-60 -37l-13 -28q-12 -20 -30 -21h-23q-16 0 -12 23q10 57 47 91t94 34t141 -39l41 -21q70 -33 114 -33t61 45l8 23q6 20 30 20h25q14 1 7 -38t-45 -74t-97 -35zM492 -20q-172 0 -265 74q-92 75 -92 216q0 47 8 88l117 664
q2 18 21 18h45q18 0 14 -18l-117 -662q-6 -41 -6 -77q0 -227 275 -228q322 0 374 305l117 662q6 18 23 18h43q20 0 14 -18l-117 -664q-63 -378 -454 -378z" />
    <glyph glyph-name="udieresis.alt" unicode="&#xe017;" horiz-adv-x="1130" 
d="M893 1194h-55q-20 0 -15 18l25 144q4 18 20 18h56q18 0 14 -18l-25 -144q-6 -18 -20 -18zM547 1194h-55q-16 0 -15 18l25 144q6 18 22 18h54q20 0 14 -18l-25 -144q-2 -18 -20 -18zM492 -20q-172 0 -265 74q-92 75 -92 216q0 47 8 88l117 664q2 18 21 18h45q18 0 14 -18
l-117 -662q-6 -41 -6 -77q0 -227 275 -228q322 0 374 305l117 662q6 18 23 18h43q20 0 14 -18l-117 -664q-63 -378 -454 -378z" />
    <glyph glyph-name="umacron.alt" unicode="&#xe018;" horiz-adv-x="1130" 
d="M954 1212h-518q-18 0 -14 19l4 31q4 16 23 16h518q14 0 14 -16l-6 -31q-5 -19 -21 -19zM492 -20q-172 0 -265 74q-92 75 -92 216q0 47 8 88l117 664q2 18 21 18h45q18 0 14 -18l-117 -662q-6 -41 -6 -77q0 -227 275 -228q322 0 374 305l117 662q6 18 23 18h43
q20 0 14 -18l-117 -664q-63 -378 -454 -378z" />
    <glyph glyph-name="ubreve.alt" unicode="&#xe019;" horiz-adv-x="1130" 
d="M700 1188q-125 0 -180 62t-43 143q4 16 19 16h28q14 0 17 -14q3 -66 35 -104t126 -38t140 37q45 37 73 105q2 14 19 14h29q18 0 14 -16q-18 -85 -85 -145t-192 -60zM492 -20q-172 0 -265 74q-92 75 -92 216q0 47 8 88l117 664q2 18 21 18h45q18 0 14 -18l-117 -662
q-6 -41 -6 -77q0 -227 275 -228q322 0 374 305l117 662q6 18 23 18h43q20 0 14 -18l-117 -664q-63 -378 -454 -378z" />
    <glyph glyph-name="uring.alt" unicode="&#xe01a;" horiz-adv-x="1130" 
d="M522 1336q0 76 64 136q64 58 151 58q88 0 135 -41q48 -41 48 -118t-65 -135t-152 -58t-134 41t-47 117zM586 1329q0 -96 118 -96q59 0 106 39q46 39 46 106q0 96 -117 97q-63 0 -108 -38t-45 -108zM492 -20q-172 0 -265 74q-92 75 -92 216q0 47 8 88l117 664q2 18 21 18
h45q18 0 14 -18l-117 -662q-6 -41 -6 -77q0 -227 275 -228q322 0 374 305l117 662q6 18 23 18h43q20 0 14 -18l-117 -664q-63 -378 -454 -378z" />
    <glyph glyph-name="uhungarumlaut.alt" unicode="&#xe01b;" horiz-adv-x="1130" 
d="M952 1421h58q12 0 13 -9t-7 -17l-191 -187q-14 -14 -32 -14h-25q-24 0 -6 23l153 184q14 20 37 20zM662 1421h59q10 0 12 -9t-6 -17l-190 -187q-18 -14 -33 -14h-27q-8 0 -9 8t5 15l152 184q16 20 37 20zM492 -20q-172 0 -265 74q-92 75 -92 216q0 47 8 88l117 664
q2 18 21 18h45q18 0 14 -18l-117 -662q-6 -41 -6 -77q0 -227 275 -228q322 0 374 305l117 662q6 18 23 18h43q20 0 14 -18l-117 -664q-63 -378 -454 -378z" />
    <glyph glyph-name="ydieresis.alt" unicode="&#xe01c;" horiz-adv-x="1142" 
d="M899 1194h-55q-20 0 -15 18l25 144q2 18 20 18h56q16 0 14 -18l-24 -144q-6 -18 -21 -18zM553 1194h-55q-18 0 -15 18l25 144q6 18 22 18h54q20 0 14 -18l-25 -144q-4 -18 -20 -18zM467 84q-156 0 -235 74t-78 209q0 49 8 96l98 559q2 18 21 18h45q18 0 14 -18l-96 -551
q-8 -43 -8 -90q0 -221 243 -221q154 0 271 95t143 245l92 522q6 18 23 18h43q20 0 14 -18l-154 -877q-68 -395 -477 -395q-207 0 -330 68q-12 6 -8 18l17 39q8 18 24 10q133 -61 299 -61q343 0 398 328l26 159q-123 -227 -393 -227z" />
    <glyph glyph-name="yacute.alt" unicode="&#xe01d;" horiz-adv-x="1142" 
d="M846 1421h69q17 0 13 -15q-2 -7 -8 -11l-224 -187q-18 -14 -32 -14h-27q-8 0 -10 8t6 15l172 184q20 20 41 20zM467 84q-156 0 -235 74t-78 209q0 49 8 96l98 559q2 18 21 18h45q18 0 14 -18l-96 -551q-8 -43 -8 -90q0 -221 243 -221q154 0 271 95t143 245l92 522
q6 18 23 18h43q20 0 14 -18l-154 -877q-68 -395 -477 -395q-207 0 -330 68q-12 6 -8 18l17 39q8 18 24 10q133 -61 299 -61q343 0 398 328l26 159q-123 -227 -393 -227z" />
    <glyph glyph-name="ycircumflex.alt" unicode="&#xe01e;" horiz-adv-x="1142" 
d="M487 1194h-38q-12 0 -14 7q-1 7 7 13l224 191q14 12 34 12h41q16 0 31 -12l156 -191q6 -6 3 -13t-16 -7h-36q-11 0 -23 14l-143 150l-195 -150q-16 -14 -31 -14zM467 84q-156 0 -235 74t-78 209q0 49 8 96l98 559q2 18 21 18h45q18 0 14 -18l-96 -551q-8 -43 -8 -90
q0 -221 243 -221q154 0 271 95t143 245l92 522q6 18 23 18h43q20 0 14 -18l-154 -877q-68 -395 -477 -395q-207 0 -330 68q-12 6 -8 18l17 39q8 18 24 10q133 -61 299 -61q343 0 398 328l26 159q-123 -227 -393 -227z" />
    <glyph glyph-name="ygrave.alt" unicode="&#xe01f;" horiz-adv-x="1142" 
d="M737 1194h-22q-14 0 -29 14l-162 187q-6 8 -2 17t15 9h67q23 0 33 -20l115 -184q8 -23 -15 -23zM467 84q-156 0 -235 74t-78 209q0 49 8 96l98 559q2 18 21 18h45q18 0 14 -18l-96 -551q-8 -43 -8 -90q0 -221 243 -221q154 0 271 95t143 245l92 522q6 18 23 18h43
q20 0 14 -18l-154 -877q-68 -395 -477 -395q-207 0 -330 68q-12 6 -8 18l17 39q8 18 24 10q133 -61 299 -61q343 0 398 328l26 159q-123 -227 -393 -227z" />
    <glyph glyph-name="i.dot" unicode="&#xe020;" horiz-adv-x="442" 
d="M328 1202q-16 0 -15 19l31 174q4 18 21 18h45q16 0 14 -18l-31 -174q-4 -18 -20 -19h-45zM162 0h-45q-20 0 -15 18l177 1004q4 18 20 18h45q16 0 14 -18l-176 -1004q-6 -18 -20 -18z" />
    <glyph glyph-name="dollar.old" unicode="&#xe021;" horiz-adv-x="1021" 
d="M287 894q0 -48 7 -72q19 -63 108 -108q55 -27 107 -49q184 -75 255 -130q71 -56 96 -105t25 -111q0 -153 -118 -235t-290 -96l-22 -133q-6 -20 -27 -21h-33q-16 0 -14 21l22 129q-231 2 -354 57q-23 6 -12 25l22 34q10 20 31 13q115 -53 323 -53t322 106q66 61 66 154
t-92 153q-65 42 -214 107t-198 100q-98 72 -98 184q0 156 118 238q119 82 299 96l25 131q2 20 23 21h30q25 -1 19 -21l-23 -131q158 -6 271 -53q18 -6 10 -25l-19 -33q-10 -23 -32 -12q-106 47 -249 47t-254 -51q-58 -27 -94 -78t-36 -99z" />
    <glyph glyph-name="cent.old" unicode="&#xe022;" horiz-adv-x="1007" 
d="M788 1350q20 0 19 -21l-25 -135q121 -4 240 -64q18 -14 10 -24l-20 -33q-12 -18 -33 -10q-98 53 -229 53q-220 0 -356 -135t-181 -395q-14 -100 -14 -162q0 -180 92 -273t272 -94q125 0 258 58q20 8 25 -13l10 -32q4 -12 -18 -25q-121 -57 -269 -63l-22 -127
q-2 -18 -27 -19h-31q-18 0 -14 19l23 129q-186 10 -285 119q-98 110 -98 309q0 76 16 174q49 284 195 438t385 166l24 139q2 20 23 21h30z" />
    <glyph glyph-name="sterling.old" unicode="&#xe023;" horiz-adv-x="1144" 
d="M987 991q0 45 -68 86q-69 41 -213 41t-260 -80q-115 -80 -114 -219q0 -70 49 -184h385q25 0 18 -19l-4 -28q-4 -20 -26 -21h-353q20 -68 21 -137q0 -229 -205 -342q67 14 143 14t199 -22t209 -23t130 53t60 150q2 23 27 23h31q20 0 18 -25q-25 -139 -80 -208t-192 -68
q-68 0 -198 24t-202 23q-172 0 -303 -47q-27 -8 -28 6l-15 37q-4 16 15 24q141 55 230 153t89 220q0 65 -35 145h-176q-23 0 -16 21l4 28q4 18 25 19h141q-45 106 -45 180q0 183 143 281t325 98t275 -71q94 -71 94 -195q0 -92 -30 -92h-39q-13 0 -15 10l5 57q0 59 -10 73
t-9 15z" />
    <glyph glyph-name="yen.old" unicode="&#xe024;" horiz-adv-x="1083" 
d="M899 315h-344l-51 -295q-4 -20 -23 -20h-43q-20 0 -16 20l51 295h-344q-23 0 -18 19l4 26q6 20 24 21h346l11 53l-62 133h-262q-20 0 -16 19l4 26q2 20 24 21h226l-232 522q-10 25 19 25h41q16 0 24 -15l283 -657h2l514 657q14 14 31 15h47q29 0 8 -25l-418 -522h225
q25 0 19 -21l-4 -26q-2 -18 -25 -19h-264l-105 -133l-10 -53h346q20 0 19 -21l-6 -26q0 -19 -25 -19z" />
    <glyph glyph-name="Euro.old" unicode="&#xe025;" horiz-adv-x="1081" 
d="M63 514h132q4 49 10 78l16 82h-129q-18 0 -16 16l4 31q2 16 22 16h136q72 217 222 335q151 118 376 118q176 0 286 -70q23 -10 11 -22l-25 -31q-14 -20 -33 -14q-98 59 -239 59q-193 0 -322 -97t-190 -278h522q23 0 10 -22l-12 -25q-6 -16 -29 -16h-508q-4 -12 -20 -82
q-8 -63 -11 -78h424q20 0 11 -25l-13 -24q-10 -16 -30 -16h-396q-4 -181 92 -283t291 -103q139 0 267 58q20 10 28 -10l11 -33q4 -10 -17 -25q-135 -70 -293 -69q-229 0 -349 125t-116 340h-133q-22 0 -18 16l4 31q6 18 24 18z" />
    <glyph glyph-name="zero.old" unicode="&#xe026;" horiz-adv-x="1148" 
d="M502 61q377 0 469 525q18 104 18 186q0 340 -301 340q-377 0 -469 -526q-18 -102 -18 -185q0 -340 301 -340zM692 1188q186 0 284 -106t97 -308q0 -86 -18 -190q-51 -291 -191 -445t-364 -153q-186 0 -284 105q-97 105 -97 308q0 82 16 187q108 602 557 602z" />
    <glyph glyph-name="one.old" unicode="&#xe027;" horiz-adv-x="964" 
d="M764 0h-645q-16 0 -15 18l7 41q2 16 20 17h295l176 1005l-307 -192q-16 -10 -27 4l-20 27q-10 12 6 24l358 232q12 6 27 6h45q16 0 16 -19l-192 -1087h268q18 0 17 -17l-7 -41q-4 -18 -22 -18z" />
    <glyph glyph-name="two.old" unicode="&#xe028;" horiz-adv-x="1021" 
d="M887 903q0 93 -67 153q-66 60 -222 60t-251 -82t-95 -233q0 -29 -23 -29h-41q-18 0 -18 27q0 189 124 291t311 102t275 -79t89 -202q0 -309 -486 -643q-90 -61 -303 -192h651q20 0 17 -19l-6 -39q-2 -18 -21 -18h-788q-17 0 -15 18l5 35q2 12 20 25q346 211 471 305
q373 281 373 520z" />
    <glyph glyph-name="three.old" unicode="&#xe029;" horiz-adv-x="1028" 
d="M870 897q0 219 -340 219q-178 0 -323 -63q-18 -6 -21 10l-10 39q-2 12 14 20q168 72 362 72t298 -80q106 -80 106 -212t-89 -231t-220 -130q100 -18 168 -91t68 -196q0 -236 -157 -364q-158 -128 -398 -128t-387 76q-14 6 -7 21l23 43q10 18 27 10q143 -72 347 -72
t335 109t131 303q0 246 -332 246h-146q-18 0 -16 16l6 41q0 18 23 18h143q160 -1 278 89t117 235z" />
    <glyph glyph-name="four.old" unicode="&#xe02a;" horiz-adv-x="1191" 
d="M965 1174h53q18 0 14 -19l-166 -942h228q16 0 14 -20l-6 -37q-4 -20 -23 -21h-227l-59 -342q-6 -18 -23 -18h-45q-20 0 -16 18l59 342h-737q-16 0 -17 21l9 41q2 14 14 26l903 936q15 15 25 15zM930 1049l-805 -836h657z" />
    <glyph glyph-name="five.old" unicode="&#xe02b;" horiz-adv-x="1116" 
d="M1004 1098h-635q-63 -297 -129 -533q168 66 317 66q203 0 303 -89t101 -245q0 -250 -157 -392q-157 -143 -405 -143t-399 82q-16 6 -10 21l26 41q10 16 25 10q147 -78 360 -78t343 125t130 332q0 260 -323 260q-113 0 -227 -31l-117 -32q-12 0 -23 4l-20 10q-14 4 -8 24
q94 340 149 623q4 20 27 21h686q20 0 14 -19l-6 -39q-2 -18 -22 -18z" />
    <glyph glyph-name="six.old" unicode="&#xe02c;" horiz-adv-x="1124" 
d="M637 850q-199 0 -324 -144t-125 -354q0 -141 82 -217t230 -76q200 1 324 147t124 359q0 285 -311 285zM823 1436q9 0 11 -8t-7 -15q-164 -131 -307 -302t-219 -331q131 150 331 150t300 -96t100 -267q0 -241 -143 -413t-391 -172q-184 0 -288 95q-103 95 -104 267
q0 63 11 115q90 514 614 960q20 16 37 17h55z" />
    <glyph glyph-name="seven.old" unicode="&#xe02d;" horiz-adv-x="1042" 
d="M223 1174h838q20 0 14 -19l-6 -35q0 -8 -22 -30q-223 -244 -447 -628t-293 -669q-4 -18 -20 -18h-47q-18 0 -17 18q74 301 297 682t447 623h-756q-18 0 -16 18l8 39q2 19 20 19z" />
    <glyph glyph-name="eight.old" unicode="&#xe02e;" horiz-adv-x="1187" 
d="M168 310q0 -114 93 -184t267 -71t314 99t139 262q0 223 -344 291q-123 -25 -221 -68t-173 -129t-75 -200zM1077 1157q-1 101 -83 163t-243 62t-288 -86t-127 -235q0 -199 313 -277q428 109 428 373zM82 295q0 133 73 230q130 172 396 220q-135 35 -217 116t-82 200
q0 193 154 293t350 100t301 -83q106 -83 106 -210q0 -164 -126 -268t-302 -148q150 -31 241 -113t91 -220t-86 -240q-160 -191 -463 -190q-200 0 -318 90t-118 223z" />
    <glyph glyph-name="nine.old" unicode="&#xe02f;" horiz-adv-x="1124" 
d="M528 324q197 0 324 144t127 351q0 141 -82 219t-229 78q-203 0 -326 -146t-123 -362q0 -284 309 -284zM416 -213h-56q-24 0 -4 23q162 128 298 284t210 299q-130 -147 -330 -147t-300 95q-99 95 -99 265q1 240 145 414t390 174q184 0 287 -94t104 -266q0 -63 -10 -115
q-86 -488 -600 -918q-18 -14 -35 -14z" />
    <glyph glyph-name="dollar.tab" unicode="&#xe030;" horiz-adv-x="1282" 
d="M829 1376q-236 0 -361 -132q-71 -74 -71 -166t35 -132q20 -25 34 -41t85 -54q70 -38 145 -69t148 -67t107 -68q34 -33 66 -71q58 -68 58 -177q0 -182 -134 -286t-337 -127l-31 -172q-4 -18 -20 -19h-35q-18 0 -14 19l31 168q-258 0 -408 67q-18 8 -10 21l22 41
q10 16 27 10q145 -61 373 -62q174 0 312 85t138 251q0 122 -99 192q-70 49 -222 114t-229 122q-76 56 -102 110t-26 126q0 180 136 279t344 116l30 168q2 18 21 18h35q18 0 14 -18l-29 -166q174 -2 309 -63q16 -10 7 -23l-23 -39q-10 -18 -25 -12q-123 57 -301 57z" />
    <glyph glyph-name="cent.tab" unicode="&#xe031;" horiz-adv-x="1282" 
d="M850 1245h35q20 0 16 -18l-31 -162q158 -8 252 -70q14 -6 8 -20l-22 -35q-12 -18 -27 -10q-94 61 -247 61q-199 0 -328 -122t-168 -349q-14 -70 -14 -135q0 -164 86 -248t253 -84t283 64q20 8 25 -8l8 -37q4 -10 -14 -21q-121 -63 -285 -69l-29 -168q-4 -18 -22 -19h-33
q-20 0 -14 19l28 168q-174 8 -271 112t-97 287q0 65 12 139q43 248 185 390t362 155l28 162q6 18 21 18z" />
    <glyph glyph-name="sterling.tab" unicode="&#xe032;" horiz-adv-x="1282" 
d="M162 694q-18 0 -15 19l7 35q4 16 20 16h186q-55 150 -55 227q0 217 164 341t379 124t317 -84q103 -84 103 -211t-33 -127h-51q-14 0 -14 12t8 45q8 34 8 64q0 99 -81 161t-261 62t-315 -103q-136 -103 -136 -278q0 -78 58 -233h469q18 0 16 -16l-6 -35q-6 -18 -23 -19
h-436q37 -102 37 -188q0 -150 -89 -258t-216 -162q109 31 204 31t231 -27t242 -27t159 65q52 65 77 189q4 20 25 21h35q20 0 18 -23q-28 -163 -98 -245t-234 -82q-100 0 -231 28t-230 27q-193 0 -340 -57q-23 -8 -24 4l-17 41q-4 14 11 20q177 70 285 185t108 266
q0 88 -43 192h-219z" />
    <glyph glyph-name="yen.tab" unicode="&#xe033;" horiz-adv-x="1282" 
d="M584 0h-47q-20 0 -17 18l66 379h-432q-14 0 -15 19l6 33q2 18 21 18h432l12 61l-69 166h-334q-18 0 -14 19l6 32q2 18 20 19h295l-274 649q-8 23 16 23h49q16 0 25 -17l336 -811h2l618 811q16 16 31 17h53q23 0 8 -23l-504 -649h295q18 0 15 -19l-4 -32q-6 -18 -23 -19
h-332l-131 -166l-10 -61h432q20 0 14 -18l-4 -33q-4 -18 -22 -19h-432l-66 -379q-6 -18 -22 -18z" />
    <glyph glyph-name="Euro.tab" unicode="&#xe034;" horiz-adv-x="1282" 
d="M102 610h162q17 139 39 213h-162q-20 0 -14 17l6 34q0 18 21 19h168q82 260 265 412t445 151q193 0 334 -82q14 -6 8 -20l-26 -39q-12 -20 -29 -10q-123 72 -285 71q-231 0 -391 -129t-233 -354h630q18 0 9 -21l-19 -32q-10 -16 -29 -17h-612q-11 -42 -23 -118t-16 -95
h510q20 0 10 -20l-16 -33q-12 -18 -31 -18h-475q-8 -225 108 -353t353 -127q172 0 319 74q16 6 25 -12l10 -39q0 -12 -14 -19q-160 -84 -348 -83q-270 0 -410 151q-139 152 -133 408h-168q-16 0 -14 18l6 35q4 18 20 18z" />
    <glyph glyph-name="zero.tab" unicode="&#xe035;" horiz-adv-x="1282" 
d="M569 59q451 0 570 658q23 135 22 235q0 424 -360 424q-227 0 -371 -169t-199 -488q-25 -133 -24 -236q0 -424 362 -424zM805 1456q217 0 330 -130t112 -374q0 -102 -22 -233q-61 -357 -229 -547t-431 -190q-217 0 -331 130t-113 373q0 115 22 234q61 353 229 545t433 192
z" />
    <glyph glyph-name="one.tab" unicode="&#xe036;" horiz-adv-x="1282" 
d="M958 1436q20 0 17 -19l-248 -1399q-2 -18 -20 -18h-48q-20 0 -16 18l231 1313l-376 -239q-18 -12 -25 2l-20 32q-8 12 8 23l420 278q20 8 26 9h51z" />
    <glyph glyph-name="two.tab" unicode="&#xe037;" horiz-adv-x="1282" 
d="M360 997q0 -39 -20 -39h-41q-23 0 -23 39q0 217 146 338t362 121t317 -94t101 -248q0 -213 -171 -418q-60 -72 -110 -124q-51 -52 -135 -120t-136 -106q-52 -39 -145 -100t-134 -88t-127 -80h790q16 0 20 -1t1 -7q-4 -6 -4 -11l-7 -41q-4 -18 -22 -18h-918q-16 0 -16 18
l6 35q0 16 19 29q404 246 564 376q75 60 166 147q271 259 271 507q0 266 -326 266q-196 0 -312 -98t-116 -283z" />
    <glyph glyph-name="three.tab" unicode="&#xe038;" horiz-adv-x="1282" 
d="M1081 1149q0 229 -348 229q-182 0 -348 -69q-20 -10 -25 10l-8 39q-4 8 15 20q188 78 388 78t306 -79t106 -225t-87 -254t-228 -142q100 -16 167 -85t66 -194q-1 -239 -163 -367t-408 -128t-397 79q-16 6 -11 19l27 43q10 16 25 10q152 -76 360 -76t344 113
q137 113 137 301q0 242 -325 242h-148q-20 0 -16 18l8 39q7 18 23 18h145q170 0 283 102t112 259z" />
    <glyph glyph-name="four.tab" unicode="&#xe039;" horiz-adv-x="1282" 
d="M1055 1309l-867 -879h713zM891 0h-47q-20 0 -17 18l60 336h-793q-16 0 -14 19l6 43q2 12 14 26l965 979q18 14 25 15h53q16 0 14 -19l-174 -987h240q18 0 16 -18l-8 -39q0 -18 -21 -19h-239l-60 -336q-2 -18 -20 -18z" />
    <glyph glyph-name="five.tab" unicode="&#xe03a;" horiz-adv-x="1282" 
d="M1118 528q0 -256 -162 -401t-424 -145q-261 0 -413 79q-18 10 -8 23l24 41q10 16 25 8q162 -76 382 -76t355 129t135 340q0 266 -342 267q-164 0 -300 -48q-48 -16 -59 -16t-24 6l-20 8q-12 6 -8 25q102 352 155 647q6 20 27 21h721q18 0 16 -19l-6 -41q-6 -18 -23 -18
h-671q-45 -246 -136 -553q170 63 358 63t294 -91q104 -91 104 -249z" />
    <glyph glyph-name="six.tab" unicode="&#xe03b;" horiz-adv-x="1282" 
d="M616 57q207 0 338 154t131 354q0 135 -80 218q-81 83 -265 83t-330 -142q-145 -142 -146 -329q0 -135 90 -237t262 -101zM887 1378q-248 0 -417 -204t-216 -590q45 139 177 249q132 109 335 109t306 -104t104 -269q0 -247 -162 -417t-392 -170t-344 130
q-116 130 -116 365q0 100 20 203q60 356 244 566t465 210q166 0 272 -53q16 -10 11 -21l-25 -39q-11 -16 -25 -12q-104 47 -237 47z" />
    <glyph glyph-name="seven.tab" unicode="&#xe03c;" horiz-adv-x="1282" 
d="M352 1358q-16 0 -14 18l6 41q6 18 23 19h866q20 0 16 -19l-8 -37q0 -4 -20 -32q-253 -279 -487 -661t-300 -669q-4 -18 -20 -18h-52q-18 0 -16 18q74 304 314 694t479 646h-787z" />
    <glyph glyph-name="eight.tab" unicode="&#xe03d;" horiz-adv-x="1282" 
d="M205 296q0 -100 94 -170t275 -71q182 -1 322 95t140 262q0 118 -96 192t-258 103q-180 -35 -329 -128q-148 -93 -148 -283zM797 1382q-168 0 -295 -83t-127 -234q0 -201 321 -281q436 111 437 373q0 101 -84 163t-252 62zM565 -20q-209 0 -327 90t-119 224q0 134 76 231
t178 147t225 73q-137 37 -223 119t-86 208t82 218q148 166 432 166q201 0 309 -82t107 -211q0 -234 -284 -364q-73 -33 -155 -54q152 -31 248 -115t96 -205q0 -120 -51 -207q-89 -152 -312 -213q-96 -25 -196 -25z" />
    </font>
</defs>
</svg>
